<svg xmlns="http://www.w3.org/2000/svg" xmlns:xlink="http://www.w3.org/1999/xlink" width="800" zoomAndPan="magnify" viewBox="0 0 600 374.999991" height="500" preserveAspectRatio="xMidYMid meet" version="1.0"><defs><g/><clipPath id="7e136007c4"><path d="M 196 243 L 197 243 L 197 244 L 196 244 Z M 196 243 " clip-rule="nonzero"/></clipPath><clipPath id="0e668a7cca"><path d="M 8.921875 186.269531 L 137.792969 57.398438 L 268.785156 188.390625 L 139.914062 317.261719 Z M 8.921875 186.269531 " clip-rule="nonzero"/></clipPath><clipPath id="386c0971df"><path d="M 8.921875 186.269531 L 137.792969 57.398438 L 268.785156 188.390625 L 139.914062 317.261719 Z M 8.921875 186.269531 " clip-rule="nonzero"/></clipPath><clipPath id="41bd1043fd"><path d="M 55 103 L 199 103 L 199 275 L 55 275 Z M 55 103 " clip-rule="nonzero"/></clipPath><clipPath id="5c66a0595a"><path d="M 8.921875 186.269531 L 137.792969 57.398438 L 268.785156 188.390625 L 139.914062 317.261719 Z M 8.921875 186.269531 " clip-rule="nonzero"/></clipPath><clipPath id="688ece3e38"><path d="M 8.921875 186.269531 L 137.792969 57.398438 L 268.785156 188.390625 L 139.914062 317.261719 Z M 8.921875 186.269531 " clip-rule="nonzero"/></clipPath><clipPath id="5260c27f8e"><path d="M 196 243 L 197 243 L 197 244 L 196 244 Z M 196 243 " clip-rule="nonzero"/></clipPath><clipPath id="34f210ea64"><path d="M 8.921875 186.269531 L 137.792969 57.398438 L 268.785156 188.390625 L 139.914062 317.261719 Z M 8.921875 186.269531 " clip-rule="nonzero"/></clipPath><clipPath id="47cd3d33f9"><path d="M 8.921875 186.269531 L 137.792969 57.398438 L 268.785156 188.390625 L 139.914062 317.261719 Z M 8.921875 186.269531 " clip-rule="nonzero"/></clipPath><clipPath id="d35e3f0302"><path d="M 57 102 L 184 102 L 184 273 L 57 273 Z M 57 102 " clip-rule="nonzero"/></clipPath><clipPath id="8d05b83e91"><path d="M 8.921875 186.269531 L 137.792969 57.398438 L 268.785156 188.390625 L 139.914062 317.261719 Z M 8.921875 186.269531 " clip-rule="nonzero"/></clipPath><clipPath id="1132ebfbcf"><path d="M 8.921875 186.269531 L 137.792969 57.398438 L 268.785156 188.390625 L 139.914062 317.261719 Z M 8.921875 186.269531 " clip-rule="nonzero"/></clipPath><clipPath id="2c92bfa223"><path d="M 50 98 L 202 98 L 202 279 L 50 279 Z M 50 98 " clip-rule="nonzero"/></clipPath><clipPath id="fa748244f9"><path d="M 8.921875 186.269531 L 137.792969 57.398438 L 268.785156 188.390625 L 139.914062 317.261719 Z M 8.921875 186.269531 " clip-rule="nonzero"/></clipPath><clipPath id="a0951dcbc1"><path d="M 8.921875 186.269531 L 137.792969 57.398438 L 268.785156 188.390625 L 139.914062 317.261719 Z M 8.921875 186.269531 " clip-rule="nonzero"/></clipPath><clipPath id="273f338e83"><path d="M 53 101 L 200 101 L 200 277 L 53 277 Z M 53 101 " clip-rule="nonzero"/></clipPath><clipPath id="e1097406d4"><path d="M 8.921875 186.269531 L 137.792969 57.398438 L 268.785156 188.390625 L 139.914062 317.261719 Z M 8.921875 186.269531 " clip-rule="nonzero"/></clipPath><clipPath id="425a35398f"><path d="M 8.921875 186.269531 L 137.792969 57.398438 L 268.785156 188.390625 L 139.914062 317.261719 Z M 8.921875 186.269531 " clip-rule="nonzero"/></clipPath><clipPath id="00c4352a18"><path d="M 196 243 L 197 243 L 197 244 L 196 244 Z M 196 243 " clip-rule="nonzero"/></clipPath><clipPath id="2776863484"><path d="M 8.921875 186.269531 L 137.792969 57.398438 L 268.785156 188.390625 L 139.914062 317.261719 Z M 8.921875 186.269531 " clip-rule="nonzero"/></clipPath><clipPath id="de25cc84f8"><path d="M 8.921875 186.269531 L 137.792969 57.398438 L 268.785156 188.390625 L 139.914062 317.261719 Z M 8.921875 186.269531 " clip-rule="nonzero"/></clipPath></defs><g clip-path="url(#7e136007c4)"><g clip-path="url(#0e668a7cca)"><g clip-path="url(#386c0971df)"><path fill="#130c0e" d="M 196.242188 243.695312 L 196.21875 243.667969 Z M 196.242188 243.695312 " fill-opacity="1" fill-rule="nonzero"/></g></g></g><g clip-path="url(#41bd1043fd)"><g clip-path="url(#5c66a0595a)"><g clip-path="url(#688ece3e38)"><path fill="#130c0e" d="M 198.078125 124.75 L 175.96875 146.859375 C 175.441406 146.417969 174.902344 145.992188 174.359375 145.574219 C 173.535156 144.9375 172.691406 144.332031 171.839844 143.75 C 170.632812 142.925781 169.398438 142.160156 168.144531 141.449219 C 167.238281 140.933594 166.320312 140.445312 165.394531 139.988281 C 164.085938 139.339844 162.757812 138.75 161.410156 138.214844 C 160.441406 137.832031 159.464844 137.476562 158.480469 137.148438 C 157.097656 136.6875 155.699219 136.285156 154.289062 135.941406 C 153.277344 135.695312 152.261719 135.476562 151.242188 135.285156 C 149.808594 135.019531 148.371094 134.8125 146.925781 134.664062 C 145.894531 134.554688 144.859375 134.480469 143.820312 134.429688 C 142.367188 134.363281 140.914062 134.351562 139.460938 134.398438 C 138.425781 134.433594 137.386719 134.496094 136.351562 134.589844 C 134.90625 134.71875 133.464844 134.910156 132.03125 135.152344 C 131.007812 135.328125 129.992188 135.53125 128.976562 135.765625 C 127.5625 136.089844 126.164062 136.472656 124.773438 136.914062 C 123.789062 137.222656 122.808594 137.566406 121.835938 137.9375 C 120.484375 138.453125 119.148438 139.023438 117.828125 139.648438 C 116.894531 140.09375 115.972656 140.570312 115.058594 141.070312 C 113.789062 141.765625 112.542969 142.519531 111.324219 143.324219 C 110.460938 143.894531 109.609375 144.488281 108.773438 145.113281 C 107.617188 145.976562 106.488281 146.894531 105.386719 147.859375 C 104.722656 148.441406 104.074219 149.042969 103.433594 149.664062 C 103.335938 149.753906 103.242188 149.847656 103.144531 149.945312 L 103.105469 149.984375 C 103.011719 150.078125 102.914062 150.175781 102.820312 150.269531 C 101.878906 151.210938 100.980469 152.175781 100.125 153.167969 C 99.441406 153.957031 98.78125 154.761719 98.152344 155.582031 C 97.257812 156.742188 96.417969 157.929688 95.632812 159.144531 C 95.121094 159.933594 94.632812 160.730469 94.164062 161.539062 C 94.113281 161.628906 94.0625 161.71875 94.011719 161.808594 C 93.65625 162.433594 93.316406 163.0625 92.988281 163.695312 C 92.648438 164.351562 92.320312 165.015625 92.011719 165.683594 C 91.570312 166.628906 91.15625 167.585938 90.773438 168.550781 C 90.230469 169.910156 89.75 171.28125 89.324219 172.671875 C 89.015625 173.667969 88.738281 174.671875 88.492188 175.679688 C 88.332031 176.328125 88.1875 176.976562 88.054688 177.628906 C 87.890625 178.402344 87.75 179.179688 87.625 179.960938 C 87.617188 180 87.609375 180.035156 87.605469 180.074219 C 87.445312 181.0625 87.316406 182.058594 87.214844 183.054688 C 87.058594 184.503906 86.96875 185.957031 86.933594 187.417969 C 86.910156 188.457031 86.914062 189.496094 86.949219 190.535156 C 86.996094 191.988281 87.101562 193.441406 87.265625 194.890625 L 87.28125 195.007812 C 87.375 195.835938 87.488281 196.664062 87.621094 197.488281 C 87.648438 197.648438 87.675781 197.8125 87.703125 197.972656 C 87.949219 199.40625 88.25 200.832031 88.613281 202.246094 C 88.867188 203.25 89.152344 204.25 89.46875 205.242188 C 89.910156 206.625 90.402344 207.992188 90.957031 209.34375 C 91.292969 210.175781 91.65625 211 92.039062 211.8125 C 92.097656 211.941406 92.15625 212.066406 92.214844 212.191406 C 92.515625 212.820312 92.828125 213.441406 93.152344 214.058594 C 93.503906 214.730469 93.875 215.394531 94.257812 216.054688 C 94.777344 216.949219 95.328125 217.832031 95.902344 218.703125 C 96.699219 219.914062 97.550781 221.09375 98.457031 222.246094 C 99.09375 223.0625 99.761719 223.863281 100.453125 224.644531 C 100.9375 225.195312 101.433594 225.734375 101.945312 226.269531 C 102.230469 226.570312 102.519531 226.867188 102.816406 227.160156 C 103.035156 227.378906 103.253906 227.59375 103.472656 227.804688 C 103.558594 227.894531 103.648438 227.976562 103.734375 228.058594 C 104.402344 228.695312 105.082031 229.3125 105.773438 229.910156 C 106.886719 230.871094 108.027344 231.773438 109.195312 232.628906 C 110.039062 233.246094 110.894531 233.832031 111.765625 234.394531 C 112.996094 235.191406 114.25 235.929688 115.527344 236.613281 C 115.671875 236.691406 115.8125 236.765625 115.957031 236.839844 C 116.695312 237.230469 117.445312 237.597656 118.195312 237.953125 C 118.238281 237.972656 118.28125 237.992188 118.324219 238.011719 C 119.648438 238.625 120.996094 239.183594 122.359375 239.6875 C 123.339844 240.050781 124.328125 240.382812 125.320312 240.6875 C 126.71875 241.113281 128.125 241.480469 129.546875 241.792969 C 130.535156 242.007812 131.523438 242.195312 132.519531 242.355469 C 132.550781 242.363281 132.582031 242.367188 132.617188 242.371094 C 133.410156 242.5 134.203125 242.609375 135 242.703125 C 135.648438 242.777344 136.300781 242.839844 136.953125 242.890625 C 137.988281 242.972656 139.027344 243.023438 140.070312 243.046875 C 141.527344 243.082031 142.980469 243.054688 144.4375 242.96875 C 145.472656 242.910156 146.511719 242.820312 147.542969 242.699219 C 148.339844 242.609375 149.136719 242.5 149.933594 242.371094 C 150.574219 242.269531 151.21875 242.15625 151.855469 242.027344 C 152.03125 241.992188 152.207031 241.957031 152.378906 241.921875 C 153.222656 241.746094 154.0625 241.554688 154.894531 241.339844 C 156.300781 240.976562 157.695312 240.558594 159.074219 240.082031 C 160.054688 239.746094 161.023438 239.378906 161.988281 238.984375 C 163.328125 238.433594 164.648438 237.828125 165.949219 237.164062 C 166.074219 237.101562 166.195312 237.039062 166.316406 236.976562 C 167.046875 236.597656 167.765625 236.203125 168.476562 235.792969 C 168.546875 235.75 168.617188 235.710938 168.6875 235.671875 C 169.933594 234.941406 171.160156 234.15625 172.359375 233.320312 C 173.207031 232.726562 174.042969 232.105469 174.863281 231.460938 C 175.183594 231.210938 175.496094 230.957031 175.808594 230.699219 L 179.199219 233.953125 L 189.910156 244.234375 L 193.300781 247.484375 L 195.015625 249.132812 L 196.699219 250.746094 L 198.402344 252.382812 C 197.710938 253.007812 197.003906 253.621094 196.289062 254.21875 C 195.496094 254.890625 194.6875 255.542969 193.867188 256.183594 C 192.71875 257.082031 191.550781 257.949219 190.363281 258.78125 C 189.695312 259.25 189.023438 259.710938 188.34375 260.160156 C 188.15625 260.28125 187.96875 260.40625 187.777344 260.527344 C 186.558594 261.320312 185.316406 262.082031 184.054688 262.808594 C 183.15625 263.328125 182.246094 263.832031 181.328125 264.320312 C 180.042969 265.003906 178.738281 265.652344 177.417969 266.265625 C 176.476562 266.707031 175.527344 267.128906 174.566406 267.53125 C 174.195312 267.6875 173.820312 267.84375 173.445312 267.996094 C 172.472656 268.390625 171.492188 268.765625 170.503906 269.125 C 169.527344 269.480469 168.546875 269.816406 167.554688 270.132812 C 166.167969 270.578125 164.773438 270.988281 163.367188 271.367188 C 162.359375 271.632812 161.351562 271.882812 160.335938 272.117188 C 159.421875 272.324219 158.503906 272.519531 157.585938 272.695312 C 157.078125 272.792969 156.566406 272.886719 156.058594 272.976562 C 155.035156 273.15625 154.007812 273.316406 152.976562 273.457031 C 151.535156 273.65625 150.085938 273.816406 148.636719 273.941406 C 147.597656 274.03125 146.5625 274.101562 145.523438 274.15625 C 144.101562 274.222656 142.679688 274.261719 141.257812 274.261719 L 141.15625 274.261719 C 140.117188 274.257812 139.078125 274.238281 138.039062 274.199219 C 136.585938 274.152344 135.136719 274.0625 133.683594 273.929688 C 132.648438 273.839844 131.613281 273.726562 130.582031 273.597656 C 129.136719 273.417969 127.695312 273.203125 126.265625 272.945312 C 125.820312 272.867188 125.378906 272.785156 124.9375 272.699219 C 124.359375 272.589844 123.777344 272.472656 123.203125 272.34375 C 121.777344 272.039062 120.363281 271.695312 118.957031 271.316406 C 117.953125 271.046875 116.953125 270.757812 115.960938 270.453125 C 114.566406 270.023438 113.1875 269.558594 111.820312 269.058594 C 110.898438 268.71875 109.984375 268.367188 109.078125 268 C 109.023438 267.976562 108.96875 267.953125 108.910156 267.929688 C 107.5625 267.382812 106.230469 266.796875 104.910156 266.175781 C 103.96875 265.738281 103.035156 265.277344 102.109375 264.800781 C 100.816406 264.132812 99.539062 263.433594 98.28125 262.703125 C 97.378906 262.179688 96.492188 261.640625 95.613281 261.085938 C 95.132812 260.78125 94.652344 260.472656 94.179688 260.160156 C 93.4375 259.671875 92.707031 259.167969 91.980469 258.65625 C 91.128906 258.058594 90.292969 257.441406 89.464844 256.808594 C 88.304688 255.925781 87.171875 255.015625 86.058594 254.074219 C 85.265625 253.402344 84.484375 252.71875 83.714844 252.019531 C 82.710938 251.105469 81.730469 250.167969 80.769531 249.210938 C 80.699219 249.140625 80.628906 249.066406 80.558594 248.996094 C 79.824219 248.261719 79.105469 247.511719 78.398438 246.746094 C 77.410156 245.675781 76.449219 244.582031 75.515625 243.464844 C 74.851562 242.664062 74.199219 241.855469 73.5625 241.03125 C 72.667969 239.878906 71.808594 238.707031 70.976562 237.511719 C 70.582031 236.945312 70.195312 236.375 69.816406 235.800781 C 69.625 235.507812 69.433594 235.214844 69.242188 234.917969 C 68.457031 233.691406 67.699219 232.449219 66.976562 231.183594 C 66.460938 230.28125 65.960938 229.371094 65.476562 228.449219 C 64.800781 227.160156 64.160156 225.855469 63.550781 224.53125 C 63.113281 223.585938 62.695312 222.632812 62.296875 221.675781 C 62.1875 221.417969 62.082031 221.164062 61.980469 220.90625 C 61.535156 219.816406 61.117188 218.714844 60.71875 217.601562 C 60.367188 216.621094 60.035156 215.636719 59.722656 214.644531 C 59.28125 213.257812 58.878906 211.859375 58.507812 210.449219 C 58.242188 209.441406 57.996094 208.425781 57.769531 207.410156 C 57.59375 206.621094 57.429688 205.832031 57.273438 205.039062 C 57.152344 204.402344 57.035156 203.765625 56.925781 203.125 C 56.753906 202.101562 56.601562 201.070312 56.460938 200.042969 C 56.269531 198.597656 56.117188 197.152344 56 195.695312 C 55.914062 194.660156 55.847656 193.621094 55.800781 192.582031 C 55.742188 191.292969 55.710938 190.003906 55.710938 188.714844 L 55.714844 188.21875 C 55.71875 187.179688 55.746094 186.140625 55.789062 185.097656 C 55.851562 183.644531 55.949219 182.191406 56.085938 180.742188 C 56.179688 179.707031 56.296875 178.671875 56.429688 177.640625 C 56.617188 176.195312 56.839844 174.757812 57.101562 173.328125 C 57.160156 173.011719 57.21875 172.699219 57.277344 172.386719 C 57.414062 171.679688 57.5625 170.972656 57.714844 170.269531 C 58.027344 168.847656 58.378906 167.433594 58.765625 166.03125 C 59.039062 165.027344 59.332031 164.027344 59.640625 163.035156 C 60.074219 161.648438 60.546875 160.269531 61.054688 158.90625 C 61.351562 158.109375 61.65625 157.316406 61.976562 156.527344 C 62.046875 156.351562 62.121094 156.175781 62.191406 156 C 62.75 154.65625 63.339844 153.328125 63.964844 152.011719 C 64.410156 151.070312 64.871094 150.140625 65.351562 149.21875 C 66.023438 147.925781 66.730469 146.65625 67.46875 145.398438 C 67.992188 144.503906 68.535156 143.617188 69.097656 142.738281 C 69.332031 142.367188 69.574219 141.996094 69.816406 141.628906 C 70.375 140.785156 70.949219 139.949219 71.539062 139.121094 C 72.140625 138.277344 72.757812 137.441406 73.394531 136.617188 C 74.28125 135.46875 75.199219 134.335938 76.144531 133.226562 C 76.820312 132.433594 77.507812 131.65625 78.214844 130.894531 C 79.046875 129.984375 79.898438 129.09375 80.773438 128.222656 C 80.929688 128.066406 81.085938 127.90625 81.242188 127.75 L 81.371094 127.621094 L 81.382812 127.613281 C 82.027344 126.976562 82.683594 126.355469 83.351562 125.742188 C 83.398438 125.695312 83.453125 125.648438 83.503906 125.601562 C 84.578125 124.621094 85.675781 123.664062 86.792969 122.738281 C 87.59375 122.074219 88.40625 121.425781 89.230469 120.792969 C 90.386719 119.90625 91.5625 119.050781 92.761719 118.226562 C 93.230469 117.902344 93.703125 117.582031 94.179688 117.269531 C 94.570312 117.007812 94.960938 116.753906 95.359375 116.503906 C 96.585938 115.722656 97.832031 114.972656 99.097656 114.253906 C 100.003906 113.742188 100.914062 113.246094 101.839844 112.765625 L 102.113281 112.625 C 103.25 112.039062 104.394531 111.484375 105.554688 110.953125 C 105.621094 110.921875 105.691406 110.890625 105.757812 110.859375 C 106.703125 110.425781 107.65625 110.011719 108.617188 109.617188 L 109.074219 109.429688 C 110.269531 108.945312 111.476562 108.488281 112.691406 108.058594 C 113.671875 107.710938 114.660156 107.382812 115.648438 107.074219 C 117.039062 106.636719 118.4375 106.238281 119.847656 105.875 C 120.851562 105.617188 121.863281 105.375 122.878906 105.152344 C 123.5625 105.003906 124.246094 104.859375 124.933594 104.726562 C 125.675781 104.585938 126.417969 104.453125 127.160156 104.328125 C 127.21875 104.316406 127.273438 104.308594 127.332031 104.300781 C 128.300781 104.140625 129.269531 104 130.246094 103.871094 C 130.527344 103.835938 130.808594 103.800781 131.089844 103.769531 C 132.25 103.628906 133.414062 103.515625 134.582031 103.421875 C 135.621094 103.34375 136.65625 103.28125 137.695312 103.238281 C 138.882812 103.1875 140.070312 103.164062 141.261719 103.164062 C 141.527344 103.164062 141.792969 103.164062 142.058594 103.167969 C 143.09375 103.175781 144.132812 103.203125 145.171875 103.25 C 146.625 103.316406 148.074219 103.421875 149.523438 103.5625 C 150.558594 103.660156 151.589844 103.78125 152.617188 103.917969 C 152.984375 103.964844 153.347656 104.015625 153.710938 104.070312 C 154.785156 104.226562 155.859375 104.40625 156.925781 104.601562 C 157.09375 104.632812 157.261719 104.664062 157.429688 104.699219 C 157.480469 104.707031 157.535156 104.714844 157.585938 104.726562 C 158.386719 104.882812 159.183594 105.046875 159.980469 105.226562 C 161.398438 105.542969 162.808594 105.898438 164.210938 106.285156 C 165.214844 106.5625 166.207031 106.859375 167.199219 107.171875 C 168.585938 107.613281 169.960938 108.089844 171.320312 108.597656 C 172.035156 108.863281 172.742188 109.140625 173.449219 109.425781 C 173.707031 109.53125 173.960938 109.636719 174.21875 109.742188 C 175.558594 110.300781 176.886719 110.898438 178.199219 111.523438 C 178.414062 111.628906 178.628906 111.730469 178.839844 111.835938 C 179.558594 112.1875 180.273438 112.550781 180.984375 112.921875 C 181.386719 113.132812 181.789062 113.347656 182.191406 113.566406 C 183.066406 114.042969 183.933594 114.539062 184.792969 115.046875 C 185.6875 115.574219 186.574219 116.121094 187.445312 116.679688 C 187.75 116.875 188.050781 117.070312 188.347656 117.269531 C 189.261719 117.871094 190.164062 118.492188 191.054688 119.132812 C 191.898438 119.734375 192.730469 120.355469 193.550781 120.992188 C 194.699219 121.882812 195.828125 122.800781 196.933594 123.75 C 197.316406 124.082031 197.699219 124.414062 198.078125 124.75 Z M 198.078125 124.75 " fill-opacity="1" fill-rule="nonzero"/></g></g></g><g clip-path="url(#5260c27f8e)"><g clip-path="url(#34f210ea64)"><g clip-path="url(#47cd3d33f9)"><path fill="#fefefe" d="M 196.21875 243.667969 L 196.242188 243.695312 Z M 196.21875 243.667969 " fill-opacity="1" fill-rule="nonzero"/></g></g></g><g clip-path="url(#d35e3f0302)"><g clip-path="url(#8d05b83e91)"><g clip-path="url(#1132ebfbcf)"><path fill="#fefefe" d="M 183.050781 262.835938 C 181.925781 263.441406 180.769531 264.03125 179.617188 264.585938 L 166.085938 236.496094 C 166.816406 236.144531 167.546875 235.769531 168.257812 235.386719 Z M 157.753906 271.675781 C 156.5 271.902344 155.226562 272.105469 153.964844 272.273438 L 149.800781 241.375 C 150.601562 241.265625 151.414062 241.136719 152.210938 240.992188 Z M 131.015625 272.277344 C 129.753906 272.109375 128.476562 271.90625 127.226562 271.679688 L 132.765625 240.996094 C 133.5625 241.140625 134.375 241.269531 135.175781 241.378906 Z M 105.375 264.597656 C 104.226562 264.046875 103.074219 263.457031 101.957031 262.855469 L 116.734375 235.402344 C 117.445312 235.785156 118.171875 236.152344 118.894531 236.503906 Z M 83.382812 249.347656 C 82.917969 248.902344 82.449219 248.445312 81.992188 247.988281 C 81.550781 247.546875 81.109375 247.09375 80.675781 246.644531 L 103.195312 225.078125 C 103.472656 225.367188 103.757812 225.660156 104.042969 225.941406 C 104.335938 226.234375 104.632812 226.527344 104.933594 226.8125 Z M 94.601562 213.285156 L 67.15625 228.082031 C 66.550781 226.960938 65.960938 225.808594 65.40625 224.660156 L 93.492188 211.117188 C 93.84375 211.84375 94.214844 212.570312 94.597656 213.28125 Z M 168.210938 139.574219 C 167.5 139.191406 166.769531 138.820312 166.042969 138.46875 L 179.546875 110.367188 C 180.699219 110.917969 181.851562 111.503906 182.976562 112.109375 Z M 88.988281 197.242188 L 58.308594 202.796875 C 58.078125 201.542969 57.878906 200.269531 57.707031 199.003906 L 88.605469 194.828125 C 88.714844 195.632812 88.84375 196.441406 88.988281 197.242188 Z M 152.167969 133.984375 C 151.371094 133.839844 150.558594 133.714844 149.753906 133.605469 L 153.894531 102.703125 C 155.15625 102.871094 156.429688 103.070312 157.683594 103.296875 Z M 88.601562 180.207031 L 57.699219 176.0625 C 57.867188 174.800781 58.066406 173.523438 58.292969 172.273438 L 88.980469 177.796875 C 88.835938 178.59375 88.707031 179.40625 88.601562 180.207031 Z M 135.136719 133.613281 C 134.332031 133.722656 133.519531 133.851562 132.722656 134 L 127.160156 103.316406 C 128.410156 103.089844 129.6875 102.890625 130.949219 102.71875 Z M 93.464844 163.925781 L 65.363281 150.417969 C 65.917969 149.265625 66.503906 148.113281 67.109375 146.988281 L 94.570312 161.757812 C 94.1875 162.46875 93.816406 163.199219 93.464844 163.925781 Z M 118.851562 138.507812 C 118.121094 138.859375 117.390625 139.230469 116.679688 139.617188 L 101.875 112.183594 C 103 111.574219 104.152344 110.984375 105.304688 110.425781 Z M 103.152344 149.953125 L 80.609375 128.414062 C 81.0625 127.9375 81.527344 127.464844 81.992188 127 C 82.425781 126.566406 82.871094 126.128906 83.3125 125.707031 L 104.886719 148.21875 C 104.300781 148.78125 103.714844 149.363281 103.152344 149.953125 Z M 103.152344 149.953125 " fill-opacity="1" fill-rule="nonzero"/></g></g></g><g clip-path="url(#2c92bfa223)"><g clip-path="url(#fa748244f9)"><g clip-path="url(#a0951dcbc1)"><path fill="#fefefe" d="M 196.242188 243.695312 Z M 190.972656 113.320312 C 189.804688 112.550781 188.621094 111.804688 187.417969 111.089844 C 186.21875 110.375 185 109.6875 183.765625 109.027344 C 182.53125 108.367188 181.285156 107.738281 180.019531 107.136719 C 178.757812 106.535156 177.480469 105.960938 176.191406 105.421875 C 174.902344 104.878906 173.601562 104.367188 172.289062 103.886719 C 170.972656 103.402344 169.648438 102.953125 168.316406 102.53125 C 166.980469 102.113281 165.636719 101.722656 164.285156 101.367188 C 162.933594 101.007812 161.574219 100.683594 160.207031 100.386719 C 158.835938 100.09375 157.464844 99.832031 156.085938 99.601562 C 154.703125 99.371094 153.320312 99.171875 151.929688 99.007812 C 150.542969 98.839844 149.148438 98.707031 147.753906 98.605469 C 146.359375 98.503906 144.960938 98.433594 143.5625 98.398438 C 142.164062 98.359375 140.765625 98.355469 139.367188 98.386719 C 137.96875 98.414062 136.574219 98.472656 135.175781 98.566406 C 133.78125 98.660156 132.386719 98.785156 130.996094 98.945312 C 129.609375 99.101562 128.222656 99.292969 126.839844 99.515625 C 125.460938 99.738281 124.085938 99.992188 122.714844 100.277344 C 121.347656 100.566406 119.984375 100.882812 118.628906 101.234375 C 117.277344 101.582031 115.929688 101.964844 114.59375 102.375 C 113.257812 102.789062 111.929688 103.230469 110.613281 103.707031 C 109.296875 104.179688 107.992188 104.683594 106.699219 105.21875 C 105.40625 105.753906 104.128906 106.316406 102.859375 106.910156 C 101.59375 107.503906 100.34375 108.128906 99.105469 108.78125 C 97.867188 109.433594 96.644531 110.113281 95.4375 110.820312 C 94.234375 111.53125 93.042969 112.265625 91.871094 113.03125 C 90.699219 113.796875 89.546875 114.585938 88.414062 115.40625 C 87.277344 116.222656 86.164062 117.066406 85.066406 117.9375 C 83.972656 118.804688 82.894531 119.699219 81.839844 120.621094 C 80.789062 121.539062 79.753906 122.484375 78.746094 123.449219 C 77.734375 124.417969 76.746094 125.410156 75.78125 126.421875 C 74.820312 127.4375 73.878906 128.472656 72.960938 129.527344 C 72.046875 130.585938 71.15625 131.664062 70.289062 132.761719 C 69.421875 133.859375 68.582031 134.976562 67.769531 136.117188 C 66.953125 137.253906 66.167969 138.410156 65.40625 139.582031 C 64.644531 140.757812 63.914062 141.949219 63.207031 143.15625 C 62.503906 144.367188 61.828125 145.589844 61.179688 146.828125 C 60.53125 148.070312 59.910156 149.324219 59.320312 150.59375 C 58.730469 151.859375 58.171875 153.140625 57.640625 154.4375 C 57.113281 155.730469 56.613281 157.035156 56.140625 158.355469 C 55.671875 159.671875 55.234375 161 54.824219 162.339844 C 54.417969 163.675781 54.042969 165.023438 53.695312 166.378906 C 53.351562 167.734375 53.035156 169.097656 52.753906 170.46875 C 52.472656 171.839844 52.222656 173.214844 52.003906 174.597656 C 51.785156 175.976562 51.601562 177.363281 51.449219 178.753906 C 51.292969 180.144531 51.171875 181.539062 51.085938 182.933594 C 50.996094 184.332031 50.9375 185.726562 50.914062 187.125 C 50.890625 188.523438 50.898438 189.925781 50.941406 191.320312 C 50.980469 192.71875 51.054688 194.117188 51.160156 195.511719 C 51.265625 196.90625 51.40625 198.296875 51.578125 199.6875 C 51.746094 201.074219 51.949219 202.460938 52.183594 203.839844 C 52.421875 205.21875 52.6875 206.589844 52.984375 207.957031 C 53.285156 209.324219 53.613281 210.683594 53.976562 212.035156 C 54.339844 213.386719 54.730469 214.726562 55.15625 216.058594 C 55.582031 217.394531 56.035156 218.714844 56.523438 220.027344 C 57.007812 221.339844 57.523438 222.640625 58.070312 223.925781 C 58.617188 225.214844 59.191406 226.488281 59.796875 227.75 C 60.402344 229.011719 61.039062 230.257812 61.699219 231.488281 C 62.363281 232.722656 63.054688 233.9375 63.777344 235.136719 C 64.496094 236.335938 65.242188 237.519531 66.015625 238.683594 C 66.792969 239.847656 67.59375 240.992188 68.421875 242.121094 C 69.25 243.25 70.105469 244.355469 70.984375 245.445312 C 71.863281 246.53125 72.765625 247.597656 73.695312 248.644531 C 74.625 249.691406 75.578125 250.714844 76.554688 251.714844 C 77.53125 252.71875 78.53125 253.695312 79.554688 254.652344 C 80.574219 255.605469 81.621094 256.535156 82.683594 257.441406 C 83.75 258.347656 84.835938 259.230469 85.941406 260.085938 C 87.050781 260.941406 88.175781 261.773438 89.320312 262.578125 C 90.464844 263.378906 91.628906 264.15625 92.808594 264.90625 C 93.988281 265.65625 95.1875 266.378906 96.402344 267.074219 C 97.617188 267.765625 98.847656 268.433594 100.09375 269.070312 C 101.339844 269.707031 102.597656 270.3125 103.871094 270.890625 C 105.144531 271.46875 106.433594 272.019531 107.730469 272.535156 C 109.03125 273.054688 110.339844 273.542969 111.664062 274 C 112.984375 274.457031 114.316406 274.886719 115.660156 275.28125 C 117 275.675781 118.351562 276.042969 119.710938 276.375 C 121.066406 276.707031 122.433594 277.007812 123.804688 277.277344 C 125.179688 277.546875 126.558594 277.785156 127.941406 277.992188 C 129.324219 278.195312 130.710938 278.371094 132.105469 278.511719 C 133.496094 278.652344 134.890625 278.757812 136.289062 278.835938 C 137.683594 278.910156 139.082031 278.957031 140.480469 278.96875 C 141.878906 278.976562 143.277344 278.957031 144.675781 278.902344 C 146.074219 278.847656 147.46875 278.761719 148.863281 278.644531 C 150.257812 278.527344 151.648438 278.375 153.035156 278.191406 C 154.421875 278.007812 155.804688 277.792969 157.179688 277.546875 C 158.558594 277.296875 159.929688 277.019531 161.292969 276.707031 C 162.65625 276.394531 164.011719 276.054688 165.359375 275.679688 C 166.707031 275.304688 168.046875 274.898438 169.375 274.464844 C 170.703125 274.027344 172.023438 273.558594 173.328125 273.0625 C 174.636719 272.5625 175.933594 272.035156 177.214844 271.476562 C 178.496094 270.921875 179.765625 270.332031 181.023438 269.714844 C 182.277344 269.097656 183.519531 268.453125 184.746094 267.777344 C 185.96875 267.105469 187.179688 266.402344 188.371094 265.671875 C 189.566406 264.941406 190.742188 264.183594 191.898438 263.398438 C 193.054688 262.613281 194.195312 261.800781 195.316406 260.960938 C 196.433594 260.125 197.535156 259.257812 198.613281 258.371094 C 199.695312 257.480469 200.753906 256.566406 201.789062 255.628906 L 198.40625 252.382812 L 196.703125 250.746094 L 195.019531 249.132812 C 192.121094 251.710938 189.054688 254.070312 185.820312 256.210938 C 184.265625 257.234375 182.675781 258.207031 181.050781 259.125 C 179.988281 259.726562 178.910156 260.300781 177.824219 260.855469 C 175.832031 261.863281 173.804688 262.785156 171.742188 263.621094 C 166.996094 265.542969 162.113281 267 157.089844 267.996094 C 156.976562 268.019531 156.863281 268.042969 156.746094 268.0625 C 155.660156 268.273438 154.570312 268.460938 153.472656 268.628906 C 146.152344 269.734375 138.816406 269.839844 131.464844 268.945312 C 130.246094 268.792969 129.027344 268.617188 127.816406 268.414062 C 127.167969 268.304688 126.519531 268.1875 125.875 268.0625 C 120.734375 267.066406 115.734375 265.585938 110.882812 263.621094 C 109.480469 263.050781 108.09375 262.441406 106.722656 261.792969 C 105.609375 261.265625 104.507812 260.714844 103.417969 260.136719 C 101.148438 258.933594 98.941406 257.621094 96.800781 256.210938 C 92.753906 253.535156 88.972656 250.519531 85.464844 247.167969 C 85.015625 246.738281 84.566406 246.300781 84.121094 245.855469 C 83.695312 245.425781 83.269531 244.996094 82.851562 244.558594 C 79.484375 241.035156 76.453125 237.242188 73.765625 233.179688 C 72.367188 231.058594 71.066406 228.867188 69.871094 226.617188 C 69.292969 225.527344 68.738281 224.421875 68.207031 223.304688 C 67.550781 221.921875 66.933594 220.515625 66.359375 219.097656 C 64.390625 214.242188 62.914062 209.246094 61.917969 204.101562 C 61.796875 203.472656 61.679688 202.839844 61.574219 202.203125 C 61.367188 200.992188 61.191406 199.777344 61.042969 198.554688 C 60.140625 191.203125 60.242188 183.867188 61.347656 176.546875 C 61.515625 175.4375 61.707031 174.332031 61.917969 173.226562 L 61.976562 172.933594 C 62.972656 167.894531 64.429688 163 66.359375 158.242188 C 67.1875 156.195312 68.101562 154.1875 69.097656 152.210938 C 69.648438 151.125 70.222656 150.046875 70.820312 148.988281 C 71.746094 147.34375 72.730469 145.734375 73.769531 144.160156 C 76.753906 139.644531 80.15625 135.46875 83.976562 131.628906 L 84.125 131.480469 C 84.929688 130.675781 85.75 129.890625 86.585938 129.121094 C 91.9375 124.1875 97.851562 120.058594 104.324219 116.726562 C 105.398438 116.175781 106.480469 115.648438 107.578125 115.144531 C 108.675781 114.640625 109.777344 114.164062 110.882812 113.71875 C 115.738281 111.75 120.734375 110.269531 125.875 109.273438 C 126.636719 109.125 127.398438 108.988281 128.164062 108.863281 C 129.339844 108.671875 130.523438 108.503906 131.714844 108.363281 C 138.855469 107.515625 145.984375 107.609375 153.097656 108.652344 C 154.273438 108.824219 155.445312 109.023438 156.613281 109.25 C 156.65625 109.257812 156.703125 109.265625 156.746094 109.273438 C 161.886719 110.269531 166.886719 111.75 171.738281 113.714844 C 173.464844 114.414062 175.164062 115.175781 176.839844 115.996094 C 177.90625 116.519531 178.960938 117.0625 180.007812 117.632812 C 181.992188 118.714844 183.929688 119.878906 185.820312 121.125 C 188.976562 123.214844 191.976562 125.511719 194.8125 128.015625 L 201.4375 121.390625 C 198.148438 118.445312 194.660156 115.753906 190.972656 113.320312 Z M 167.382812 135.679688 C 162.722656 133.394531 157.84375 131.753906 152.746094 130.757812 C 151.898438 130.589844 151.050781 130.441406 150.195312 130.3125 C 145.027344 129.535156 139.84375 129.4375 134.648438 130.019531 C 133.785156 130.121094 132.921875 130.234375 132.0625 130.371094 C 126.867188 131.183594 121.871094 132.667969 117.070312 134.820312 C 116.273438 135.179688 115.484375 135.554688 114.699219 135.949219 C 109.957031 138.339844 105.621094 141.316406 101.6875 144.882812 C 101.035156 145.476562 100.394531 146.085938 99.757812 146.710938 C 99.691406 146.777344 99.625 146.847656 99.554688 146.914062 C 95.835938 150.628906 92.671875 154.769531 90.058594 159.332031 C 89.617188 160.105469 89.195312 160.890625 88.789062 161.679688 C 86.328125 166.476562 84.558594 171.523438 83.480469 176.808594 C 83.304688 177.6875 83.144531 178.570312 83.003906 179.457031 C 82.164062 184.835938 82.0625 190.222656 82.699219 195.628906 C 82.804688 196.523438 82.929688 197.417969 83.078125 198.3125 C 83.960938 203.703125 85.5625 208.875 87.882812 213.820312 C 88.265625 214.636719 88.671875 215.449219 89.09375 216.25 C 91.652344 221.097656 94.828125 225.5 98.617188 229.460938 C 98.925781 229.785156 99.238281 230.105469 99.558594 230.421875 C 99.886719 230.75 100.214844 231.074219 100.550781 231.390625 C 104.511719 235.179688 108.917969 238.351562 113.769531 240.90625 C 114.570312 241.328125 115.378906 241.730469 116.195312 242.113281 C 121.140625 244.429688 126.308594 246.027344 131.699219 246.910156 C 132.589844 247.054688 133.484375 247.179688 134.382812 247.285156 C 139.789062 247.917969 145.179688 247.8125 150.554688 246.964844 C 151.441406 246.828125 152.324219 246.667969 153.207031 246.488281 C 158.496094 245.410156 163.539062 243.636719 168.339844 241.171875 C 169.132812 240.765625 169.914062 240.339844 170.691406 239.894531 C 173.707031 238.167969 176.542969 236.1875 179.203125 233.957031 L 175.8125 230.703125 L 174.132812 229.09375 L 172.40625 227.4375 C 152.914062 243.097656 124.253906 241.886719 106.171875 223.808594 C 86.796875 204.433594 86.796875 172.90625 106.171875 153.53125 C 124.339844 135.359375 153.195312 134.230469 172.695312 150.136719 L 179.339844 143.492188 C 176.335938 140.960938 173.113281 138.753906 169.667969 136.867188 C 168.914062 136.453125 168.152344 136.058594 167.382812 135.679688 Z M 167.382812 135.679688 " fill-opacity="1" fill-rule="nonzero"/></g></g></g><g clip-path="url(#273f338e83)"><g clip-path="url(#e1097406d4)"><g clip-path="url(#425a35398f)"><path fill="#130c0e" d="M 192.714844 254.707031 L 193.871094 256.1875 L 195.015625 257.65625 C 195.851562 257.003906 196.683594 256.328125 197.492188 255.648438 L 196.292969 254.222656 L 195.085938 252.785156 C 194.3125 253.4375 193.515625 254.082031 192.714844 254.707031 Z M 187.363281 258.550781 C 187.164062 258.683594 186.960938 258.816406 186.757812 258.949219 L 187.78125 260.53125 L 188.792969 262.089844 C 189.003906 261.953125 189.214844 261.8125 189.425781 261.675781 C 190.097656 261.230469 190.769531 260.769531 191.433594 260.308594 L 190.367188 258.785156 L 189.285156 257.246094 C 188.652344 257.6875 188.007812 258.128906 187.363281 258.550781 Z M 182.382812 261.59375 C 181.742188 261.957031 181.09375 262.308594 180.449219 262.652344 L 181.089844 263.863281 L 181.335938 264.324219 L 182.199219 265.960938 C 183.136719 265.464844 184.074219 264.945312 184.988281 264.417969 L 184.0625 262.8125 L 183.117188 261.179688 C 182.875 261.316406 182.628906 261.457031 182.378906 261.597656 Z M 173.835938 265.789062 L 174.574219 267.535156 L 175.292969 269.234375 C 176.265625 268.824219 177.246094 268.390625 178.203125 267.945312 L 177.425781 266.269531 L 176.625 264.550781 C 175.707031 264.980469 174.769531 265.398438 173.835938 265.789062 Z M 166.976562 268.328125 L 167.558594 270.140625 L 168.121094 271.890625 C 169.128906 271.566406 170.144531 271.222656 171.136719 270.863281 L 170.511719 269.128906 L 169.863281 267.34375 C 168.910156 267.6875 167.941406 268.019531 166.976562 268.328125 Z M 196.242188 243.695312 Z M 159.917969 270.265625 L 160.339844 272.125 L 160.746094 273.914062 C 161.777344 273.679688 162.816406 273.425781 163.839844 273.152344 L 163.367188 271.375 L 162.878906 269.535156 C 161.902344 269.792969 160.90625 270.039062 159.917969 270.265625 Z M 153.84375 271.410156 C 153.46875 271.46875 153.09375 271.523438 152.71875 271.574219 L 152.976562 273.46875 L 153.226562 275.28125 C 154.277344 275.136719 155.335938 274.972656 156.375 274.789062 L 156.0625 272.988281 L 155.890625 271.996094 L 155.734375 271.105469 C 155.109375 271.210938 154.480469 271.3125 153.847656 271.410156 Z M 145.429688 272.25 L 145.527344 274.160156 L 145.617188 275.984375 C 146.671875 275.933594 147.742188 275.859375 148.796875 275.769531 L 148.640625 273.949219 L 148.476562 272.042969 C 147.464844 272.128906 146.441406 272.199219 145.433594 272.246094 Z M 138.113281 272.289062 L 138.042969 274.207031 L 137.972656 276.03125 C 139.03125 276.070312 140.101562 276.089844 141.15625 276.09375 L 141.160156 274.269531 L 141.164062 272.351562 C 140.152344 272.347656 139.128906 272.328125 138.113281 272.289062 Z M 131.089844 271.730469 L 130.820312 271.695312 L 130.75 272.242188 L 130.582031 273.605469 L 130.355469 275.40625 C 131.402344 275.539062 132.46875 275.652344 133.523438 275.746094 L 133.683594 273.929688 L 133.855469 272.015625 C 132.9375 271.9375 132.007812 271.835938 131.089844 271.726562 Z M 171.289062 231.78125 L 172.363281 233.324219 L 173.425781 234.851562 C 174.300781 234.238281 175.175781 233.59375 176.019531 232.933594 L 174.867188 231.46875 L 173.707031 229.988281 C 172.921875 230.601562 172.105469 231.207031 171.289062 231.777344 Z M 165.09375 235.480469 L 165.949219 237.167969 L 166.789062 238.816406 C 166.898438 238.761719 167.011719 238.703125 167.121094 238.648438 C 167.875 238.257812 168.625 237.851562 169.359375 237.429688 C 169.445312 237.378906 169.535156 237.328125 169.621094 237.277344 L 168.6875 235.675781 L 167.738281 234.042969 C 166.875 234.539062 165.984375 235.027344 165.09375 235.476562 Z M 158.457031 238.289062 L 159.074219 240.085938 L 159.671875 241.828125 C 160.679688 241.480469 161.695312 241.101562 162.683594 240.695312 L 161.984375 238.988281 L 161.265625 237.234375 C 160.34375 237.605469 159.398438 237.960938 158.457031 238.285156 Z M 125.339844 270.820312 C 124.765625 270.710938 124.183594 270.589844 123.605469 270.46875 L 123.199219 272.351562 L 122.816406 274.121094 C 123.417969 274.25 124.027344 274.375 124.628906 274.488281 C 125.0625 274.574219 125.507812 274.65625 125.941406 274.734375 L 126.265625 272.945312 L 126.601562 271.050781 C 126.179688 270.976562 125.757812 270.898438 125.339844 270.816406 Z M 151.488281 240.15625 L 151.671875 241.089844 L 151.855469 242.027344 L 152.207031 243.828125 C 152.375 243.792969 152.539062 243.761719 152.707031 243.726562 C 153.59375 243.546875 154.476562 243.339844 155.351562 243.117188 L 154.894531 241.339844 L 154.421875 239.492188 C 153.457031 239.742188 152.46875 239.964844 151.488281 240.15625 Z M 144.324219 241.058594 L 144.4375 242.96875 L 144.542969 244.792969 C 145.609375 244.730469 146.691406 244.636719 147.753906 244.515625 L 147.542969 242.699219 L 147.324219 240.796875 C 146.332031 240.914062 145.324219 241 144.324219 241.058594 Z M 116.527344 268.609375 L 115.957031 270.453125 L 115.421875 272.183594 C 116.433594 272.496094 117.460938 272.789062 118.484375 273.066406 L 118.953125 271.316406 L 119.457031 269.457031 C 118.480469 269.195312 117.496094 268.90625 116.527344 268.609375 Z M 137.105469 240.976562 L 136.953125 242.890625 L 136.808594 244.707031 C 137.875 244.789062 138.960938 244.847656 140.027344 244.871094 L 140.070312 243.046875 L 140.113281 241.128906 C 139.113281 241.105469 138.101562 241.054688 137.105469 240.976562 Z M 109.828125 266.222656 L 109.640625 266.144531 L 108.910156 267.933594 L 108.226562 269.609375 L 108.421875 269.6875 C 109.335938 270.058594 110.269531 270.417969 111.199219 270.757812 L 111.820312 269.058594 L 112.484375 267.246094 C 111.59375 266.917969 110.703125 266.574219 109.828125 266.222656 Z M 129.960938 239.914062 L 129.550781 241.792969 L 129.160156 243.566406 C 130.164062 243.785156 131.1875 243.980469 132.199219 244.144531 L 132.328125 244.164062 L 132.617188 242.371094 L 132.835938 241.003906 L 132.921875 240.472656 C 131.933594 240.316406 130.9375 240.128906 129.960938 239.914062 Z M 105.507812 264.324219 C 104.667969 263.925781 103.824219 263.507812 102.996094 263.082031 L 102.863281 263.339844 L 102.109375 264.800781 L 101.28125 266.40625 C 102.222656 266.890625 103.183594 267.363281 104.140625 267.8125 L 104.90625 266.175781 L 105.730469 264.425781 Z M 123.03125 237.882812 L 122.363281 239.695312 L 121.734375 241.394531 C 122.738281 241.765625 123.769531 242.113281 124.796875 242.425781 L 125.324219 240.691406 L 125.886719 238.847656 C 124.929688 238.550781 123.96875 238.226562 123.03125 237.882812 Z M 96.644531 259.449219 L 95.609375 261.085938 L 94.644531 262.613281 C 95.539062 263.175781 96.457031 263.734375 97.371094 264.265625 L 98.277344 262.703125 L 99.25 261.03125 C 98.375 260.519531 97.5 259.988281 96.644531 259.449219 Z M 116.441406 234.914062 L 115.527344 236.617188 L 114.671875 238.210938 C 114.8125 238.285156 114.957031 238.359375 115.097656 238.433594 C 115.859375 238.835938 116.636719 239.222656 117.414062 239.585938 C 117.464844 239.609375 117.511719 239.632812 117.5625 239.65625 L 118.324219 238.011719 L 119.136719 236.261719 C 118.234375 235.839844 117.324219 235.386719 116.441406 234.914062 Z M 90.640625 255.273438 L 89.464844 256.8125 L 88.371094 258.246094 C 89.210938 258.886719 90.074219 259.523438 90.9375 260.132812 L 91.980469 258.65625 L 93.097656 257.078125 C 92.269531 256.492188 91.445312 255.886719 90.640625 255.273438 Z M 110.339844 231.066406 L 109.195312 232.628906 L 108.128906 234.085938 C 108.996094 234.71875 109.886719 235.332031 110.785156 235.914062 L 111.765625 234.398438 L 112.816406 232.773438 C 111.980469 232.230469 111.144531 231.65625 110.339844 231.066406 Z M 85.015625 250.585938 L 83.714844 252.015625 L 82.5 253.351562 C 83.285156 254.0625 84.089844 254.769531 84.898438 255.453125 L 86.0625 254.074219 L 87.316406 252.59375 C 86.539062 251.941406 85.765625 251.265625 85.015625 250.585938 Z M 104.820312 226.414062 L 104.675781 226.566406 L 103.472656 227.808594 L 102.21875 229.101562 C 102.308594 229.191406 102.398438 229.277344 102.488281 229.363281 C 103.175781 230.019531 103.882812 230.660156 104.597656 231.277344 L 105.773438 229.910156 L 107.042969 228.441406 C 106.285156 227.792969 105.539062 227.109375 104.820312 226.414062 Z M 78.398438 246.742188 L 77.074219 247.96875 C 77.792969 248.746094 78.535156 249.515625 79.277344 250.269531 L 80.558594 248.996094 L 81.785156 247.777344 L 81.933594 247.632812 C 81.558594 247.257812 81.191406 246.878906 80.824219 246.496094 C 80.488281 246.144531 80.152344 245.785156 79.820312 245.429688 Z M 98.460938 222.25 L 97.039062 223.363281 C 97.699219 224.203125 98.394531 225.039062 99.101562 225.839844 L 100.453125 224.648438 L 101.910156 223.371094 C 101.25 222.621094 100.601562 221.839844 99.988281 221.058594 Z M 198.195312 122.28125 L 196.929688 123.75 L 195.757812 125.121094 C 196.105469 125.417969 196.453125 125.722656 196.800781 126.03125 L 199.449219 123.378906 C 199.035156 123.007812 198.613281 122.640625 198.195312 122.28125 Z M 172.929688 142.148438 L 171.839844 143.75 L 170.824219 145.242188 C 171.648438 145.800781 172.46875 146.394531 173.261719 147.003906 L 174.359375 145.574219 L 175.539062 144.035156 C 174.691406 143.386719 173.8125 142.75 172.929688 142.148438 Z M 73.5625 241.03125 L 72.132812 242.136719 C 72.78125 242.972656 73.453125 243.808594 74.128906 244.617188 L 75.515625 243.464844 L 77.003906 242.21875 C 76.355469 241.441406 75.714844 240.640625 75.09375 239.84375 Z M 94.257812 216.058594 L 92.695312 216.964844 C 93.234375 217.890625 93.804688 218.8125 94.398438 219.707031 L 95.902344 218.707031 L 97.515625 217.640625 C 96.964844 216.808594 96.433594 215.949219 95.929688 215.082031 Z M 192.179688 117.5625 L 191.050781 119.132812 L 189.996094 120.597656 C 190.820312 121.1875 191.640625 121.800781 192.445312 122.421875 L 193.546875 120.996094 L 194.734375 119.460938 C 193.898438 118.8125 193.039062 118.175781 192.183594 117.558594 Z M 168.335938 139.339844 C 167.648438 138.964844 166.945312 138.601562 166.246094 138.253906 L 166.121094 138.507812 L 165.390625 139.988281 L 164.589844 141.609375 C 165.484375 142.050781 166.378906 142.523438 167.246094 143.015625 L 168.140625 141.449219 L 169.09375 139.765625 C 168.84375 139.621094 168.59375 139.480469 168.339844 139.339844 Z M 69.242188 234.917969 L 67.722656 235.894531 C 67.914062 236.191406 68.109375 236.488281 68.304688 236.785156 C 68.691406 237.371094 69.09375 237.960938 69.496094 238.539062 L 70.976562 237.511719 L 72.566406 236.402344 C 72.179688 235.851562 71.800781 235.285156 71.425781 234.722656 C 71.238281 234.441406 71.050781 234.152344 70.867188 233.867188 Z M 90.957031 209.347656 L 89.285156 210.03125 C 89.636719 210.894531 90.015625 211.757812 90.410156 212.601562 C 90.46875 212.726562 90.527344 212.851562 90.589844 212.976562 L 92.21875 212.195312 L 93.679688 211.496094 L 93.964844 211.359375 C 93.535156 210.460938 93.125 209.539062 92.746094 208.617188 Z M 185.777344 113.382812 L 184.792969 115.046875 L 183.875 116.597656 C 184.746094 117.117188 185.621094 117.652344 186.472656 118.199219 L 187.445312 116.679688 L 188.492188 115.050781 C 187.601562 114.480469 186.691406 113.921875 185.777344 113.382812 Z M 159.085938 135.3125 L 158.476562 137.148438 L 157.90625 138.863281 C 158.855469 139.179688 159.808594 139.523438 160.738281 139.894531 L 161.40625 138.210938 L 162.117188 136.414062 C 161.125 136.023438 160.101562 135.652344 159.085938 135.3125 Z M 66.9375 227.675781 L 65.476562 228.445312 L 63.875 229.285156 C 64.371094 230.21875 64.882812 231.160156 65.40625 232.078125 L 66.972656 231.179688 L 68.652344 230.21875 C 68.226562 229.46875 67.804688 228.707031 67.398438 227.945312 C 67.328125 227.8125 67.257812 227.675781 67.183594 227.542969 Z M 88.613281 202.246094 L 86.859375 202.695312 C 87.121094 203.730469 87.421875 204.773438 87.746094 205.789062 L 89.472656 205.242188 L 91.3125 204.65625 C 91.007812 203.707031 90.730469 202.734375 90.484375 201.769531 Z M 179.03125 109.78125 L 178.199219 111.527344 L 177.417969 113.15625 C 177.628906 113.257812 177.84375 113.363281 178.054688 113.464844 C 178.757812 113.808594 179.457031 114.160156 180.144531 114.523438 L 180.984375 112.921875 L 181.75 111.460938 L 181.882812 111.210938 C 180.945312 110.71875 179.988281 110.238281 179.03125 109.78125 Z M 152.25 133.515625 C 152.027344 133.472656 151.808594 133.429688 151.589844 133.390625 L 151.5 133.867188 L 151.238281 135.28125 L 150.910156 137.070312 C 151.894531 137.25 152.886719 137.464844 153.855469 137.699219 L 154.285156 135.9375 L 154.742188 134.066406 C 153.921875 133.867188 153.085938 133.679688 152.25 133.515625 Z M 62.292969 221.667969 L 60.625 222.367188 C 61.03125 223.34375 61.464844 224.324219 61.90625 225.285156 L 63.546875 224.527344 L 65.304688 223.714844 C 64.878906 222.796875 64.46875 221.855469 64.078125 220.921875 Z M 87.265625 194.890625 L 85.460938 195.09375 C 85.464844 195.148438 85.472656 195.199219 85.480469 195.253906 C 85.578125 196.105469 85.699219 196.964844 85.835938 197.816406 C 85.863281 197.972656 85.886719 198.132812 85.914062 198.285156 L 87.707031 197.976562 L 89.601562 197.652344 C 89.433594 196.667969 89.292969 195.664062 89.175781 194.671875 Z M 174.199219 107.648438 C 173.476562 107.355469 172.734375 107.066406 172 106.789062 L 171.324219 108.601562 L 170.6875 110.292969 C 171.394531 110.558594 172.101562 110.832031 172.792969 111.113281 C 173.039062 111.214844 173.28125 111.3125 173.523438 111.414062 L 174.21875 109.746094 L 174.964844 107.960938 C 174.707031 107.855469 174.453125 107.75 174.199219 107.648438 Z M 143.910156 132.511719 L 143.820312 134.429688 L 143.738281 136.25 C 144.738281 136.292969 145.746094 136.371094 146.742188 136.472656 L 146.925781 134.664062 L 147.125 132.75 C 146.058594 132.640625 144.976562 132.558594 143.90625 132.511719 Z M 59.71875 214.640625 L 57.992188 215.1875 C 58.3125 216.195312 58.65625 217.210938 59.011719 218.207031 L 60.714844 217.597656 L 62.535156 216.945312 C 62.195312 215.992188 61.867188 215.019531 61.558594 214.054688 Z M 86.933594 187.417969 L 85.109375 187.375 C 85.085938 188.441406 85.089844 189.527344 85.125 190.59375 L 86.945312 190.535156 L 88.863281 190.46875 C 88.832031 189.46875 88.824219 188.457031 88.851562 187.453125 Z M 136.179688 132.6875 L 136.355469 134.589844 L 136.519531 136.414062 C 137.515625 136.320312 138.523438 136.257812 139.523438 136.226562 L 139.460938 134.402344 L 139.398438 132.484375 C 138.328125 132.519531 137.246094 132.585938 136.179688 132.683594 Z M 164.726562 104.429688 L 164.210938 106.289062 L 163.730469 108.035156 C 164.703125 108.304688 165.6875 108.597656 166.652344 108.902344 L 167.199219 107.175781 L 167.78125 105.335938 C 166.777344 105.019531 165.746094 104.710938 164.726562 104.429688 Z M 88.613281 180.121094 L 87.621094 179.960938 L 85.8125 179.671875 L 85.789062 179.832031 C 85.628906 180.835938 85.496094 181.859375 85.394531 182.871094 L 87.214844 183.058594 L 89.117188 183.253906 C 89.21875 182.257812 89.351562 181.253906 89.507812 180.269531 Z M 57.769531 207.410156 L 56 207.804688 C 56.230469 208.835938 56.484375 209.878906 56.75 210.902344 L 58.503906 210.441406 L 60.371094 209.953125 C 60.113281 208.972656 59.871094 207.976562 59.648438 206.988281 Z M 128.546875 133.90625 L 128.976562 135.761719 L 129.390625 137.550781 C 130.363281 137.328125 131.355469 137.128906 132.339844 136.957031 L 132.027344 135.152344 L 131.707031 133.269531 C 130.652344 133.453125 129.589844 133.667969 128.546875 133.90625 Z M 157.988281 102.84375 C 157.753906 102.796875 157.515625 102.753906 157.277344 102.707031 L 157.183594 103.207031 L 156.925781 104.601562 L 156.59375 106.390625 C 156.765625 106.421875 156.9375 106.453125 157.105469 106.484375 C 157.164062 106.496094 157.21875 106.507812 157.277344 106.519531 C 158.042969 106.667969 158.820312 106.828125 159.582031 107 L 159.976562 105.230469 L 160.398438 103.347656 C 159.605469 103.167969 158.792969 103 157.992188 102.84375 Z M 89.320312 172.671875 L 87.5625 172.136719 C 87.25 173.160156 86.960938 174.207031 86.707031 175.25 L 88.492188 175.683594 L 90.34375 176.136719 C 90.578125 175.164062 90.847656 174.1875 91.140625 173.230469 Z M 121.15625 136.160156 L 121.835938 137.933594 L 122.492188 139.65625 C 123.425781 139.300781 124.378906 138.96875 125.328125 138.664062 L 124.773438 136.914062 L 124.195312 135.101562 C 123.179688 135.421875 122.15625 135.78125 121.15625 136.160156 Z M 92.007812 165.683594 L 90.332031 164.90625 C 89.878906 165.878906 89.449219 166.875 89.054688 167.871094 L 90.769531 168.550781 L 92.53125 169.25 C 92.902344 168.320312 93.300781 167.390625 93.722656 166.484375 Z M 57.828125 199.859375 L 56.460938 200.042969 L 54.660156 200.28125 C 54.796875 201.332031 54.960938 202.390625 55.136719 203.433594 L 56.925781 203.128906 L 58.824219 202.804688 L 58.808594 202.707031 C 58.644531 201.742188 58.496094 200.761719 58.367188 199.789062 Z M 116.035156 138.421875 C 115.398438 138.742188 114.765625 139.074219 114.144531 139.414062 L 115.058594 141.070312 L 115.949219 142.691406 C 116.824219 142.210938 117.722656 141.75 118.625 141.316406 L 117.824219 139.648438 L 117.578125 139.136719 L 117.007812 137.941406 C 116.683594 138.097656 116.359375 138.257812 116.035156 138.421875 Z M 95.628906 159.144531 L 94.070312 158.136719 C 93.539062 158.957031 93.019531 159.808594 92.53125 160.660156 C 92.488281 160.738281 92.441406 160.816406 92.398438 160.890625 L 94.011719 161.808594 L 94.417969 162.039062 L 95.652344 162.742188 C 96.144531 161.871094 96.667969 161.007812 97.210938 160.167969 Z M 149.707031 101.648438 L 149.523438 103.5625 L 149.351562 105.375 C 150.359375 105.46875 151.378906 105.585938 152.382812 105.71875 L 152.621094 103.917969 L 152.871094 102.007812 C 151.824219 101.871094 150.761719 101.75 149.707031 101.648438 Z M 107.644531 143.609375 L 108.773438 145.113281 L 109.886719 146.605469 C 110.6875 146.003906 111.515625 145.421875 112.347656 144.871094 L 111.324219 143.324219 L 110.28125 141.753906 C 109.390625 142.339844 108.503906 142.964844 107.644531 143.609375 Z M 100.121094 153.167969 L 98.707031 151.949219 C 98.007812 152.757812 97.320312 153.597656 96.671875 154.445312 L 98.148438 155.582031 L 99.640625 156.726562 C 100.246094 155.933594 100.886719 155.148438 101.539062 154.390625 Z M 103.632812 146.910156 C 103.007812 147.476562 102.390625 148.058594 101.789062 148.652344 L 103.105469 149.984375 L 104.417969 151.3125 C 105.128906 150.613281 105.871094 149.917969 106.621094 149.257812 L 105.386719 147.859375 L 104.144531 146.453125 C 103.972656 146.605469 103.804688 146.757812 103.632812 146.910156 Z M 55.800781 192.585938 L 53.980469 192.667969 C 54.027344 193.722656 54.097656 194.792969 54.183594 195.847656 L 55.996094 195.699219 L 57.910156 195.539062 C 57.828125 194.53125 57.761719 193.507812 57.71875 192.496094 Z M 142.078125 101.246094 L 142.058594 103.167969 L 142.042969 104.992188 C 143.054688 105 144.078125 105.027344 145.089844 105.074219 L 145.171875 103.253906 L 145.261719 101.335938 C 144.203125 101.289062 143.132812 101.257812 142.074219 101.25 Z M 55.789062 185.097656 L 53.964844 185.023438 C 53.917969 186.082031 53.894531 187.152344 53.886719 188.210938 L 55.710938 188.21875 L 57.628906 188.230469 C 57.632812 187.21875 57.65625 186.191406 57.699219 185.179688 Z M 134.4375 101.511719 L 134.585938 103.421875 L 134.730469 105.242188 C 135.742188 105.164062 136.765625 105.101562 137.773438 105.058594 L 137.699219 103.238281 L 137.617188 101.324219 C 136.558594 101.367188 135.492188 101.433594 134.4375 101.515625 Z M 56.429688 177.644531 L 54.613281 177.40625 C 54.476562 178.457031 54.359375 179.523438 54.265625 180.574219 L 56.085938 180.746094 L 57.992188 180.921875 C 58.085938 179.914062 58.199219 178.894531 58.328125 177.890625 Z M 126.851562 102.445312 L 127.164062 104.328125 L 127.464844 106.132812 C 127.527344 106.125 127.59375 106.113281 127.660156 106.101562 C 128.59375 105.949219 129.542969 105.808594 130.480469 105.6875 L 130.246094 103.871094 L 130.113281 102.835938 L 130 101.976562 C 128.953125 102.113281 127.890625 102.269531 126.851562 102.445312 Z M 57.714844 170.269531 L 55.925781 169.875 C 55.769531 170.574219 55.625 171.285156 55.488281 171.988281 C 55.425781 172.324219 55.359375 172.664062 55.296875 173 L 57.101562 173.328125 L 58.082031 173.507812 L 58.980469 173.667969 C 59.039062 173.347656 59.097656 173.019531 59.160156 172.699219 L 59.210938 172.4375 C 59.328125 171.855469 59.449219 171.265625 59.578125 170.679688 Z M 119.371094 104.03125 L 119.847656 105.875 L 120.308594 107.65625 C 121.289062 107.402344 122.285156 107.164062 123.273438 106.945312 L 122.878906 105.152344 L 122.46875 103.289062 C 121.4375 103.519531 120.394531 103.769531 119.371094 104.03125 Z M 59.640625 163.039062 L 57.886719 162.492188 C 57.574219 163.5 57.269531 164.527344 56.992188 165.546875 L 58.765625 166.03125 L 60.601562 166.535156 C 60.871094 165.558594 61.15625 164.574219 61.457031 163.609375 Z M 112.0625 106.265625 L 112.699219 108.054688 L 113.3125 109.792969 C 114.265625 109.453125 115.238281 109.128906 116.207031 108.828125 L 115.65625 107.070312 L 115.085938 105.257812 C 114.074219 105.574219 113.058594 105.914062 112.0625 106.265625 Z M 62.195312 156 L 60.488281 155.296875 C 60.421875 155.457031 60.359375 155.617188 60.292969 155.777344 C 59.964844 156.59375 59.636719 157.433594 59.328125 158.265625 L 61.058594 158.90625 L 62.835938 159.5625 C 63.132812 158.769531 63.445312 157.964844 63.761719 157.183594 C 63.824219 157.03125 63.886719 156.878906 63.949219 156.726562 Z M 104.976562 109.132812 L 105.761719 110.855469 L 106.53125 112.535156 C 107.453125 112.113281 108.394531 111.707031 109.328125 111.320312 L 108.621094 109.613281 L 107.898438 107.863281 C 106.921875 108.265625 105.9375 108.695312 104.972656 109.136719 Z M 65.832031 149.464844 L 65.355469 149.21875 L 63.710938 148.367188 C 63.222656 149.304688 62.746094 150.265625 62.292969 151.222656 L 63.964844 152.011719 L 65.675781 152.820312 C 65.964844 152.210938 66.265625 151.601562 66.570312 150.992188 C 66.722656 150.691406 66.878906 150.390625 67.03125 150.089844 Z M 98.167969 112.613281 L 99.101562 114.253906 L 100.015625 115.867188 C 100.894531 115.367188 101.796875 114.878906 102.695312 114.410156 L 101.839844 112.765625 L 100.96875 111.089844 C 100.027344 111.582031 99.085938 112.09375 98.167969 112.613281 Z M 69.097656 142.738281 L 67.53125 141.742188 C 66.964844 142.632812 66.40625 143.546875 65.871094 144.460938 L 67.472656 145.402344 L 69.097656 146.355469 C 69.613281 145.480469 70.144531 144.605469 70.691406 143.753906 Z M 93.195312 115.660156 C 92.695312 115.992188 92.1875 116.332031 91.691406 116.675781 L 92.761719 118.226562 L 93.820312 119.753906 C 94.292969 119.425781 94.777344 119.097656 95.257812 118.78125 C 95.621094 118.542969 95.992188 118.300781 96.359375 118.066406 L 95.359375 116.503906 L 94.347656 114.914062 C 93.960938 115.160156 93.574219 115.410156 93.195312 115.660156 Z M 73.398438 136.617188 L 71.921875 135.480469 C 71.273438 136.320312 70.636719 137.183594 70.027344 138.042969 L 71.542969 139.121094 L 73.074219 140.210938 C 73.664062 139.386719 74.273438 138.5625 74.890625 137.757812 Z M 85.597656 121.292969 L 86.796875 122.738281 L 87.988281 124.175781 C 88.765625 123.527344 89.570312 122.886719 90.371094 122.269531 L 89.234375 120.796875 L 88.089844 119.304688 C 87.25 119.949219 86.410156 120.617188 85.597656 121.292969 Z M 78.210938 130.890625 L 76.835938 129.628906 C 76.121094 130.40625 75.410156 131.210938 74.726562 132.015625 L 76.144531 133.226562 L 77.574219 134.441406 C 78.230469 133.671875 78.910156 132.902344 79.59375 132.160156 Z M 79.929688 126.417969 L 81.242188 127.75 L 81.246094 127.753906 L 82.558594 129.082031 C 83.238281 128.410156 83.941406 127.742188 84.644531 127.09375 L 84.769531 126.980469 L 83.503906 125.605469 L 82.238281 124.226562 C 81.457031 124.941406 80.679688 125.675781 79.929688 126.421875 Z M 79.929688 126.417969 " fill-opacity="1" fill-rule="nonzero"/></g></g></g><g clip-path="url(#00c4352a18)"><g clip-path="url(#2776863484)"><g clip-path="url(#de25cc84f8)"><path fill="#6dd450" d="M 196.21875 243.667969 L 196.242188 243.695312 Z M 196.21875 243.667969 " fill-opacity="1" fill-rule="nonzero"/></g></g></g><g fill="#ffffff" fill-opacity="1"><g transform="translate(167.838247, 207.958038)"><g><path d="M 25.359375 1.015625 C 22.742188 1.015625 20.28125 0.664062 17.96875 -0.03125 C 15.65625 -0.726562 13.550781 -1.734375 11.65625 -3.046875 C 9.769531 -4.359375 8.140625 -5.945312 6.765625 -7.8125 C 5.398438 -9.675781 4.34375 -11.769531 3.59375 -14.09375 C 2.851562 -16.414062 2.484375 -18.941406 2.484375 -21.671875 C 2.484375 -24.398438 2.851562 -26.925781 3.59375 -29.25 C 4.34375 -31.570312 5.398438 -33.660156 6.765625 -35.515625 C 8.140625 -37.378906 9.769531 -38.96875 11.65625 -40.28125 C 13.550781 -41.601562 15.648438 -42.613281 17.953125 -43.3125 C 20.253906 -44.007812 22.710938 -44.359375 25.328125 -44.359375 C 28.867188 -44.359375 32.09375 -43.734375 35 -42.484375 C 37.90625 -41.242188 40.375 -39.523438 42.40625 -37.328125 C 42.945312 -36.785156 42.898438 -36.257812 42.265625 -35.75 L 37.6875 -32.5 C 37.144531 -32.050781 36.617188 -32.097656 36.109375 -32.640625 C 34.773438 -33.972656 33.191406 -35.03125 31.359375 -35.8125 C 29.523438 -36.59375 27.515625 -36.984375 25.328125 -36.984375 C 23.222656 -36.984375 21.269531 -36.617188 19.46875 -35.890625 C 17.664062 -35.171875 16.085938 -34.140625 14.734375 -32.796875 C 13.378906 -31.453125 12.320312 -29.835938 11.5625 -27.953125 C 10.8125 -26.078125 10.4375 -23.992188 10.4375 -21.703125 C 10.4375 -19.378906 10.8125 -17.273438 11.5625 -15.390625 C 12.320312 -13.515625 13.378906 -11.898438 14.734375 -10.546875 C 16.085938 -9.191406 17.671875 -8.148438 19.484375 -7.421875 C 21.296875 -6.703125 23.265625 -6.34375 25.390625 -6.34375 C 27.554688 -6.34375 29.554688 -6.734375 31.390625 -7.515625 C 33.222656 -8.296875 34.796875 -9.351562 36.109375 -10.6875 C 36.617188 -11.21875 37.144531 -11.265625 37.6875 -10.828125 L 42.265625 -7.625 C 42.921875 -7.113281 43.003906 -6.601562 42.515625 -6.09375 C 40.503906 -3.875 38.03125 -2.132812 35.09375 -0.875 C 32.164062 0.382812 28.921875 1.015625 25.359375 1.015625 Z M 25.359375 1.015625 "/></g></g></g><g fill="#ffffff" fill-opacity="1"><g transform="translate(218.215949, 207.958038)"><g><path d="M 11.0625 0 L 5.4375 0 C 4.664062 0 4.28125 -0.382812 4.28125 -1.15625 L 4.28125 -42.171875 C 4.28125 -42.953125 4.664062 -43.34375 5.4375 -43.34375 L 11.0625 -43.34375 C 11.832031 -43.34375 12.21875 -42.953125 12.21875 -42.171875 L 12.21875 -1.15625 C 12.21875 -0.382812 11.832031 0 11.0625 0 Z M 11.0625 0 "/></g></g></g><g fill="#ffffff" fill-opacity="1"><g transform="translate(240.496804, 207.958038)"><g><path d="M 10.921875 0 L 5.5 0 C 4.726562 0 4.34375 -0.382812 4.34375 -1.15625 L 4.34375 -42.34375 C 4.34375 -43.382812 4.628906 -44.015625 5.203125 -44.234375 C 5.773438 -44.460938 6.429688 -44.210938 7.171875 -43.484375 L 31.875 -17.796875 L 31.875 -42.171875 C 31.875 -42.953125 32.257812 -43.34375 33.03125 -43.34375 L 38.484375 -43.34375 C 39.253906 -43.34375 39.640625 -42.953125 39.640625 -42.171875 L 39.640625 -1.015625 C 39.640625 0.015625 39.335938 0.632812 38.734375 0.84375 C 38.128906 1.050781 37.4375 0.769531 36.65625 0 L 12.078125 -26.203125 L 12.078125 -1.15625 C 12.078125 -0.382812 11.691406 0 10.921875 0 Z M 10.921875 0 "/></g></g></g><g fill="#ffffff" fill-opacity="1"><g transform="translate(290.282102, 207.958038)"><g><path d="M 28.8125 0 L 5.4375 0 C 4.664062 0 4.28125 -0.382812 4.28125 -1.15625 L 4.28125 -42.171875 C 4.28125 -42.953125 4.664062 -43.34375 5.4375 -43.34375 L 28.8125 -43.34375 C 29.582031 -43.34375 29.96875 -42.953125 29.96875 -42.171875 L 29.96875 -37.46875 C 29.96875 -36.695312 29.582031 -36.3125 28.8125 -36.3125 L 12.21875 -36.3125 L 12.21875 -20.984375 L 26.546875 -20.984375 C 27.316406 -20.984375 27.703125 -20.597656 27.703125 -19.828125 L 27.703125 -15.4375 C 27.703125 -14.664062 27.316406 -14.28125 26.546875 -14.28125 L 12.21875 -14.28125 L 12.21875 -7.03125 L 28.8125 -7.03125 C 29.582031 -7.03125 29.96875 -6.644531 29.96875 -5.875 L 29.96875 -1.15625 C 29.96875 -0.382812 29.582031 0 28.8125 0 Z M 28.8125 0 "/></g></g></g><g fill="#ffffff" fill-opacity="1"><g transform="translate(328.698897, 207.958038)"><g><path d="M 10.96875 0 L 5.5 0 C 4.726562 0 4.34375 -0.382812 4.34375 -1.15625 L 4.34375 -42.40625 C 4.34375 -43.132812 4.484375 -43.664062 4.765625 -44 C 5.046875 -44.332031 5.40625 -44.445312 5.84375 -44.34375 C 6.289062 -44.25 6.734375 -43.914062 7.171875 -43.34375 L 25.25 -19.359375 L 43.390625 -43.34375 C 43.828125 -43.914062 44.257812 -44.25 44.6875 -44.34375 C 45.125 -44.445312 45.488281 -44.332031 45.78125 -44 C 46.070312 -43.664062 46.21875 -43.132812 46.21875 -42.40625 L 46.21875 -1.15625 C 46.21875 -0.382812 45.832031 0 45.0625 0 L 39.578125 0 C 38.804688 0 38.421875 -0.382812 38.421875 -1.15625 L 38.421875 -24.203125 L 26.0625 -8.15625 C 25.820312 -7.8125 25.554688 -7.640625 25.265625 -7.640625 C 24.972656 -7.640625 24.695312 -7.8125 24.4375 -8.15625 L 12.125 -24.15625 L 12.125 -1.15625 C 12.125 -0.382812 11.738281 0 10.96875 0 Z M 10.96875 0 "/></g></g></g><g fill="#ffffff" fill-opacity="1"><g transform="translate(385.028831, 207.958038)"><g><path d="M 22.140625 -43.34375 L 40.859375 -1.359375 C 41.023438 -0.941406 41.023438 -0.609375 40.859375 -0.359375 C 40.703125 -0.117188 40.410156 0 39.984375 0 L 33.765625 0 C 33.109375 0 32.671875 -0.300781 32.453125 -0.90625 L 29.984375 -7 L 11.796875 -7 L 9.34375 -0.90625 C 9.113281 -0.300781 8.671875 0 8.015625 0 L 1.78125 0 C 1.363281 0 1.070312 -0.117188 0.90625 -0.359375 C 0.738281 -0.609375 0.75 -0.941406 0.9375 -1.359375 L 19.609375 -43.34375 C 19.941406 -44.070312 20.367188 -44.4375 20.890625 -44.4375 C 21.410156 -44.4375 21.828125 -44.070312 22.140625 -43.34375 Z M 20.90625 -29.546875 L 14.359375 -13.34375 L 27.421875 -13.34375 Z M 20.90625 -29.546875 "/></g></g></g><g fill="#ffffff" fill-opacity="1"><g transform="translate(432.613773, 207.958038)"><g><path d="M 25.390625 1.015625 C 22.753906 1.015625 20.273438 0.664062 17.953125 -0.03125 C 15.628906 -0.738281 13.519531 -1.75 11.625 -3.0625 C 9.738281 -4.382812 8.113281 -5.976562 6.75 -7.84375 C 5.394531 -9.707031 4.34375 -11.800781 3.59375 -14.125 C 2.851562 -16.445312 2.484375 -18.960938 2.484375 -21.671875 C 2.484375 -24.378906 2.851562 -26.894531 3.59375 -29.21875 C 4.34375 -31.539062 5.394531 -33.628906 6.75 -35.484375 C 8.113281 -37.347656 9.738281 -38.9375 11.625 -40.25 C 13.519531 -41.570312 15.628906 -42.585938 17.953125 -43.296875 C 20.273438 -44.003906 22.753906 -44.359375 25.390625 -44.359375 C 28.023438 -44.359375 30.507812 -44.003906 32.84375 -43.296875 C 35.175781 -42.585938 37.289062 -41.570312 39.1875 -40.25 C 41.082031 -38.9375 42.710938 -37.347656 44.078125 -35.484375 C 45.441406 -33.628906 46.492188 -31.539062 47.234375 -29.21875 C 47.984375 -26.894531 48.359375 -24.378906 48.359375 -21.671875 C 48.359375 -18.960938 47.984375 -16.445312 47.234375 -14.125 C 46.492188 -11.800781 45.441406 -9.707031 44.078125 -7.84375 C 42.710938 -5.976562 41.082031 -4.382812 39.1875 -3.0625 C 37.289062 -1.75 35.175781 -0.738281 32.84375 -0.03125 C 30.507812 0.664062 28.023438 1.015625 25.390625 1.015625 Z M 25.390625 -6.34375 C 27.515625 -6.34375 29.488281 -6.703125 31.3125 -7.421875 C 33.132812 -8.148438 34.726562 -9.191406 36.09375 -10.546875 C 37.457031 -11.898438 38.519531 -13.515625 39.28125 -15.390625 C 40.050781 -17.265625 40.4375 -19.359375 40.4375 -21.671875 C 40.4375 -23.984375 40.050781 -26.070312 39.28125 -27.9375 C 38.519531 -29.8125 37.457031 -31.425781 36.09375 -32.78125 C 34.726562 -34.132812 33.132812 -35.171875 31.3125 -35.890625 C 29.488281 -36.617188 27.515625 -36.984375 25.390625 -36.984375 C 23.265625 -36.984375 21.296875 -36.617188 19.484375 -35.890625 C 17.671875 -35.171875 16.085938 -34.132812 14.734375 -32.78125 C 13.378906 -31.425781 12.320312 -29.8125 11.5625 -27.9375 C 10.8125 -26.070312 10.4375 -23.984375 10.4375 -21.671875 C 10.4375 -19.367188 10.8125 -17.273438 11.5625 -15.390625 C 12.320312 -13.515625 13.378906 -11.898438 14.734375 -10.546875 C 16.085938 -9.191406 17.671875 -8.148438 19.484375 -7.421875 C 21.296875 -6.703125 23.265625 -6.34375 25.390625 -6.34375 Z M 25.390625 -6.34375 "/></g></g></g><g fill="#ffffff" fill-opacity="1"><g transform="translate(489.282234, 207.958038)"><g><path d="M 16.921875 1.015625 C 14.859375 1.015625 12.726562 0.804688 10.53125 0.390625 C 8.34375 -0.015625 5.914062 -0.738281 3.25 -1.78125 C 2.53125 -2.113281 2.3125 -2.628906 2.59375 -3.328125 L 4.34375 -8.015625 C 4.625 -8.691406 5.132812 -8.867188 5.875 -8.546875 C 7.957031 -7.566406 9.914062 -6.878906 11.75 -6.484375 C 13.582031 -6.085938 15.242188 -5.890625 16.734375 -5.890625 C 18.796875 -5.890625 20.457031 -6.296875 21.71875 -7.109375 C 22.976562 -7.921875 23.609375 -9.125 23.609375 -10.71875 C 23.609375 -11.675781 23.320312 -12.535156 22.75 -13.296875 C 22.175781 -14.066406 21.398438 -14.785156 20.421875 -15.453125 C 19.441406 -16.117188 18.335938 -16.773438 17.109375 -17.421875 C 15.878906 -18.066406 14.597656 -18.75 13.265625 -19.46875 C 11.941406 -20.1875 10.671875 -20.953125 9.453125 -21.765625 C 8.242188 -22.585938 7.15625 -23.5 6.1875 -24.5 C 5.21875 -25.507812 4.453125 -26.675781 3.890625 -28 C 3.328125 -29.320312 3.046875 -30.851562 3.046875 -32.59375 C 3.046875 -34.675781 3.425781 -36.457031 4.1875 -37.9375 C 4.945312 -39.425781 5.976562 -40.640625 7.28125 -41.578125 C 8.59375 -42.523438 10.082031 -43.222656 11.75 -43.671875 C 13.414062 -44.128906 15.160156 -44.359375 16.984375 -44.359375 C 18.691406 -44.359375 20.554688 -44.148438 22.578125 -43.734375 C 24.609375 -43.316406 26.59375 -42.742188 28.53125 -42.015625 C 29.238281 -41.734375 29.441406 -41.234375 29.140625 -40.515625 L 27.65625 -36.03125 C 27.351562 -35.3125 26.851562 -35.09375 26.15625 -35.375 C 24.644531 -36.019531 23.109375 -36.519531 21.546875 -36.875 C 19.992188 -37.226562 18.519531 -37.40625 17.125 -37.40625 C 16.019531 -37.40625 15.003906 -37.265625 14.078125 -36.984375 C 13.160156 -36.703125 12.425781 -36.25 11.875 -35.625 C 11.332031 -35.007812 11.0625 -34.1875 11.0625 -33.15625 C 11.0625 -32.207031 11.300781 -31.363281 11.78125 -30.625 C 12.257812 -29.882812 12.921875 -29.195312 13.765625 -28.5625 C 14.609375 -27.9375 15.578125 -27.332031 16.671875 -26.75 C 17.765625 -26.164062 18.929688 -25.5625 20.171875 -24.9375 C 21.523438 -24.226562 22.878906 -23.460938 24.234375 -22.640625 C 25.585938 -21.816406 26.820312 -20.875 27.9375 -19.8125 C 29.0625 -18.75 29.960938 -17.507812 30.640625 -16.09375 C 31.316406 -14.675781 31.65625 -13.015625 31.65625 -11.109375 C 31.65625 -8.972656 31.25 -7.132812 30.4375 -5.59375 C 29.632812 -4.0625 28.535156 -2.804688 27.140625 -1.828125 C 25.742188 -0.847656 24.164062 -0.128906 22.40625 0.328125 C 20.65625 0.785156 18.828125 1.015625 16.921875 1.015625 Z M 16.921875 1.015625 "/></g></g></g><g fill="#ffffff" fill-opacity="1"><g transform="translate(309.580759, 237.268113)"><g><path d="M 9.8125 0 L 2.03125 0 C 1.738281 0 1.59375 -0.144531 1.59375 -0.4375 L 1.59375 -15.6875 C 1.59375 -15.96875 1.738281 -16.109375 2.03125 -16.109375 L 9.8125 -16.109375 C 10.101562 -16.109375 10.25 -15.96875 10.25 -15.6875 L 10.25 -14.625 C 10.25 -14.332031 10.101562 -14.1875 9.8125 -14.1875 L 3.65625 -14.1875 L 3.65625 -7.03125 L 8.984375 -7.03125 C 9.265625 -7.03125 9.40625 -6.882812 9.40625 -6.59375 L 9.40625 -5.578125 C 9.40625 -5.296875 9.265625 -5.15625 8.984375 -5.15625 L 3.65625 -5.15625 L 3.65625 -1.921875 L 9.8125 -1.921875 C 10.101562 -1.921875 10.25 -1.773438 10.25 -1.484375 L 10.25 -0.4375 C 10.25 -0.144531 10.101562 0 9.8125 0 Z M 9.8125 0 "/></g></g></g><g fill="#ffffff" fill-opacity="1"><g transform="translate(324.42941, 237.268113)"><g><path d="M 3.21875 0 L 2.046875 0 C 1.753906 0 1.609375 -0.144531 1.609375 -0.4375 L 1.609375 -15.75 C 1.609375 -16.007812 1.660156 -16.203125 1.765625 -16.328125 C 1.878906 -16.453125 2.015625 -16.5 2.171875 -16.46875 C 2.335938 -16.445312 2.503906 -16.335938 2.671875 -16.140625 L 11.96875 -4.4375 L 11.96875 -15.6875 C 11.96875 -15.96875 12.113281 -16.109375 12.40625 -16.109375 L 13.578125 -16.109375 C 13.859375 -16.109375 14 -15.96875 14 -15.6875 L 14 -0.359375 C 14 -0.109375 13.941406 0.078125 13.828125 0.203125 C 13.722656 0.335938 13.585938 0.382812 13.421875 0.34375 C 13.265625 0.3125 13.101562 0.195312 12.9375 0 L 3.640625 -11.765625 L 3.640625 -0.4375 C 3.640625 -0.144531 3.5 0 3.21875 0 Z M 3.21875 0 "/></g></g></g><g fill="#ffffff" fill-opacity="1"><g transform="translate(343.830779, 237.268113)"><g><path d="M 5.96875 0 L 4.765625 0 C 4.472656 0 4.328125 -0.144531 4.328125 -0.4375 L 4.328125 -14.1875 L 0.6875 -14.1875 C 0.394531 -14.1875 0.25 -14.332031 0.25 -14.625 L 0.25 -15.6875 C 0.25 -15.96875 0.394531 -16.109375 0.6875 -16.109375 L 10.046875 -16.109375 C 10.335938 -16.109375 10.484375 -15.96875 10.484375 -15.6875 L 10.484375 -14.625 C 10.484375 -14.332031 10.335938 -14.1875 10.046875 -14.1875 L 6.40625 -14.1875 L 6.40625 -0.4375 C 6.40625 -0.144531 6.257812 0 5.96875 0 Z M 5.96875 0 "/></g></g></g><g fill="#ffffff" fill-opacity="1"><g transform="translate(358.333246, 237.268113)"><g><path d="M 9.8125 0 L 2.03125 0 C 1.738281 0 1.59375 -0.144531 1.59375 -0.4375 L 1.59375 -15.6875 C 1.59375 -15.96875 1.738281 -16.109375 2.03125 -16.109375 L 9.8125 -16.109375 C 10.101562 -16.109375 10.25 -15.96875 10.25 -15.6875 L 10.25 -14.625 C 10.25 -14.332031 10.101562 -14.1875 9.8125 -14.1875 L 3.65625 -14.1875 L 3.65625 -7.03125 L 8.984375 -7.03125 C 9.265625 -7.03125 9.40625 -6.882812 9.40625 -6.59375 L 9.40625 -5.578125 C 9.40625 -5.296875 9.265625 -5.15625 8.984375 -5.15625 L 3.65625 -5.15625 L 3.65625 -1.921875 L 9.8125 -1.921875 C 10.101562 -1.921875 10.25 -1.773438 10.25 -1.484375 L 10.25 -0.4375 C 10.25 -0.144531 10.101562 0 9.8125 0 Z M 9.8125 0 "/></g></g></g><g fill="#ffffff" fill-opacity="1"><g transform="translate(373.1819, 237.268113)"><g><path d="M 9.78125 -5.640625 L 12.40625 -0.515625 C 12.476562 -0.359375 12.484375 -0.234375 12.421875 -0.140625 C 12.359375 -0.046875 12.242188 0 12.078125 0 L 10.671875 0 C 10.453125 0 10.289062 -0.109375 10.1875 -0.328125 L 7.765625 -5.109375 C 7.554688 -5.078125 7.335938 -5.054688 7.109375 -5.046875 C 6.890625 -5.035156 6.65625 -5.03125 6.40625 -5.03125 L 3.625 -5.03125 L 3.625 -0.4375 C 3.625 -0.144531 3.484375 0 3.203125 0 L 2.03125 0 C 1.738281 0 1.59375 -0.144531 1.59375 -0.4375 L 1.59375 -15.6875 C 1.59375 -15.96875 1.738281 -16.109375 2.03125 -16.109375 L 6.265625 -16.109375 C 8.453125 -16.109375 10.050781 -15.632812 11.0625 -14.6875 C 12.082031 -13.75 12.59375 -12.382812 12.59375 -10.59375 C 12.59375 -8.101562 11.65625 -6.453125 9.78125 -5.640625 Z M 3.625 -6.953125 L 6.140625 -6.953125 C 6.359375 -6.953125 6.617188 -6.957031 6.921875 -6.96875 C 7.222656 -6.988281 7.539062 -7.03125 7.875 -7.09375 C 8.207031 -7.164062 8.535156 -7.273438 8.859375 -7.421875 C 9.179688 -7.566406 9.46875 -7.769531 9.71875 -8.03125 C 9.976562 -8.300781 10.1875 -8.644531 10.34375 -9.0625 C 10.5 -9.476562 10.578125 -9.984375 10.578125 -10.578125 C 10.578125 -11.171875 10.5 -11.675781 10.34375 -12.09375 C 10.195312 -12.507812 9.992188 -12.847656 9.734375 -13.109375 C 9.472656 -13.378906 9.179688 -13.585938 8.859375 -13.734375 C 8.546875 -13.878906 8.222656 -13.984375 7.890625 -14.046875 C 7.554688 -14.117188 7.238281 -14.160156 6.9375 -14.171875 C 6.632812 -14.179688 6.367188 -14.1875 6.140625 -14.1875 L 3.625 -14.1875 Z M 3.625 -6.953125 "/></g></g></g><g fill="#ffffff" fill-opacity="1"><g transform="translate(390.632106, 237.268113)"><g><path d="M 5.96875 0 L 4.765625 0 C 4.472656 0 4.328125 -0.144531 4.328125 -0.4375 L 4.328125 -14.1875 L 0.6875 -14.1875 C 0.394531 -14.1875 0.25 -14.332031 0.25 -14.625 L 0.25 -15.6875 C 0.25 -15.96875 0.394531 -16.109375 0.6875 -16.109375 L 10.046875 -16.109375 C 10.335938 -16.109375 10.484375 -15.96875 10.484375 -15.6875 L 10.484375 -14.625 C 10.484375 -14.332031 10.335938 -14.1875 10.046875 -14.1875 L 6.40625 -14.1875 L 6.40625 -0.4375 C 6.40625 -0.144531 6.257812 0 5.96875 0 Z M 5.96875 0 "/></g></g></g><g fill="#ffffff" fill-opacity="1"><g transform="translate(405.134578, 237.268113)"><g><path d="M 7.8125 -16.109375 L 14.484375 -0.5 C 14.546875 -0.34375 14.546875 -0.21875 14.484375 -0.125 C 14.421875 -0.0390625 14.3125 0 14.15625 0 L 12.8125 0 C 12.707031 0 12.609375 -0.0234375 12.515625 -0.078125 C 12.429688 -0.128906 12.367188 -0.210938 12.328125 -0.328125 L 11.15625 -3.203125 L 3.6875 -3.203125 L 2.5 -0.328125 C 2.414062 -0.109375 2.25 0 2 0 L 0.6875 0 C 0.519531 0 0.40625 -0.0390625 0.34375 -0.125 C 0.289062 -0.21875 0.296875 -0.34375 0.359375 -0.5 L 7.015625 -16.109375 C 7.117188 -16.347656 7.253906 -16.46875 7.421875 -16.46875 C 7.585938 -16.46875 7.71875 -16.347656 7.8125 -16.109375 Z M 7.421875 -12.328125 L 4.421875 -5 L 10.421875 -5 Z M 7.421875 -12.328125 "/></g></g></g><g fill="#ffffff" fill-opacity="1"><g transform="translate(423.7282, 237.268113)"><g><path d="M 3.21875 0 L 2.03125 0 C 1.738281 0 1.59375 -0.144531 1.59375 -0.4375 L 1.59375 -15.6875 C 1.59375 -15.96875 1.738281 -16.109375 2.03125 -16.109375 L 3.21875 -16.109375 C 3.507812 -16.109375 3.65625 -15.96875 3.65625 -15.6875 L 3.65625 -0.4375 C 3.65625 -0.144531 3.507812 0 3.21875 0 Z M 3.21875 0 "/></g></g></g><g fill="#ffffff" fill-opacity="1"><g transform="translate(432.72336, 237.268113)"><g><path d="M 3.21875 0 L 2.046875 0 C 1.753906 0 1.609375 -0.144531 1.609375 -0.4375 L 1.609375 -15.75 C 1.609375 -16.007812 1.660156 -16.203125 1.765625 -16.328125 C 1.878906 -16.453125 2.015625 -16.5 2.171875 -16.46875 C 2.335938 -16.445312 2.503906 -16.335938 2.671875 -16.140625 L 11.96875 -4.4375 L 11.96875 -15.6875 C 11.96875 -15.96875 12.113281 -16.109375 12.40625 -16.109375 L 13.578125 -16.109375 C 13.859375 -16.109375 14 -15.96875 14 -15.6875 L 14 -0.359375 C 14 -0.109375 13.941406 0.078125 13.828125 0.203125 C 13.722656 0.335938 13.585938 0.382812 13.421875 0.34375 C 13.265625 0.3125 13.101562 0.195312 12.9375 0 L 3.640625 -11.765625 L 3.640625 -0.4375 C 3.640625 -0.144531 3.5 0 3.21875 0 Z M 3.21875 0 "/></g></g></g><g fill="#ffffff" fill-opacity="1"><g transform="translate(452.124731, 237.268113)"><g><path d="M 3.21875 0 L 2.046875 0 C 1.753906 0 1.609375 -0.144531 1.609375 -0.4375 L 1.609375 -15.78125 C 1.609375 -16.0625 1.660156 -16.257812 1.765625 -16.375 C 1.878906 -16.5 2.015625 -16.539062 2.171875 -16.5 C 2.335938 -16.46875 2.503906 -16.335938 2.671875 -16.109375 L 9.15625 -7.1875 L 15.65625 -16.109375 C 15.820312 -16.335938 15.984375 -16.46875 16.140625 -16.5 C 16.304688 -16.539062 16.441406 -16.5 16.546875 -16.375 C 16.660156 -16.257812 16.71875 -16.0625 16.71875 -15.78125 L 16.71875 -0.4375 C 16.71875 -0.144531 16.570312 0 16.28125 0 L 15.109375 0 C 14.816406 0 14.671875 -0.144531 14.671875 -0.4375 L 14.671875 -11.40625 L 9.46875 -4.296875 C 9.375 -4.171875 9.269531 -4.109375 9.15625 -4.109375 C 9.039062 -4.109375 8.941406 -4.171875 8.859375 -4.296875 L 3.65625 -11.40625 L 3.65625 -0.4375 C 3.65625 -0.144531 3.507812 0 3.21875 0 Z M 3.21875 0 "/></g></g></g><g fill="#ffffff" fill-opacity="1"><g transform="translate(474.211567, 237.268113)"><g><path d="M 9.8125 0 L 2.03125 0 C 1.738281 0 1.59375 -0.144531 1.59375 -0.4375 L 1.59375 -15.6875 C 1.59375 -15.96875 1.738281 -16.109375 2.03125 -16.109375 L 9.8125 -16.109375 C 10.101562 -16.109375 10.25 -15.96875 10.25 -15.6875 L 10.25 -14.625 C 10.25 -14.332031 10.101562 -14.1875 9.8125 -14.1875 L 3.65625 -14.1875 L 3.65625 -7.03125 L 8.984375 -7.03125 C 9.265625 -7.03125 9.40625 -6.882812 9.40625 -6.59375 L 9.40625 -5.578125 C 9.40625 -5.296875 9.265625 -5.15625 8.984375 -5.15625 L 3.65625 -5.15625 L 3.65625 -1.921875 L 9.8125 -1.921875 C 10.101562 -1.921875 10.25 -1.773438 10.25 -1.484375 L 10.25 -0.4375 C 10.25 -0.144531 10.101562 0 9.8125 0 Z M 9.8125 0 "/></g></g></g><g fill="#ffffff" fill-opacity="1"><g transform="translate(489.060213, 237.268113)"><g><path d="M 3.21875 0 L 2.046875 0 C 1.753906 0 1.609375 -0.144531 1.609375 -0.4375 L 1.609375 -15.75 C 1.609375 -16.007812 1.660156 -16.203125 1.765625 -16.328125 C 1.878906 -16.453125 2.015625 -16.5 2.171875 -16.46875 C 2.335938 -16.445312 2.503906 -16.335938 2.671875 -16.140625 L 11.96875 -4.4375 L 11.96875 -15.6875 C 11.96875 -15.96875 12.113281 -16.109375 12.40625 -16.109375 L 13.578125 -16.109375 C 13.859375 -16.109375 14 -15.96875 14 -15.6875 L 14 -0.359375 C 14 -0.109375 13.941406 0.078125 13.828125 0.203125 C 13.722656 0.335938 13.585938 0.382812 13.421875 0.34375 C 13.265625 0.3125 13.101562 0.195312 12.9375 0 L 3.640625 -11.765625 L 3.640625 -0.4375 C 3.640625 -0.144531 3.5 0 3.21875 0 Z M 3.21875 0 "/></g></g></g><g fill="#ffffff" fill-opacity="1"><g transform="translate(508.461576, 237.268113)"><g><path d="M 5.96875 0 L 4.765625 0 C 4.472656 0 4.328125 -0.144531 4.328125 -0.4375 L 4.328125 -14.1875 L 0.6875 -14.1875 C 0.394531 -14.1875 0.25 -14.332031 0.25 -14.625 L 0.25 -15.6875 C 0.25 -15.96875 0.394531 -16.109375 0.6875 -16.109375 L 10.046875 -16.109375 C 10.335938 -16.109375 10.484375 -15.96875 10.484375 -15.6875 L 10.484375 -14.625 C 10.484375 -14.332031 10.335938 -14.1875 10.046875 -14.1875 L 6.40625 -14.1875 L 6.40625 -0.4375 C 6.40625 -0.144531 6.257812 0 5.96875 0 Z M 5.96875 0 "/></g></g></g></svg>