<?xml version="1.0" standalone="no"?>
<!DOCTYPE svg PUBLIC "-//W3C//DTD SVG 20010904//EN"
 "http://www.w3.org/TR/2001/REC-SVG-20010904/DTD/svg10.dtd">
<svg version="1.0" xmlns="http://www.w3.org/2000/svg"
 width="300.000000pt" height="300.000000pt" viewBox="0 0 300.000000 300.000000"
 preserveAspectRatio="xMidYMid meet">

<g transform="translate(0.000000,300.000000) scale(0.100000,-0.100000)"
fill="#000000" stroke="none">
<path d="M1410 2763 c-353 -54 -650 -228 -855 -501 -378 -504 -327 -1221 117
-1659 136 -134 238 -204 398 -274 154 -66 269 -90 458 -96 179 -6 291 8 431
54 209 68 424 208 561 366 38 43 18 53 -26 12 -35 -33 -44 -32 -84 10 -29 30
-33 38 -22 53 21 30 35 62 30 68 -3 3 -30 -20 -59 -52 -103 -108 -293 -234
-354 -234 -38 0 -56 25 -99 135 -22 55 -52 131 -68 169 -15 37 -28 78 -28 90
0 25 30 56 77 80 44 22 150 122 140 132 -4 5 -17 3 -27 -4 -17 -10 -25 -7 -61
25 -31 28 -39 42 -35 59 10 37 -6 35 -49 -7 -22 -22 -69 -54 -105 -72 -61 -30
-70 -32 -180 -32 -105 0 -120 2 -171 28 -111 54 -191 144 -229 258 -18 51 -21
81 -18 149 8 160 97 293 246 363 62 30 75 32 172 32 97 0 110 -2 172 -32 37
-17 87 -50 111 -73 43 -39 65 -41 51 -5 -4 11 5 28 27 51 29 30 39 34 67 29
18 -3 32 -2 32 4 0 15 -102 102 -158 133 -34 20 -54 38 -58 55 -5 17 10 67 46
161 90 234 93 240 133 247 26 5 46 1 83 -18 80 -41 193 -126 267 -199 38 -38
72 -67 75 -63 4 3 1 14 -6 23 -37 52 -37 61 -2 97 40 42 49 43 80 10 13 -14
33 -25 44 -25 16 0 4 17 -54 76 -195 197 -440 326 -700 369 -86 13 -304 19
-370 8z m58 -35 c7 -7 12 -33 12 -59 0 -51 -8 -59 -60 -59 -35 0 -50 23 -50
75 0 28 5 38 23 45 32 13 61 12 75 -2z m226 6 c17 -7 20 -32 10 -83 -6 -31 -8
-32 -53 -29 l-46 3 -3 44 c-2 24 -1 50 2 57 6 14 61 19 90 8z m235 -49 c12
-12 12 -21 3 -53 -17 -57 -32 -66 -77 -47 -37 15 -38 15 -31 61 3 25 9 50 12
56 8 13 75 1 93 -17z m-673 -45 c13 -42 13 -46 -7 -62 -12 -10 -34 -18 -50
-18 -24 0 -31 6 -44 37 -20 47 -16 64 15 80 46 24 71 13 86 -37z m872 -30 c17
-11 32 -22 32 -25 0 -16 -43 -87 -55 -91 -7 -3 -27 2 -44 11 -35 18 -39 38
-17 90 17 40 36 44 84 15z m-1088 -51 c25 -48 22 -62 -19 -83 -37 -19 -51 -14
-73 25 -25 43 -22 66 10 83 44 24 60 19 82 -25z m715 16 c123 -22 155 -41 155
-95 0 -38 -120 -354 -143 -378 -21 -21 -27 -22 -68 -13 -64 15 -204 13 -274
-4 -55 -13 -62 -13 -83 3 -26 19 -162 329 -164 375 -2 40 27 65 101 87 134 41
326 51 476 25z m569 -86 c33 -26 33 -43 0 -86 -29 -39 -42 -41 -78 -12 -31 25
-33 41 -5 85 24 39 45 43 83 13z m-1469 -59 c27 -40 28 -41 9 -61 -38 -42 -53
-44 -90 -8 -41 40 -43 61 -8 88 39 30 58 26 89 -19z m265 20 c32 -17 185 -359
175 -391 -4 -11 -37 -42 -74 -69 -68 -50 -109 -94 -170 -182 -25 -38 -38 -48
-60 -48 -32 0 -346 132 -373 157 -27 24 -22 70 13 132 83 147 221 290 364 375
61 37 92 43 125 26z m-435 -171 c19 -17 35 -36 35 -41 0 -18 -41 -68 -56 -68
-23 0 -84 50 -84 68 0 16 48 72 62 72 4 0 23 -14 43 -31z m-132 -184 c41 -28
44 -42 22 -85 -18 -35 -24 -36 -75 -10 -30 15 -40 27 -40 44 0 22 34 76 48 76
4 0 24 -11 45 -25z m1070 -29 c10 -11 12 -27 7 -60 -8 -53 -13 -61 -35 -53
-26 11 -16 127 11 127 2 0 9 -6 17 -14z m-95 -58 c2 -47 0 -58 -13 -58 -19 0
-35 39 -35 86 0 31 3 35 23 32 19 -3 22 -10 25 -60z m201 43 c12 -8 13 -16 2
-53 -16 -53 -28 -69 -48 -61 -15 6 -12 47 7 99 10 26 17 29 39 15z m-304 -33
c21 -53 22 -82 2 -86 -12 -3 -23 9 -37 44 -12 26 -19 53 -16 61 10 24 37 13
51 -19z m411 -12 c6 -16 -43 -106 -57 -106 -26 0 -17 67 14 108 13 16 36 15
43 -2z m-496 -49 c19 -36 22 -49 13 -58 -15 -15 -31 -3 -57 45 -19 36 -16 71
7 64 6 -2 23 -25 37 -51z m578 -39 c-34 -50 -59 -70 -74 -57 -12 10 -11 16 4
41 9 16 25 39 36 50 17 18 20 18 34 5 14 -14 14 -18 0 -39z m-628 -60 c0 -23
-33 -19 -60 7 -36 35 -47 64 -29 76 10 7 25 -3 52 -32 20 -23 37 -46 37 -51z
m-827 27 c45 -19 48 -24 36 -67 -11 -43 -21 -47 -76 -36 -50 11 -60 32 -39 82
17 40 27 43 79 21z m322 -81 c94 -36 178 -73 188 -82 15 -13 17 -25 13 -57
-16 -105 -18 -221 -6 -291 12 -67 11 -76 -5 -93 -19 -22 -339 -151 -372 -151
-54 0 -72 25 -96 135 -35 153 -32 355 8 505 16 59 48 100 80 100 11 0 97 -30
190 -66z m400 35 c59 -52 39 -90 -23 -43 -47 35 -53 45 -40 61 15 19 23 16 63
-18z m-46 -89 c64 -47 36 -68 -39 -30 -37 19 -49 38 -33 53 12 13 30 7 72 -23z
m-39 -86 c39 -16 53 -40 28 -49 -7 -3 -33 1 -58 8 -34 10 -46 18 -48 35 -4 27
20 29 78 6z m-649 -10 c10 -6 12 -54 3 -78 -9 -23 -109 -23 -118 0 -9 24 -7
53 5 76 9 18 17 20 56 14 24 -3 49 -8 54 -12z m632 -84 c16 0 30 -7 34 -16 10
-27 -12 -37 -66 -29 -39 5 -51 11 -51 24 0 25 11 33 35 27 11 -3 33 -6 48 -6z
m35 -117 c-2 -13 -18 -21 -51 -27 -52 -9 -74 1 -64 28 5 12 21 16 62 16 48 0
56 -3 53 -17z m-664 -29 c13 -33 6 -73 -13 -84 -33 -17 -89 -12 -101 9 -14 26
-13 64 2 79 18 18 105 15 112 -4z m686 -60 c0 -16 -36 -33 -88 -41 -31 -5 -34
-4 -30 18 2 20 12 26 53 35 55 12 65 10 65 -12z m30 -82 c0 -19 -65 -62 -94
-62 -31 0 -17 39 22 59 47 25 72 26 72 3z m-149 -54 c8 -7 27 -32 43 -56 41
-65 93 -119 163 -169 35 -25 66 -55 69 -67 4 -16 -19 -76 -71 -192 -43 -93
-84 -177 -93 -186 -9 -11 -29 -18 -53 -18 -86 0 -304 188 -417 360 -65 98 -79
153 -47 180 23 19 348 160 371 160 11 0 27 -6 35 -12z m172 -60 c-38 -39 -67
-48 -76 -24 -6 14 17 39 62 69 19 12 28 14 38 5 11 -9 7 -18 -24 -50z m-698
18 c19 -46 12 -60 -36 -76 -49 -17 -70 -7 -83 38 -13 48 8 66 82 71 17 1 27
-7 37 -33z m792 -41 c5 -16 -56 -95 -73 -95 -28 0 -26 30 6 70 30 38 59 49 67
25z m612 -42 c27 -33 40 -63 27 -63 -2 0 -11 -3 -20 -6 -11 -4 -24 9 -45 42
-17 26 -28 51 -25 55 11 18 34 8 63 -28z m-543 -4 c10 -18 -37 -110 -55 -107
-25 5 -24 34 4 77 26 42 39 49 51 30z m463 -55 c19 -34 21 -48 12 -57 -17 -17
-43 3 -60 46 -15 40 -9 70 11 62 7 -3 24 -26 37 -51z m-379 4 c0 -13 -5 -40
-11 -61 -8 -31 -14 -38 -32 -35 -26 4 -26 24 -2 81 17 41 45 50 45 15z m285
-39 c18 -53 11 -77 -18 -66 -16 6 -41 92 -32 108 14 22 35 5 50 -42z m-195
-13 c0 -56 -15 -81 -39 -66 -10 6 -12 21 -8 55 8 55 13 65 33 65 10 0 14 -14
14 -54z m94 38 c13 -33 6 -104 -10 -111 -9 -3 -20 0 -25 8 -10 16 -12 103 -2
112 11 12 31 7 37 -9z m-1055 -40 c32 -41 27 -67 -18 -92 -44 -25 -63 -22 -80
14 -19 43 -13 62 27 83 48 26 47 26 71 -5z m901 -90 c71 -13 101 -13 183 -3
92 11 100 10 118 -7 21 -21 139 -345 139 -382 0 -71 -142 -108 -383 -99 -227
8 -347 49 -347 119 0 37 135 359 157 376 21 15 29 15 133 -4z m-776 -105 c14
-17 26 -34 26 -39 0 -15 -64 -70 -82 -70 -19 0 -58 50 -58 74 0 14 64 66 81
66 4 0 19 -14 33 -31z m158 -158 l32 -29 -27 -41 c-18 -27 -35 -41 -49 -41
-25 0 -68 37 -68 59 0 16 58 81 72 81 4 0 22 -13 40 -29z m1467 -43 c17 -18
31 -39 31 -47 0 -23 -41 -61 -66 -61 -32 0 -77 66 -63 91 7 14 50 45 66 49 1
0 16 -15 32 -32z m-1265 -100 c7 -12 5 -27 -9 -57 -14 -33 -23 -41 -44 -41
-14 0 -37 9 -50 19 -28 21 -25 51 9 94 20 25 23 26 52 14 17 -7 36 -20 42 -29z
m1086 -39 c23 -44 19 -62 -16 -78 -44 -20 -64 -14 -80 24 -21 52 -18 70 19 87
41 20 53 14 77 -33z m-883 -45 c9 -12 8 -25 -1 -57 -13 -47 -37 -57 -87 -37
-33 14 -36 31 -13 85 15 36 17 37 52 31 20 -3 42 -13 49 -22z m662 -12 c5 -9
12 -34 16 -53 6 -34 5 -37 -26 -48 -39 -13 -66 -14 -73 -2 -4 5 -9 30 -12 55
-6 42 -5 47 17 55 38 15 67 13 78 -7z m-458 -22 c14 -8 19 -21 19 -50 0 -56
-8 -70 -42 -70 -48 0 -68 16 -68 56 0 67 37 93 91 64z m240 -27 c5 -15 9 -41
7 -57 -3 -30 -5 -31 -53 -31 l-50 0 -3 44 c-5 62 1 71 48 71 35 0 42 -4 51
-27z"/>
</g>
</svg>
