<svg xmlns="http://www.w3.org/2000/svg" xmlns:xlink="http://www.w3.org/1999/xlink" width="500" zoomAndPan="magnify" viewBox="0 0 375 374.999991" height="500" preserveAspectRatio="xMidYMid meet" version="1.0"><defs><g/><clipPath id="6c4a86431e"><path d="M 268 268 L 269 268 L 269 269 L 268 269 Z M 268 268 " clip-rule="nonzero"/></clipPath><clipPath id="bb51e56f7e"><path d="M 3.261719 186.605469 L 185.695312 4.171875 L 371.839844 190.316406 L 189.40625 372.75 Z M 3.261719 186.605469 " clip-rule="nonzero"/></clipPath><clipPath id="c2047ac7fd"><path d="M 3.261719 186.605469 L 185.695312 4.171875 L 371.839844 190.316406 L 189.40625 372.75 Z M 3.261719 186.605469 " clip-rule="nonzero"/></clipPath><clipPath id="f5e7157403"><path d="M 69 68 L 272 68 L 272 312 L 69 312 Z M 69 68 " clip-rule="nonzero"/></clipPath><clipPath id="557da92644"><path d="M 3.261719 186.605469 L 185.695312 4.171875 L 371.839844 190.316406 L 189.40625 372.75 Z M 3.261719 186.605469 " clip-rule="nonzero"/></clipPath><clipPath id="7fc837df5f"><path d="M 3.261719 186.605469 L 185.695312 4.171875 L 371.839844 190.316406 L 189.40625 372.75 Z M 3.261719 186.605469 " clip-rule="nonzero"/></clipPath><clipPath id="df0a1b4516"><path d="M 268 268 L 269 268 L 269 269 L 268 269 Z M 268 268 " clip-rule="nonzero"/></clipPath><clipPath id="fbdb38fc1b"><path d="M 3.261719 186.605469 L 185.695312 4.171875 L 371.839844 190.316406 L 189.40625 372.75 Z M 3.261719 186.605469 " clip-rule="nonzero"/></clipPath><clipPath id="ad7661f017"><path d="M 3.261719 186.605469 L 185.695312 4.171875 L 371.839844 190.316406 L 189.40625 372.75 Z M 3.261719 186.605469 " clip-rule="nonzero"/></clipPath><clipPath id="32ce63dff0"><path d="M 72 68 L 251 68 L 251 309 L 72 309 Z M 72 68 " clip-rule="nonzero"/></clipPath><clipPath id="9e58dbc616"><path d="M 3.261719 186.605469 L 185.695312 4.171875 L 371.839844 190.316406 L 189.40625 372.75 Z M 3.261719 186.605469 " clip-rule="nonzero"/></clipPath><clipPath id="f6d994f8ab"><path d="M 3.261719 186.605469 L 185.695312 4.171875 L 371.839844 190.316406 L 189.40625 372.75 Z M 3.261719 186.605469 " clip-rule="nonzero"/></clipPath><clipPath id="68aefe215c"><path d="M 62 61 L 277 61 L 277 319 L 62 319 Z M 62 61 " clip-rule="nonzero"/></clipPath><clipPath id="79c7e153d7"><path d="M 3.261719 186.605469 L 185.695312 4.171875 L 371.839844 190.316406 L 189.40625 372.75 Z M 3.261719 186.605469 " clip-rule="nonzero"/></clipPath><clipPath id="9d9babb2e8"><path d="M 3.261719 186.605469 L 185.695312 4.171875 L 371.839844 190.316406 L 189.40625 372.75 Z M 3.261719 186.605469 " clip-rule="nonzero"/></clipPath><clipPath id="6ededd2e36"><path d="M 67 66 L 274 66 L 274 314 L 67 314 Z M 67 66 " clip-rule="nonzero"/></clipPath><clipPath id="d73f6ee5ab"><path d="M 3.261719 186.605469 L 185.695312 4.171875 L 371.839844 190.316406 L 189.40625 372.75 Z M 3.261719 186.605469 " clip-rule="nonzero"/></clipPath><clipPath id="8c0a8c6726"><path d="M 3.261719 186.605469 L 185.695312 4.171875 L 371.839844 190.316406 L 189.40625 372.75 Z M 3.261719 186.605469 " clip-rule="nonzero"/></clipPath><clipPath id="7a5595a664"><path d="M 268 268 L 269 268 L 269 269 L 268 269 Z M 268 268 " clip-rule="nonzero"/></clipPath><clipPath id="a638a512f8"><path d="M 3.261719 186.605469 L 185.695312 4.171875 L 371.839844 190.316406 L 189.40625 372.75 Z M 3.261719 186.605469 " clip-rule="nonzero"/></clipPath><clipPath id="01e8a67a96"><path d="M 3.261719 186.605469 L 185.695312 4.171875 L 371.839844 190.316406 L 189.40625 372.75 Z M 3.261719 186.605469 " clip-rule="nonzero"/></clipPath></defs><g clip-path="url(#6c4a86431e)"><g clip-path="url(#bb51e56f7e)"><g clip-path="url(#c2047ac7fd)"><path fill="#231f20" d="M 268.902344 268.046875 L 268.863281 268.007812 Z M 268.902344 268.046875 " fill-opacity="1" fill-rule="nonzero"/></g></g></g><g clip-path="url(#f5e7157403)"><g clip-path="url(#557da92644)"><g clip-path="url(#7fc837df5f)"><path fill="#231f20" d="M 271.503906 99.375 L 240.152344 130.726562 C 239.402344 130.101562 238.640625 129.492188 237.871094 128.902344 C 236.699219 128.003906 235.507812 127.140625 234.292969 126.316406 C 232.582031 125.148438 230.835938 124.0625 229.054688 123.050781 C 227.769531 122.320312 226.46875 121.632812 225.152344 120.980469 C 223.300781 120.066406 221.414062 119.226562 219.503906 118.46875 C 218.132812 117.925781 216.746094 117.417969 215.351562 116.957031 C 213.390625 116.304688 211.410156 115.734375 209.410156 115.246094 C 207.972656 114.894531 206.535156 114.585938 205.085938 114.316406 C 203.058594 113.9375 201.015625 113.644531 198.964844 113.429688 C 197.5 113.28125 196.035156 113.167969 194.5625 113.101562 C 192.503906 113.003906 190.441406 112.988281 188.378906 113.058594 C 186.910156 113.105469 185.441406 113.195312 183.972656 113.328125 C 181.921875 113.511719 179.878906 113.777344 177.84375 114.125 C 176.394531 114.375 174.949219 114.664062 173.515625 114.992188 C 171.511719 115.457031 169.523438 115.996094 167.554688 116.621094 C 166.152344 117.0625 164.765625 117.546875 163.386719 118.070312 C 161.46875 118.804688 159.574219 119.613281 157.707031 120.503906 C 156.378906 121.132812 155.070312 121.804688 153.773438 122.515625 C 151.976562 123.503906 150.210938 124.570312 148.480469 125.710938 C 147.253906 126.519531 146.050781 127.367188 144.863281 128.25 C 143.222656 129.476562 141.621094 130.773438 140.058594 132.144531 C 139.121094 132.972656 138.199219 133.824219 137.289062 134.703125 C 137.152344 134.832031 137.019531 134.964844 136.882812 135.101562 L 136.828125 135.15625 C 136.691406 135.292969 136.558594 135.425781 136.421875 135.5625 C 135.085938 136.894531 133.8125 138.265625 132.597656 139.671875 C 131.628906 140.792969 130.695312 141.933594 129.800781 143.09375 C 128.535156 144.738281 127.34375 146.421875 126.226562 148.148438 C 125.5 149.265625 124.808594 150.398438 124.148438 151.542969 C 124.074219 151.671875 124.003906 151.796875 123.929688 151.925781 C 123.425781 152.808594 122.941406 153.699219 122.480469 154.601562 C 121.996094 155.535156 121.53125 156.472656 121.09375 157.421875 C 120.464844 158.761719 119.878906 160.117188 119.335938 161.488281 C 118.570312 163.410156 117.886719 165.359375 117.28125 167.332031 C 116.847656 168.742188 116.453125 170.164062 116.105469 171.597656 C 115.878906 172.515625 115.671875 173.4375 115.480469 174.359375 C 115.253906 175.457031 115.050781 176.5625 114.871094 177.667969 C 114.863281 177.71875 114.851562 177.773438 114.847656 177.828125 C 114.621094 179.230469 114.433594 180.640625 114.289062 182.054688 C 114.074219 184.109375 113.941406 186.171875 113.894531 188.238281 C 113.859375 189.710938 113.867188 191.1875 113.914062 192.660156 C 113.984375 194.722656 114.132812 196.785156 114.367188 198.839844 L 114.382812 199.003906 C 114.519531 200.179688 114.679688 201.351562 114.867188 202.519531 C 114.90625 202.75 114.945312 202.980469 114.984375 203.210938 C 115.332031 205.242188 115.761719 207.261719 116.273438 209.265625 C 116.636719 210.691406 117.042969 212.109375 117.488281 213.515625 C 118.109375 215.476562 118.8125 217.417969 119.597656 219.335938 C 120.078125 220.511719 120.589844 221.679688 121.132812 222.835938 C 121.214844 223.015625 121.300781 223.195312 121.382812 223.375 C 121.808594 224.261719 122.25 225.144531 122.710938 226.019531 C 123.214844 226.972656 123.734375 227.914062 124.277344 228.847656 C 125.015625 230.121094 125.792969 231.371094 126.613281 232.609375 C 127.742188 234.320312 128.949219 235.996094 130.234375 237.632812 C 131.140625 238.785156 132.082031 239.921875 133.0625 241.03125 C 133.75 241.8125 134.457031 242.578125 135.179688 243.335938 C 135.585938 243.757812 135.996094 244.179688 136.414062 244.601562 C 136.722656 244.910156 137.035156 245.214844 137.347656 245.515625 C 137.472656 245.640625 137.59375 245.753906 137.71875 245.871094 C 138.664062 246.777344 139.628906 247.652344 140.613281 248.5 C 142.1875 249.859375 143.804688 251.140625 145.464844 252.351562 C 146.660156 253.226562 147.875 254.0625 149.109375 254.859375 C 150.851562 255.984375 152.632812 257.035156 154.445312 258.003906 C 154.644531 258.113281 154.847656 258.222656 155.046875 258.328125 C 156.101562 258.875 157.160156 259.402344 158.226562 259.902344 C 158.285156 259.929688 158.347656 259.957031 158.40625 259.984375 C 160.285156 260.855469 162.195312 261.648438 164.128906 262.363281 C 165.519531 262.878906 166.917969 263.347656 168.328125 263.777344 C 170.308594 264.382812 172.308594 264.90625 174.324219 265.347656 C 175.722656 265.652344 177.125 265.917969 178.539062 266.148438 C 178.582031 266.15625 178.628906 266.160156 178.671875 266.167969 C 179.796875 266.351562 180.925781 266.507812 182.054688 266.636719 C 182.976562 266.742188 183.898438 266.832031 184.824219 266.90625 C 186.292969 267.023438 187.765625 267.09375 189.246094 267.128906 C 191.308594 267.175781 193.371094 267.136719 195.4375 267.015625 C 196.90625 266.933594 198.375 266.804688 199.84375 266.636719 C 200.972656 266.503906 202.105469 266.347656 203.230469 266.167969 C 204.140625 266.023438 205.050781 265.863281 205.957031 265.683594 C 206.207031 265.632812 206.453125 265.582031 206.699219 265.53125 C 207.894531 265.285156 209.085938 265.007812 210.269531 264.703125 C 212.261719 264.191406 214.238281 263.597656 216.191406 262.921875 C 217.582031 262.445312 218.957031 261.925781 220.324219 261.363281 C 222.222656 260.582031 224.097656 259.722656 225.945312 258.785156 C 226.117188 258.695312 226.292969 258.605469 226.464844 258.515625 C 227.496094 257.984375 228.519531 257.421875 229.527344 256.839844 C 229.625 256.78125 229.722656 256.722656 229.824219 256.667969 C 231.59375 255.632812 233.332031 254.519531 235.035156 253.332031 C 236.238281 252.492188 237.421875 251.613281 238.585938 250.699219 C 239.035156 250.34375 239.480469 249.984375 239.925781 249.617188 L 244.734375 254.234375 L 259.921875 268.808594 L 264.730469 273.421875 L 267.164062 275.753906 L 269.546875 278.042969 L 271.964844 280.363281 C 270.980469 281.25 269.980469 282.117188 268.96875 282.96875 C 267.839844 283.921875 266.695312 284.847656 265.535156 285.753906 C 263.90625 287.027344 262.25 288.257812 260.5625 289.441406 C 259.617188 290.105469 258.664062 290.757812 257.699219 291.390625 C 257.433594 291.566406 257.164062 291.742188 256.898438 291.917969 C 255.167969 293.039062 253.40625 294.117188 251.617188 295.152344 C 250.34375 295.890625 249.054688 296.601562 247.75 297.292969 C 245.925781 298.261719 244.078125 299.183594 242.207031 300.054688 C 240.871094 300.679688 239.523438 301.277344 238.164062 301.847656 C 237.636719 302.070312 237.105469 302.289062 236.570312 302.503906 C 235.195312 303.066406 233.804688 303.597656 232.402344 304.105469 C 231.019531 304.609375 229.625 305.085938 228.21875 305.539062 C 226.253906 306.167969 224.273438 306.75 222.277344 307.285156 C 220.855469 307.664062 219.421875 308.019531 217.984375 308.347656 C 216.6875 308.644531 215.386719 308.917969 214.082031 309.171875 C 213.359375 309.308594 212.636719 309.441406 211.914062 309.570312 C 210.464844 309.824219 209.007812 310.050781 207.542969 310.25 C 205.5 310.53125 203.449219 310.761719 201.390625 310.9375 C 199.921875 311.066406 198.449219 311.164062 196.976562 311.238281 C 194.960938 311.339844 192.945312 311.390625 190.929688 311.390625 L 190.785156 311.390625 C 189.3125 311.386719 187.839844 311.359375 186.363281 311.304688 C 184.304688 311.234375 182.246094 311.105469 180.191406 310.921875 C 178.722656 310.789062 177.253906 310.632812 175.789062 310.449219 C 173.738281 310.195312 171.695312 309.890625 169.667969 309.527344 C 169.039062 309.414062 168.410156 309.300781 167.789062 309.179688 C 166.964844 309.019531 166.140625 308.851562 165.324219 308.671875 C 163.304688 308.238281 161.300781 307.753906 159.304688 307.214844 C 157.878906 306.832031 156.464844 306.421875 155.054688 305.988281 C 153.078125 305.378906 151.125 304.71875 149.183594 304.011719 C 147.878906 303.53125 146.582031 303.035156 145.296875 302.511719 C 145.21875 302.480469 145.136719 302.449219 145.058594 302.414062 C 143.148438 301.636719 141.257812 300.804688 139.386719 299.925781 C 138.050781 299.300781 136.726562 298.652344 135.414062 297.972656 C 133.578125 297.027344 131.769531 296.035156 129.980469 295 C 128.707031 294.257812 127.445312 293.492188 126.199219 292.703125 C 125.519531 292.273438 124.839844 291.835938 124.167969 291.394531 C 123.117188 290.699219 122.078125 289.988281 121.046875 289.261719 C 119.84375 288.410156 118.65625 287.539062 117.480469 286.640625 C 115.839844 285.390625 114.230469 284.097656 112.652344 282.761719 C 111.527344 281.8125 110.417969 280.839844 109.328125 279.847656 C 107.902344 278.554688 106.511719 277.226562 105.152344 275.867188 C 105.050781 275.765625 104.949219 275.664062 104.851562 275.566406 C 103.8125 274.519531 102.792969 273.457031 101.789062 272.371094 C 100.390625 270.855469 99.027344 269.304688 97.703125 267.71875 C 96.757812 266.582031 95.835938 265.433594 94.933594 264.269531 C 93.664062 262.632812 92.441406 260.96875 91.265625 259.277344 C 90.707031 258.472656 90.160156 257.667969 89.621094 256.855469 C 89.347656 256.4375 89.074219 256.019531 88.804688 255.597656 C 87.691406 253.863281 86.621094 252.097656 85.59375 250.304688 C 84.863281 249.023438 84.152344 247.730469 83.46875 246.429688 C 82.507812 244.601562 81.597656 242.746094 80.734375 240.871094 C 80.113281 239.53125 79.523438 238.179688 78.953125 236.820312 C 78.804688 236.457031 78.652344 236.09375 78.507812 235.730469 C 77.878906 234.183594 77.28125 232.621094 76.71875 231.042969 C 76.222656 229.65625 75.75 228.257812 75.304688 226.851562 C 74.679688 224.882812 74.105469 222.898438 73.585938 220.898438 C 73.207031 219.46875 72.855469 218.03125 72.535156 216.589844 C 72.285156 215.472656 72.054688 214.351562 71.835938 213.230469 C 71.660156 212.328125 71.496094 211.421875 71.339844 210.511719 C 71.097656 209.0625 70.878906 207.601562 70.683594 206.140625 C 70.410156 204.097656 70.191406 202.042969 70.023438 199.980469 C 69.902344 198.511719 69.8125 197.039062 69.746094 195.566406 C 69.660156 193.738281 69.621094 191.910156 69.621094 190.078125 L 69.621094 189.375 C 69.628906 187.902344 69.667969 186.425781 69.730469 184.953125 C 69.816406 182.890625 69.953125 180.832031 70.148438 178.773438 C 70.285156 177.304688 70.445312 175.839844 70.636719 174.378906 C 70.902344 172.328125 71.21875 170.289062 71.589844 168.257812 C 71.671875 167.8125 71.753906 167.371094 71.839844 166.929688 C 72.035156 165.925781 72.242188 164.921875 72.460938 163.921875 C 72.902344 161.90625 73.398438 159.902344 73.945312 157.910156 C 74.335938 156.488281 74.75 155.074219 75.191406 153.664062 C 75.808594 151.695312 76.476562 149.742188 77.195312 147.808594 C 77.613281 146.675781 78.050781 145.554688 78.503906 144.4375 C 78.601562 144.1875 78.707031 143.9375 78.808594 143.691406 C 79.597656 141.785156 80.433594 139.898438 81.320312 138.03125 C 81.953125 136.699219 82.609375 135.378906 83.289062 134.070312 C 84.242188 132.242188 85.242188 130.4375 86.289062 128.65625 C 87.035156 127.382812 87.804688 126.125 88.597656 124.882812 C 88.933594 124.355469 89.277344 123.828125 89.621094 123.308594 C 90.414062 122.109375 91.226562 120.925781 92.0625 119.753906 C 92.917969 118.554688 93.792969 117.371094 94.695312 116.199219 C 95.953125 114.570312 97.253906 112.96875 98.59375 111.394531 C 99.550781 110.273438 100.527344 109.167969 101.527344 108.085938 C 102.710938 106.796875 103.917969 105.535156 105.15625 104.296875 C 105.378906 104.074219 105.601562 103.851562 105.824219 103.628906 L 106.003906 103.445312 L 106.019531 103.433594 C 106.9375 102.535156 107.867188 101.648438 108.8125 100.78125 C 108.882812 100.710938 108.957031 100.648438 109.027344 100.582031 C 110.550781 99.1875 112.105469 97.832031 113.695312 96.519531 C 114.832031 95.578125 115.984375 94.660156 117.152344 93.761719 C 118.792969 92.503906 120.460938 91.289062 122.15625 90.121094 C 122.820312 89.660156 123.492188 89.207031 124.164062 88.761719 C 124.722656 88.398438 125.277344 88.035156 125.839844 87.675781 C 127.578125 86.570312 129.347656 85.507812 131.144531 84.488281 C 132.425781 83.761719 133.722656 83.058594 135.027344 82.378906 L 135.417969 82.179688 C 137.027344 81.351562 138.65625 80.558594 140.296875 79.808594 C 140.394531 79.761719 140.492188 79.71875 140.589844 79.675781 C 141.929688 79.0625 143.28125 78.476562 144.640625 77.914062 L 145.292969 77.648438 C 146.984375 76.960938 148.695312 76.3125 150.421875 75.703125 C 151.8125 75.210938 153.207031 74.746094 154.617188 74.304688 C 156.582031 73.691406 158.566406 73.125 160.566406 72.609375 C 161.992188 72.242188 163.425781 71.898438 164.863281 71.582031 C 165.832031 71.371094 166.804688 71.167969 167.78125 70.980469 C 168.828125 70.777344 169.882812 70.589844 170.9375 70.414062 C 171.019531 70.398438 171.101562 70.386719 171.179688 70.375 C 172.554688 70.148438 173.929688 69.945312 175.3125 69.769531 C 175.710938 69.71875 176.109375 69.667969 176.507812 69.621094 C 178.15625 69.421875 179.808594 69.257812 181.464844 69.132812 C 182.933594 69.015625 184.402344 68.929688 185.875 68.867188 C 187.5625 68.796875 189.246094 68.761719 190.933594 68.761719 C 191.308594 68.761719 191.683594 68.761719 192.0625 68.765625 C 193.535156 68.78125 195.007812 68.820312 196.480469 68.886719 C 198.539062 68.980469 200.59375 69.128906 202.648438 69.328125 C 204.117188 69.46875 205.578125 69.636719 207.039062 69.832031 C 207.554688 69.898438 208.070312 69.96875 208.585938 70.046875 C 210.113281 70.269531 211.632812 70.523438 213.148438 70.804688 C 213.386719 70.847656 213.625 70.890625 213.859375 70.9375 C 213.933594 70.953125 214.011719 70.964844 214.085938 70.980469 C 215.21875 71.199219 216.351562 71.433594 217.476562 71.6875 C 219.488281 72.136719 221.488281 72.636719 223.480469 73.191406 C 224.898438 73.582031 226.3125 74.003906 227.714844 74.449219 C 229.679688 75.074219 231.628906 75.746094 233.558594 76.46875 C 234.574219 76.847656 235.578125 77.238281 236.578125 77.644531 C 236.941406 77.792969 237.304688 77.941406 237.667969 78.09375 C 239.570312 78.886719 241.453125 79.726562 243.3125 80.621094 C 243.617188 80.765625 243.921875 80.910156 244.222656 81.0625 C 245.246094 81.558594 246.257812 82.070312 247.261719 82.601562 C 247.835938 82.898438 248.40625 83.207031 248.972656 83.515625 C 250.214844 84.191406 251.445312 84.890625 252.667969 85.613281 C 253.933594 86.363281 255.1875 87.136719 256.429688 87.929688 C 256.855469 88.207031 257.28125 88.484375 257.707031 88.765625 C 259 89.617188 260.28125 90.5 261.542969 91.40625 C 262.738281 92.261719 263.917969 93.144531 265.085938 94.046875 C 266.714844 95.304688 268.3125 96.609375 269.878906 97.953125 C 270.425781 98.421875 270.964844 98.898438 271.503906 99.375 Z M 271.503906 99.375 " fill-opacity="1" fill-rule="nonzero"/></g></g></g><g clip-path="url(#df0a1b4516)"><g clip-path="url(#fbdb38fc1b)"><g clip-path="url(#ad7661f017)"><path fill="#ffffff" d="M 268.863281 268.007812 L 268.902344 268.046875 Z M 268.863281 268.007812 " fill-opacity="1" fill-rule="nonzero"/></g></g></g><g clip-path="url(#32ce63dff0)"><g clip-path="url(#9e58dbc616)"><g clip-path="url(#f6d994f8ab)"><path fill="#ffffff" d="M 250.191406 295.191406 C 248.597656 296.050781 246.960938 296.882812 245.328125 297.671875 L 226.136719 257.835938 C 227.171875 257.335938 228.207031 256.808594 229.21875 256.261719 Z M 214.324219 307.726562 C 212.546875 308.046875 210.738281 308.332031 208.945312 308.574219 L 203.039062 264.753906 C 204.179688 264.601562 205.332031 264.417969 206.464844 264.214844 Z M 176.40625 308.578125 C 174.617188 308.335938 172.804688 308.050781 171.03125 307.730469 L 178.886719 264.21875 C 180.015625 264.425781 181.164062 264.605469 182.300781 264.761719 Z M 140.042969 297.6875 C 138.414062 296.902344 136.78125 296.070312 135.195312 295.214844 L 156.152344 256.285156 C 157.160156 256.824219 158.191406 257.351562 159.214844 257.847656 Z M 108.859375 276.0625 C 108.199219 275.429688 107.535156 274.78125 106.886719 274.132812 C 106.261719 273.507812 105.632812 272.867188 105.023438 272.226562 L 136.957031 241.644531 C 137.347656 242.054688 137.75 242.46875 138.152344 242.871094 C 138.570312 243.285156 138.992188 243.699219 139.417969 244.105469 Z M 124.765625 224.921875 L 85.847656 245.90625 C 84.988281 244.3125 84.15625 242.679688 83.367188 241.050781 L 123.195312 221.851562 C 123.691406 222.875 124.21875 223.910156 124.761719 224.917969 Z M 229.152344 120.394531 C 228.144531 119.851562 227.109375 119.324219 226.074219 118.828125 L 245.226562 78.976562 C 246.859375 79.757812 248.492188 80.589844 250.085938 81.445312 Z M 116.808594 202.171875 L 73.300781 210.050781 C 72.976562 208.273438 72.691406 206.464844 72.449219 204.671875 L 116.265625 198.75 C 116.421875 199.890625 116.601562 201.039062 116.808594 202.171875 Z M 206.398438 112.46875 C 205.265625 112.265625 204.117188 112.085938 202.980469 111.933594 L 208.847656 68.109375 C 210.636719 68.347656 212.445312 68.628906 214.21875 68.949219 Z M 116.257812 178.015625 L 72.433594 172.136719 C 72.675781 170.347656 72.957031 168.539062 73.277344 166.765625 L 116.792969 174.597656 C 116.589844 175.730469 116.410156 176.878906 116.257812 178.015625 Z M 182.246094 111.945312 C 181.109375 112.097656 179.957031 112.28125 178.828125 112.488281 L 170.933594 68.980469 C 172.710938 68.660156 174.519531 68.375 176.3125 68.128906 Z M 123.15625 154.929688 L 83.308594 135.769531 C 84.089844 134.140625 84.921875 132.507812 85.78125 130.910156 L 124.722656 151.851562 C 124.179688 152.859375 123.652344 153.894531 123.15625 154.929688 Z M 159.152344 118.878906 C 158.121094 119.378906 157.082031 119.910156 156.074219 120.457031 L 135.078125 81.550781 C 136.675781 80.6875 138.3125 79.851562 139.945312 79.0625 Z M 136.890625 135.113281 L 104.925781 104.566406 C 105.566406 103.894531 106.226562 103.222656 106.886719 102.5625 C 107.5 101.945312 108.128906 101.332031 108.757812 100.730469 L 139.351562 132.652344 C 138.519531 133.449219 137.691406 134.28125 136.890625 135.113281 Z M 136.890625 135.113281 " fill-opacity="1" fill-rule="nonzero"/></g></g></g><g clip-path="url(#68aefe215c)"><g clip-path="url(#79c7e153d7)"><g clip-path="url(#9d9babb2e8)"><path fill="#ffffff" d="M 268.902344 268.046875 Z M 261.429688 83.164062 C 259.773438 82.070312 258.09375 81.015625 256.390625 80 C 254.683594 78.988281 252.957031 78.011719 251.207031 77.078125 C 249.457031 76.140625 247.6875 75.246094 245.898438 74.394531 C 244.105469 73.542969 242.296875 72.730469 240.46875 71.960938 C 238.636719 71.195312 236.792969 70.46875 234.929688 69.785156 C 233.066406 69.101562 231.191406 68.464844 229.296875 67.867188 C 227.40625 67.273438 225.5 66.722656 223.582031 66.214844 C 221.664062 65.707031 219.738281 65.246094 217.796875 64.828125 C 215.859375 64.410156 213.910156 64.039062 211.953125 63.710938 C 209.996094 63.382812 208.035156 63.101562 206.0625 62.867188 C 204.09375 62.632812 202.121094 62.441406 200.140625 62.296875 C 198.164062 62.152344 196.183594 62.054688 194.199219 62.003906 C 192.214844 61.953125 190.230469 61.945312 188.25 61.984375 C 186.265625 62.027344 184.285156 62.113281 182.304688 62.246094 C 180.324219 62.378906 178.351562 62.554688 176.378906 62.78125 C 174.410156 63.003906 172.445312 63.273438 170.484375 63.589844 C 168.527344 63.90625 166.578125 64.265625 164.632812 64.671875 C 162.691406 65.078125 160.761719 65.53125 158.839844 66.023438 C 156.921875 66.519531 155.011719 67.0625 153.117188 67.644531 C 151.21875 68.230469 149.339844 68.859375 147.472656 69.53125 C 145.605469 70.203125 143.757812 70.917969 141.921875 71.675781 C 140.089844 72.433594 138.273438 73.234375 136.480469 74.078125 C 134.683594 74.917969 132.90625 75.800781 131.152344 76.726562 C 129.398438 77.652344 127.664062 78.617188 125.953125 79.621094 C 124.246094 80.628906 122.558594 81.671875 120.898438 82.757812 C 119.234375 83.839844 117.601562 84.960938 115.992188 86.121094 C 114.382812 87.28125 112.800781 88.476562 111.246094 89.710938 C 109.691406 90.945312 108.167969 92.210938 106.671875 93.515625 C 105.175781 94.820312 103.714844 96.160156 102.28125 97.53125 C 100.847656 98.902344 99.449219 100.308594 98.082031 101.746094 C 96.714844 103.183594 95.378906 104.648438 94.082031 106.148438 C 92.78125 107.648438 91.519531 109.175781 90.289062 110.734375 C 89.0625 112.292969 87.871094 113.878906 86.714844 115.492188 C 85.5625 117.105469 84.445312 118.742188 83.367188 120.410156 C 82.289062 122.074219 81.25 123.761719 80.25 125.476562 C 79.25 127.191406 78.289062 128.925781 77.371094 130.683594 C 76.453125 132.441406 75.574219 134.21875 74.738281 136.019531 C 73.902344 137.816406 73.105469 139.636719 72.355469 141.46875 C 71.601562 143.304688 70.894531 145.160156 70.226562 147.027344 C 69.5625 148.894531 68.941406 150.777344 68.363281 152.675781 C 67.785156 154.574219 67.25 156.484375 66.757812 158.40625 C 66.269531 160.328125 65.824219 162.261719 65.425781 164.203125 C 65.027344 166.148438 64.671875 168.097656 64.363281 170.058594 C 64.054688 172.019531 63.789062 173.984375 63.570312 175.957031 C 63.355469 177.925781 63.183594 179.902344 63.054688 181.882812 C 62.929688 183.863281 62.851562 185.84375 62.816406 187.828125 C 62.78125 189.8125 62.792969 191.792969 62.851562 193.777344 C 62.910156 195.761719 63.015625 197.742188 63.164062 199.71875 C 63.316406 201.695312 63.511719 203.671875 63.753906 205.640625 C 63.996094 207.609375 64.285156 209.570312 64.617188 211.527344 C 64.949219 213.480469 65.328125 215.429688 65.753906 217.367188 C 66.175781 219.304688 66.644531 221.230469 67.160156 223.148438 C 67.671875 225.0625 68.230469 226.96875 68.832031 228.855469 C 69.433594 230.746094 70.078125 232.621094 70.765625 234.484375 C 71.457031 236.34375 72.1875 238.1875 72.960938 240.011719 C 73.738281 241.839844 74.554688 243.648438 75.410156 245.433594 C 76.269531 247.222656 77.171875 248.992188 78.109375 250.738281 C 79.050781 252.484375 80.03125 254.207031 81.054688 255.910156 C 82.074219 257.609375 83.132812 259.285156 84.234375 260.9375 C 85.332031 262.589844 86.46875 264.214844 87.640625 265.8125 C 88.816406 267.414062 90.027344 268.984375 91.273438 270.527344 C 92.523438 272.070312 93.804688 273.582031 95.121094 275.0625 C 96.4375 276.546875 97.789062 278 99.175781 279.417969 C 100.5625 280.839844 101.976562 282.226562 103.425781 283.582031 C 104.878906 284.933594 106.355469 286.253906 107.867188 287.539062 C 109.378906 288.828125 110.917969 290.074219 112.488281 291.289062 C 114.058594 292.503906 115.652344 293.679688 117.277344 294.820312 C 118.898438 295.960938 120.550781 297.0625 122.222656 298.125 C 123.898438 299.1875 125.597656 300.210938 127.320312 301.195312 C 129.042969 302.179688 130.785156 303.125 132.554688 304.027344 C 134.320312 304.929688 136.105469 305.792969 137.914062 306.613281 C 139.71875 307.433594 141.542969 308.210938 143.386719 308.945312 C 145.226562 309.679688 147.085938 310.371094 148.960938 311.023438 C 150.835938 311.671875 152.722656 312.277344 154.625 312.835938 C 156.53125 313.398438 158.445312 313.914062 160.371094 314.386719 C 162.296875 314.859375 164.234375 315.285156 166.179688 315.667969 C 168.128906 316.050781 170.082031 316.386719 172.042969 316.679688 C 174.007812 316.96875 175.976562 317.214844 177.949219 317.414062 C 179.921875 317.617188 181.898438 317.769531 183.878906 317.878906 C 185.859375 317.984375 187.84375 318.046875 189.828125 318.0625 C 191.8125 318.078125 193.792969 318.050781 195.777344 317.972656 C 197.757812 317.894531 199.738281 317.773438 201.714844 317.605469 C 203.691406 317.4375 205.664062 317.222656 207.628906 316.964844 C 209.597656 316.703125 211.554688 316.398438 213.507812 316.046875 C 215.460938 315.695312 217.402344 315.300781 219.335938 314.859375 C 221.273438 314.417969 223.195312 313.929688 225.105469 313.402344 C 227.015625 312.871094 228.914062 312.296875 230.800781 311.675781 C 232.683594 311.058594 234.554688 310.394531 236.410156 309.691406 C 238.261719 308.984375 240.097656 308.234375 241.917969 307.445312 C 243.738281 306.652344 245.539062 305.820312 247.316406 304.945312 C 249.097656 304.070312 250.859375 303.15625 252.59375 302.199219 C 254.332031 301.242188 256.046875 300.246094 257.738281 299.210938 C 259.429688 298.171875 261.097656 297.097656 262.738281 295.984375 C 264.382812 294.871094 265.996094 293.71875 267.585938 292.53125 C 269.171875 291.34375 270.730469 290.117188 272.261719 288.855469 C 273.792969 287.59375 275.296875 286.296875 276.765625 284.96875 L 271.972656 280.367188 L 269.554688 278.046875 L 267.167969 275.757812 C 263.058594 279.414062 258.707031 282.757812 254.121094 285.792969 C 251.914062 287.246094 249.660156 288.625 247.359375 289.925781 C 245.851562 290.777344 244.324219 291.597656 242.78125 292.378906 C 239.957031 293.808594 237.082031 295.117188 234.15625 296.304688 C 227.425781 299.027344 220.5 301.09375 213.378906 302.503906 C 213.21875 302.539062 213.058594 302.570312 212.894531 302.601562 C 211.355469 302.898438 209.804688 303.167969 208.25 303.402344 C 197.867188 304.972656 187.464844 305.125 177.042969 303.851562 C 175.3125 303.636719 173.585938 303.386719 171.867188 303.097656 C 170.945312 302.945312 170.027344 302.777344 169.113281 302.601562 C 161.824219 301.1875 154.738281 299.089844 147.855469 296.300781 C 145.867188 295.496094 143.898438 294.632812 141.953125 293.710938 C 140.375 292.964844 138.8125 292.179688 137.269531 291.359375 C 134.054688 289.65625 130.917969 287.796875 127.886719 285.792969 C 122.144531 282 116.789062 277.722656 111.8125 272.96875 C 111.171875 272.359375 110.535156 271.738281 109.90625 271.109375 C 109.300781 270.503906 108.699219 269.886719 108.105469 269.269531 C 103.328125 264.273438 99.03125 258.898438 95.222656 253.132812 C 93.238281 250.125 91.390625 247.015625 89.695312 243.828125 C 88.875 242.28125 88.089844 240.714844 87.335938 239.132812 C 86.40625 237.167969 85.53125 235.175781 84.714844 233.164062 C 81.929688 226.28125 79.828125 219.191406 78.417969 211.902344 C 78.246094 211.003906 78.082031 210.109375 77.929688 209.210938 C 77.636719 207.492188 77.386719 205.765625 77.179688 204.03125 C 75.898438 193.609375 76.042969 183.207031 77.609375 172.824219 C 77.851562 171.25 78.121094 169.683594 78.421875 168.117188 L 78.503906 167.699219 C 79.914062 160.558594 81.984375 153.613281 84.714844 146.867188 C 85.890625 143.96875 87.1875 141.117188 88.601562 138.316406 C 89.382812 136.773438 90.195312 135.25 91.046875 133.742188 C 92.359375 131.410156 93.75 129.128906 95.222656 126.898438 C 99.457031 120.492188 104.28125 114.570312 109.699219 109.128906 L 109.910156 108.917969 C 111.050781 107.777344 112.210938 106.664062 113.398438 105.574219 C 120.992188 98.578125 129.375 92.71875 138.554688 87.996094 C 140.074219 87.214844 141.613281 86.464844 143.167969 85.753906 C 144.726562 85.039062 146.285156 84.363281 147.855469 83.726562 C 154.738281 80.9375 161.824219 78.839844 169.113281 77.425781 C 170.191406 77.21875 171.273438 77.023438 172.359375 76.847656 C 174.03125 76.574219 175.707031 76.335938 177.394531 76.136719 C 187.519531 74.929688 197.628906 75.070312 207.71875 76.546875 C 209.386719 76.792969 211.050781 77.074219 212.703125 77.390625 C 212.765625 77.402344 212.828125 77.414062 212.894531 77.425781 C 220.183594 78.839844 227.269531 80.9375 234.152344 83.726562 C 236.597656 84.71875 239.011719 85.796875 241.390625 86.960938 C 242.902344 87.699219 244.398438 88.472656 245.875 89.28125 C 248.695312 90.816406 251.441406 92.46875 254.117188 94.234375 C 258.597656 97.195312 262.847656 100.453125 266.871094 104.007812 L 276.265625 94.609375 C 271.601562 90.433594 266.652344 86.617188 261.429688 83.164062 Z M 227.976562 114.875 C 221.363281 111.632812 214.445312 109.304688 207.21875 107.890625 C 206.019531 107.65625 204.8125 107.445312 203.605469 107.261719 C 196.273438 106.15625 188.921875 106.019531 181.554688 106.847656 C 180.332031 106.988281 179.109375 107.152344 177.886719 107.34375 C 170.519531 108.5 163.433594 110.601562 156.632812 113.652344 C 155.5 114.160156 154.378906 114.695312 153.265625 115.257812 C 146.542969 118.644531 140.394531 122.863281 134.816406 127.921875 C 133.890625 128.765625 132.980469 129.628906 132.078125 130.515625 C 131.984375 130.613281 131.886719 130.707031 131.792969 130.800781 C 126.519531 136.074219 122.03125 141.941406 118.328125 148.414062 C 117.699219 149.511719 117.097656 150.621094 116.523438 151.738281 C 113.03125 158.546875 110.523438 165.699219 109 173.199219 C 108.746094 174.445312 108.519531 175.695312 108.320312 176.953125 C 107.128906 184.578125 106.984375 192.21875 107.886719 199.882812 C 108.035156 201.15625 108.214844 202.425781 108.421875 203.691406 C 109.675781 211.335938 111.949219 218.667969 115.238281 225.679688 C 115.78125 226.839844 116.355469 227.988281 116.957031 229.128906 C 120.585938 236 125.085938 242.246094 130.460938 247.859375 C 130.898438 248.320312 131.34375 248.773438 131.792969 249.222656 C 132.257812 249.6875 132.726562 250.148438 133.203125 250.597656 C 138.820312 255.96875 145.070312 260.46875 151.945312 264.089844 C 153.082031 264.691406 154.230469 265.261719 155.390625 265.800781 C 162.402344 269.085938 169.730469 271.355469 177.375 272.601562 C 178.640625 272.808594 179.90625 272.988281 181.179688 273.136719 C 188.84375 274.03125 196.488281 273.882812 204.113281 272.683594 C 205.371094 272.484375 206.625 272.257812 207.875 272.003906 C 215.371094 270.476562 222.527344 267.964844 229.335938 264.46875 C 230.457031 263.890625 231.566406 263.289062 232.667969 262.65625 C 236.941406 260.207031 240.964844 257.402344 244.738281 254.238281 L 239.929688 249.621094 L 237.550781 247.335938 L 235.101562 244.988281 C 207.453125 267.199219 166.8125 265.484375 141.175781 239.84375 C 113.699219 212.367188 113.699219 167.660156 141.175781 140.183594 C 166.941406 114.417969 207.855469 112.816406 235.507812 135.371094 L 244.929688 125.949219 C 240.671875 122.359375 236.101562 119.230469 231.214844 116.558594 C 230.144531 115.972656 229.066406 115.410156 227.976562 114.875 Z M 227.976562 114.875 " fill-opacity="1" fill-rule="nonzero"/></g></g></g><g clip-path="url(#6ededd2e36)"><g clip-path="url(#d73f6ee5ab)"><g clip-path="url(#8c0a8c6726)"><path fill="#231f20" d="M 263.898438 283.660156 L 265.539062 285.757812 L 267.164062 287.839844 C 268.34375 286.917969 269.527344 285.960938 270.671875 285 L 268.972656 282.972656 L 267.257812 280.933594 C 266.164062 281.859375 265.03125 282.777344 263.898438 283.660156 Z M 256.3125 289.113281 C 256.023438 289.304688 255.738281 289.492188 255.449219 289.679688 L 256.902344 291.921875 L 258.335938 294.128906 C 258.636719 293.9375 258.9375 293.738281 259.234375 293.542969 C 260.1875 292.914062 261.140625 292.261719 262.082031 291.605469 L 260.566406 289.445312 L 259.035156 287.261719 C 258.136719 287.890625 257.222656 288.515625 256.3125 289.113281 Z M 249.246094 293.429688 C 248.339844 293.941406 247.417969 294.441406 246.503906 294.925781 L 247.414062 296.644531 L 247.761719 297.296875 L 248.988281 299.617188 C 250.3125 298.917969 251.644531 298.183594 252.941406 297.433594 L 251.628906 295.15625 L 250.289062 292.835938 C 249.941406 293.035156 249.59375 293.234375 249.242188 293.433594 Z M 237.128906 299.375 L 238.171875 301.851562 L 239.191406 304.265625 C 240.570312 303.683594 241.960938 303.066406 243.320312 302.433594 L 242.214844 300.058594 L 241.082031 297.621094 C 239.78125 298.226562 238.449219 298.820312 237.128906 299.375 Z M 227.398438 302.980469 L 228.226562 305.546875 L 229.023438 308.03125 C 230.453125 307.570312 231.890625 307.082031 233.296875 306.570312 L 232.410156 304.113281 L 231.492188 301.578125 C 230.144531 302.070312 228.765625 302.542969 227.398438 302.980469 Z M 268.902344 268.046875 Z M 217.390625 305.722656 L 217.988281 308.359375 L 218.566406 310.898438 C 220.027344 310.5625 221.5 310.203125 222.953125 309.816406 L 222.28125 307.296875 L 221.589844 304.6875 C 220.203125 305.054688 218.789062 305.402344 217.390625 305.722656 Z M 208.777344 307.347656 C 208.246094 307.429688 207.710938 307.507812 207.179688 307.578125 L 207.546875 310.265625 L 207.902344 312.835938 C 209.390625 312.632812 210.890625 312.398438 212.367188 312.140625 L 211.925781 309.582031 L 211.679688 308.179688 L 211.460938 306.914062 C 210.570312 307.066406 209.679688 307.210938 208.78125 307.34375 Z M 196.847656 308.539062 L 196.984375 311.25 L 197.109375 313.832031 C 198.605469 313.757812 200.121094 313.65625 201.617188 313.53125 L 201.394531 310.945312 L 201.164062 308.242188 C 199.734375 308.367188 198.28125 308.464844 196.847656 308.535156 Z M 186.46875 308.597656 L 186.367188 311.316406 L 186.269531 313.898438 C 187.769531 313.957031 189.289062 313.984375 190.785156 313.988281 L 190.789062 311.402344 L 190.796875 308.679688 C 189.363281 308.675781 187.910156 308.648438 186.472656 308.59375 Z M 176.511719 307.800781 L 176.128906 307.75 L 176.03125 308.527344 L 175.789062 310.457031 L 175.46875 313.015625 C 176.953125 313.203125 178.464844 313.363281 179.960938 313.496094 L 180.191406 310.921875 L 180.429688 308.207031 C 179.128906 308.09375 177.8125 307.953125 176.511719 307.792969 Z M 233.511719 251.148438 L 235.039062 253.339844 L 236.542969 255.503906 C 237.789062 254.632812 239.027344 253.722656 240.222656 252.785156 L 238.589844 250.707031 L 236.945312 248.609375 C 235.828125 249.480469 234.675781 250.335938 233.511719 251.144531 Z M 224.730469 256.398438 L 225.945312 258.789062 L 227.132812 261.128906 C 227.289062 261.050781 227.445312 260.96875 227.605469 260.886719 C 228.671875 260.335938 229.734375 259.757812 230.777344 259.160156 C 230.902344 259.089844 231.023438 259.015625 231.148438 258.945312 L 229.824219 256.671875 L 228.480469 254.359375 C 227.257812 255.0625 225.996094 255.75 224.730469 256.394531 Z M 215.316406 260.378906 L 216.191406 262.925781 L 217.039062 265.398438 C 218.472656 264.90625 219.910156 264.367188 221.3125 263.792969 L 220.320312 261.371094 L 219.300781 258.882812 C 217.996094 259.410156 216.65625 259.914062 215.316406 260.375 Z M 168.355469 306.511719 C 167.539062 306.355469 166.714844 306.183594 165.898438 306.011719 L 165.320312 308.683594 L 164.777344 311.1875 C 165.628906 311.371094 166.492188 311.550781 167.347656 311.714844 C 167.964844 311.832031 168.589844 311.949219 169.210938 312.0625 L 169.667969 309.527344 L 170.144531 306.835938 C 169.550781 306.734375 168.949219 306.621094 168.355469 306.507812 Z M 205.4375 263.027344 L 205.695312 264.347656 L 205.957031 265.679688 L 206.457031 268.234375 C 206.691406 268.1875 206.925781 268.140625 207.164062 268.089844 C 208.417969 267.835938 209.675781 267.542969 210.914062 267.226562 L 210.265625 264.703125 L 209.597656 262.085938 C 208.226562 262.4375 206.828125 262.753906 205.4375 263.027344 Z M 195.277344 264.304688 L 195.4375 267.015625 L 195.585938 269.601562 C 197.097656 269.515625 198.632812 269.382812 200.136719 269.210938 L 199.839844 266.632812 L 199.535156 263.9375 C 198.125 264.101562 196.695312 264.226562 195.277344 264.304688 Z M 155.859375 303.375 L 155.050781 305.988281 L 154.292969 308.441406 C 155.726562 308.886719 157.183594 309.304688 158.632812 309.699219 L 159.300781 307.214844 L 160.011719 304.574219 C 158.628906 304.203125 157.230469 303.800781 155.859375 303.375 Z M 185.039062 264.1875 L 184.824219 266.90625 L 184.617188 269.476562 C 186.132812 269.597656 187.667969 269.679688 189.183594 269.710938 L 189.242188 267.128906 L 189.304688 264.40625 C 187.890625 264.375 186.453125 264.304688 185.042969 264.191406 Z M 146.359375 299.988281 L 146.09375 299.878906 L 145.058594 302.417969 L 144.085938 304.792969 L 144.367188 304.90625 C 145.660156 305.429688 146.984375 305.941406 148.300781 306.421875 L 149.183594 304.011719 L 150.128906 301.441406 C 148.863281 300.980469 147.597656 300.492188 146.359375 299.988281 Z M 174.910156 262.683594 L 174.328125 265.347656 L 173.773438 267.863281 C 175.195312 268.175781 176.644531 268.449219 178.082031 268.683594 L 178.265625 268.710938 L 178.671875 266.167969 L 178.984375 264.230469 L 179.105469 263.476562 C 177.707031 263.253906 176.292969 262.988281 174.910156 262.683594 Z M 140.230469 297.296875 C 139.042969 296.734375 137.84375 296.144531 136.671875 295.539062 L 136.484375 295.902344 L 135.410156 297.972656 L 134.238281 300.25 C 135.570312 300.9375 136.9375 301.609375 138.292969 302.246094 L 139.382812 299.925781 L 140.546875 297.445312 Z M 165.082031 259.800781 L 164.132812 262.375 L 163.246094 264.78125 C 164.667969 265.308594 166.128906 265.800781 167.582031 266.242188 L 168.335938 263.785156 L 169.132812 261.167969 C 167.773438 260.75 166.410156 260.292969 165.082031 259.800781 Z M 127.664062 290.386719 L 126.199219 292.707031 L 124.828125 294.871094 C 126.097656 295.671875 127.394531 296.460938 128.695312 297.214844 L 129.980469 295 L 131.359375 292.628906 C 130.121094 291.90625 128.875 291.152344 127.664062 290.386719 Z M 155.738281 255.589844 L 154.441406 258.007812 L 153.230469 260.265625 C 153.429688 260.375 153.628906 260.480469 153.832031 260.585938 C 154.910156 261.15625 156.011719 261.703125 157.117188 262.21875 C 157.1875 262.25 157.257812 262.28125 157.328125 262.316406 L 158.40625 259.988281 L 159.5625 257.503906 C 158.277344 256.910156 156.988281 256.261719 155.738281 255.589844 Z M 119.148438 284.460938 L 117.480469 286.648438 L 115.929688 288.679688 C 117.125 289.589844 118.347656 290.492188 119.570312 291.355469 L 121.046875 289.265625 L 122.632812 287.019531 C 121.460938 286.195312 120.289062 285.332031 119.148438 284.460938 Z M 147.082031 250.136719 L 145.460938 252.355469 L 143.949219 254.417969 C 145.179688 255.316406 146.445312 256.1875 147.71875 257.011719 L 149.105469 254.863281 L 150.597656 252.554688 C 149.410156 251.785156 148.226562 250.972656 147.082031 250.136719 Z M 111.175781 277.816406 L 109.328125 279.847656 L 107.609375 281.738281 C 108.714844 282.746094 109.859375 283.75 111.003906 284.71875 L 112.65625 282.765625 L 114.433594 280.667969 C 113.332031 279.742188 112.238281 278.78125 111.175781 277.816406 Z M 139.257812 243.539062 L 139.050781 243.753906 L 137.347656 245.515625 L 135.566406 247.351562 C 135.691406 247.480469 135.820312 247.601562 135.949219 247.722656 C 136.925781 248.648438 137.925781 249.5625 138.941406 250.4375 L 140.609375 248.5 L 142.40625 246.417969 C 141.335938 245.496094 140.277344 244.527344 139.257812 243.539062 Z M 101.789062 272.371094 L 99.914062 274.105469 C 100.929688 275.207031 101.984375 276.300781 103.035156 277.367188 L 104.851562 275.5625 L 106.589844 273.835938 L 106.800781 273.628906 C 106.273438 273.101562 105.75 272.558594 105.230469 272.019531 C 104.753906 271.515625 104.277344 271.011719 103.808594 270.503906 Z M 130.238281 237.632812 L 128.226562 239.214844 C 129.160156 240.40625 130.144531 241.589844 131.148438 242.726562 L 133.066406 241.035156 L 135.128906 239.222656 C 134.191406 238.160156 133.273438 237.054688 132.402344 235.945312 Z M 271.667969 95.871094 L 269.878906 97.957031 L 268.210938 99.898438 C 268.707031 100.320312 269.199219 100.753906 269.691406 101.1875 L 273.449219 97.429688 C 272.859375 96.902344 272.265625 96.382812 271.667969 95.871094 Z M 235.839844 124.042969 L 234.292969 126.316406 L 232.855469 128.429688 C 234.027344 129.226562 235.1875 130.070312 236.3125 130.929688 L 237.871094 128.902344 L 239.542969 126.722656 C 238.339844 125.800781 237.09375 124.898438 235.839844 124.042969 Z M 94.929688 264.269531 L 92.90625 265.835938 C 93.824219 267.019531 94.773438 268.203125 95.738281 269.355469 L 97.703125 267.71875 L 99.816406 265.953125 C 98.894531 264.851562 97.980469 263.714844 97.105469 262.582031 Z M 124.277344 228.855469 L 122.0625 230.144531 C 122.828125 231.453125 123.640625 232.761719 124.476562 234.027344 L 126.613281 232.613281 L 128.902344 231.097656 C 128.121094 229.917969 127.363281 228.699219 126.652344 227.472656 Z M 263.140625 89.179688 L 261.535156 91.410156 L 260.046875 93.488281 C 261.210938 94.324219 262.375 95.191406 263.511719 96.070312 L 265.078125 94.046875 L 266.761719 91.875 C 265.578125 90.957031 264.359375 90.046875 263.144531 89.175781 Z M 229.328125 120.066406 C 228.351562 119.527344 227.355469 119.011719 226.363281 118.523438 L 226.183594 118.882812 L 225.148438 120.980469 L 224.015625 123.277344 C 225.285156 123.90625 226.550781 124.578125 227.785156 125.277344 L 229.046875 123.050781 L 230.402344 120.664062 C 230.046875 120.460938 229.691406 120.261719 229.332031 120.0625 Z M 88.804688 255.597656 L 86.652344 256.980469 C 86.921875 257.402344 87.199219 257.828125 87.476562 258.246094 C 88.023438 259.074219 88.59375 259.917969 89.164062 260.738281 L 91.265625 259.273438 L 93.519531 257.707031 C 92.972656 256.921875 92.429688 256.117188 91.902344 255.320312 C 91.636719 254.921875 91.371094 254.515625 91.113281 254.109375 Z M 119.601562 219.339844 L 117.226562 220.308594 C 117.726562 221.53125 118.261719 222.753906 118.824219 223.953125 C 118.90625 224.128906 118.992188 224.308594 119.074219 224.484375 L 121.386719 223.378906 L 123.460938 222.386719 L 123.863281 222.195312 C 123.253906 220.917969 122.671875 219.609375 122.136719 218.300781 Z M 254.0625 83.253906 L 252.664062 85.613281 L 251.363281 87.816406 C 252.597656 88.546875 253.835938 89.308594 255.042969 90.082031 L 256.425781 87.929688 L 257.910156 85.621094 C 256.648438 84.8125 255.355469 84.015625 254.0625 83.253906 Z M 216.207031 114.355469 L 215.347656 116.953125 L 214.539062 119.386719 C 215.882812 119.835938 217.234375 120.324219 218.550781 120.847656 L 219.5 118.464844 L 220.507812 115.917969 C 219.097656 115.359375 217.652344 114.832031 216.207031 114.355469 Z M 85.539062 245.332031 L 83.464844 246.417969 L 81.195312 247.609375 C 81.894531 248.933594 82.625 250.269531 83.367188 251.570312 L 85.589844 250.296875 L 87.972656 248.933594 C 87.363281 247.875 86.765625 246.792969 86.191406 245.710938 C 86.089844 245.519531 85.988281 245.332031 85.886719 245.136719 Z M 116.277344 209.269531 L 113.785156 209.90625 C 114.160156 211.375 114.589844 212.855469 115.046875 214.292969 L 117.496094 213.515625 L 120.101562 212.6875 C 119.671875 211.339844 119.277344 209.960938 118.925781 208.589844 Z M 244.496094 78.148438 L 243.3125 80.621094 L 242.207031 82.933594 C 242.507812 83.078125 242.808594 83.226562 243.109375 83.371094 C 244.105469 83.859375 245.097656 84.359375 246.070312 84.871094 L 247.261719 82.601562 L 248.347656 80.527344 L 248.535156 80.171875 C 247.207031 79.476562 245.847656 78.796875 244.496094 78.148438 Z M 206.515625 111.804688 C 206.203125 111.742188 205.890625 111.683594 205.578125 111.625 L 205.453125 112.304688 L 205.082031 114.308594 L 204.617188 116.84375 C 206.011719 117.101562 207.417969 117.402344 208.792969 117.738281 L 209.402344 115.242188 L 210.050781 112.582031 C 208.886719 112.300781 207.703125 112.039062 206.515625 111.804688 Z M 78.953125 236.8125 L 76.585938 237.800781 C 77.164062 239.183594 77.777344 240.578125 78.40625 241.941406 L 80.730469 240.863281 L 83.21875 239.714844 C 82.617188 238.410156 82.035156 237.078125 81.480469 235.753906 Z M 114.363281 198.835938 L 111.804688 199.128906 C 111.8125 199.203125 111.820312 199.277344 111.828125 199.351562 C 111.96875 200.5625 112.140625 201.78125 112.335938 202.984375 C 112.375 203.210938 112.410156 203.433594 112.449219 203.652344 L 114.988281 203.214844 L 117.679688 202.753906 C 117.4375 201.359375 117.238281 199.933594 117.074219 198.527344 Z M 237.644531 75.121094 C 236.613281 74.707031 235.566406 74.296875 234.523438 73.90625 L 233.5625 76.472656 L 232.664062 78.875 C 233.664062 79.25 234.664062 79.640625 235.648438 80.039062 C 235.992188 80.179688 236.339844 80.320312 236.683594 80.464844 L 237.671875 78.097656 L 238.726562 75.566406 C 238.363281 75.417969 238.003906 75.269531 237.640625 75.121094 Z M 194.6875 110.378906 L 194.5625 113.097656 L 194.445312 115.679688 C 195.863281 115.742188 197.292969 115.851562 198.703125 115.996094 L 198.96875 113.429688 L 199.246094 110.71875 C 197.734375 110.5625 196.203125 110.449219 194.6875 110.378906 Z M 75.300781 226.84375 L 72.855469 227.621094 C 73.308594 229.050781 73.792969 230.488281 74.300781 231.898438 L 76.714844 231.035156 L 79.292969 230.113281 C 78.808594 228.761719 78.34375 227.382812 77.910156 226.015625 Z M 113.894531 188.238281 L 111.308594 188.179688 C 111.269531 189.691406 111.277344 191.230469 111.332031 192.746094 L 113.910156 192.660156 L 116.632812 192.566406 C 116.582031 191.148438 116.574219 189.710938 116.613281 188.292969 Z M 183.730469 110.628906 L 183.976562 113.328125 L 184.210938 115.910156 C 185.621094 115.785156 187.054688 115.695312 188.46875 115.648438 L 188.382812 113.058594 L 188.292969 110.339844 C 186.769531 110.390625 185.238281 110.488281 183.726562 110.625 Z M 224.210938 70.554688 L 223.480469 73.191406 L 222.792969 75.667969 C 224.175781 76.050781 225.574219 76.464844 226.941406 76.898438 L 227.714844 74.453125 L 228.539062 71.839844 C 227.113281 71.390625 225.65625 70.957031 224.210938 70.554688 Z M 116.273438 177.894531 L 114.867188 177.667969 L 112.304688 177.253906 L 112.269531 177.484375 C 112.042969 178.90625 111.855469 180.355469 111.710938 181.792969 L 114.289062 182.058594 L 116.988281 182.335938 C 117.132812 180.925781 117.320312 179.5 117.546875 178.101562 Z M 72.535156 216.589844 L 70.023438 217.152344 C 70.351562 218.613281 70.710938 220.089844 71.089844 221.542969 L 73.578125 220.890625 L 76.222656 220.195312 C 75.859375 218.808594 75.515625 217.394531 75.203125 215.992188 Z M 172.902344 112.355469 L 173.511719 114.988281 L 174.101562 117.527344 C 175.480469 117.207031 176.886719 116.925781 178.28125 116.683594 L 177.839844 114.125 L 177.382812 111.457031 C 175.886719 111.714844 174.378906 112.019531 172.90625 112.359375 Z M 214.65625 68.308594 C 214.320312 68.242188 213.980469 68.179688 213.644531 68.117188 L 213.511719 68.824219 L 213.148438 70.804688 L 212.675781 73.335938 C 212.917969 73.382812 213.160156 73.425781 213.402344 73.472656 C 213.480469 73.488281 213.558594 73.507812 213.644531 73.519531 C 214.730469 73.730469 215.832031 73.957031 216.914062 74.199219 L 217.472656 71.691406 L 218.070312 69.023438 C 216.945312 68.769531 215.792969 68.53125 214.660156 68.308594 Z M 117.277344 167.332031 L 114.785156 166.570312 C 114.34375 168.023438 113.933594 169.507812 113.570312 170.984375 L 116.101562 171.601562 L 118.726562 172.242188 C 119.0625 170.863281 119.445312 169.480469 119.859375 168.121094 Z M 162.425781 115.554688 L 163.382812 118.070312 L 164.320312 120.511719 C 165.640625 120.007812 166.992188 119.535156 168.339844 119.105469 L 167.550781 116.621094 L 166.734375 114.050781 C 165.289062 114.507812 163.839844 115.015625 162.425781 115.554688 Z M 121.085938 157.421875 L 118.710938 156.316406 C 118.070312 157.695312 117.460938 159.109375 116.898438 160.523438 L 119.332031 161.488281 L 121.832031 162.480469 C 122.355469 161.160156 122.921875 159.839844 123.519531 158.554688 Z M 72.617188 205.882812 L 70.679688 206.140625 L 68.125 206.484375 C 68.324219 207.972656 68.550781 209.472656 68.800781 210.949219 L 71.339844 210.519531 L 74.03125 210.058594 L 74.011719 209.925781 C 73.777344 208.554688 73.566406 207.160156 73.382812 205.785156 Z M 155.160156 118.761719 C 154.257812 119.214844 153.359375 119.683594 152.480469 120.167969 L 153.773438 122.515625 L 155.039062 124.816406 C 156.28125 124.132812 157.554688 123.480469 158.832031 122.867188 L 157.699219 120.5 L 157.351562 119.777344 L 156.542969 118.078125 C 156.082031 118.300781 155.621094 118.527344 155.160156 118.761719 Z M 126.226562 148.144531 L 124.015625 146.714844 C 123.257812 147.882812 122.523438 149.085938 121.832031 150.296875 C 121.769531 150.40625 121.707031 150.515625 121.644531 150.625 L 123.929688 151.921875 L 124.507812 152.25 L 126.253906 153.246094 C 126.953125 152.015625 127.699219 150.789062 128.464844 149.601562 Z M 202.914062 66.613281 L 202.652344 69.328125 L 202.40625 71.894531 C 203.835938 72.035156 205.28125 72.199219 206.703125 72.386719 L 207.039062 69.832031 L 207.398438 67.125 C 205.914062 66.929688 204.40625 66.757812 202.914062 66.613281 Z M 143.265625 126.113281 L 144.863281 128.25 L 146.445312 130.363281 C 147.578125 129.515625 148.75 128.6875 149.933594 127.90625 L 148.480469 125.710938 L 147.003906 123.484375 C 145.738281 124.320312 144.480469 125.203125 143.265625 126.113281 Z M 132.59375 139.671875 L 130.589844 137.941406 C 129.597656 139.089844 128.625 140.28125 127.703125 141.484375 L 129.796875 143.09375 L 131.910156 144.71875 C 132.773438 143.59375 133.679688 142.484375 134.605469 141.410156 Z M 137.574219 130.796875 C 136.6875 131.601562 135.808594 132.429688 134.960938 133.269531 L 138.6875 137.042969 C 139.695312 136.046875 140.75 135.066406 141.808594 134.128906 L 140.058594 132.144531 L 138.300781 130.148438 C 138.058594 130.363281 137.816406 130.578125 137.574219 130.796875 Z M 69.742188 195.566406 L 67.164062 195.6875 C 67.230469 197.183594 67.328125 198.699219 67.449219 200.195312 L 70.023438 199.984375 L 72.734375 199.757812 C 72.621094 198.328125 72.527344 196.878906 72.464844 195.441406 Z M 192.089844 66.042969 L 192.0625 68.769531 L 192.042969 71.355469 C 193.472656 71.367188 194.929688 71.40625 196.363281 71.46875 L 196.480469 68.890625 L 196.605469 66.171875 C 195.105469 66.101562 193.585938 66.0625 192.089844 66.046875 Z M 69.730469 184.953125 L 67.140625 184.84375 C 67.078125 186.34375 67.042969 187.863281 67.03125 189.363281 L 69.617188 189.378906 L 72.335938 189.390625 C 72.34375 187.957031 72.378906 186.503906 72.4375 185.066406 Z M 181.253906 66.421875 L 181.46875 69.128906 L 181.671875 71.710938 C 183.105469 71.597656 184.558594 71.507812 185.988281 71.449219 L 185.878906 68.867188 L 185.765625 66.152344 C 184.265625 66.214844 182.75 66.308594 181.253906 66.425781 Z M 70.636719 174.378906 L 68.058594 174.046875 C 67.871094 175.53125 67.699219 177.046875 67.566406 178.539062 L 70.148438 178.777344 L 72.851562 179.027344 C 72.984375 177.597656 73.144531 176.152344 73.328125 174.730469 Z M 170.496094 67.742188 L 170.941406 70.414062 L 171.367188 72.976562 C 171.460938 72.960938 171.554688 72.945312 171.644531 72.929688 C 172.96875 72.710938 174.3125 72.511719 175.648438 72.339844 L 175.3125 69.769531 L 175.121094 68.296875 L 174.964844 67.078125 C 173.476562 67.273438 171.972656 67.496094 170.496094 67.742188 Z M 72.460938 163.921875 L 69.917969 163.363281 C 69.703125 164.359375 69.492188 165.363281 69.304688 166.359375 C 69.210938 166.835938 69.121094 167.316406 69.03125 167.796875 L 71.589844 168.261719 L 72.980469 168.515625 L 74.253906 168.742188 C 74.335938 168.285156 74.421875 167.824219 74.511719 167.367188 L 74.582031 167 C 74.746094 166.167969 74.917969 165.335938 75.101562 164.503906 Z M 159.894531 69.992188 L 160.570312 72.609375 L 161.21875 75.132812 C 162.609375 74.769531 164.023438 74.433594 165.425781 74.125 L 164.867188 71.585938 L 164.285156 68.941406 C 162.824219 69.265625 161.34375 69.617188 159.890625 69.996094 Z M 75.191406 153.667969 L 72.703125 152.890625 C 72.257812 154.320312 71.828125 155.78125 71.433594 157.226562 L 73.949219 157.914062 L 76.550781 158.628906 C 76.933594 157.246094 77.339844 155.847656 77.765625 154.476562 Z M 149.527344 73.160156 L 150.429688 75.699219 L 151.300781 78.160156 C 152.652344 77.683594 154.03125 77.222656 155.402344 76.792969 L 154.621094 74.304688 L 153.816406 71.734375 C 152.378906 72.183594 150.9375 72.664062 149.527344 73.160156 Z M 78.8125 143.691406 L 76.394531 142.691406 C 76.300781 142.917969 76.207031 143.144531 76.117188 143.375 C 75.648438 144.53125 75.183594 145.722656 74.746094 146.902344 L 77.199219 147.808594 L 79.722656 148.742188 C 80.140625 147.613281 80.582031 146.476562 81.03125 145.367188 C 81.121094 145.152344 81.210938 144.933594 81.296875 144.714844 Z M 139.476562 77.226562 L 140.59375 79.671875 L 141.683594 82.054688 C 142.988281 81.457031 144.324219 80.875 145.648438 80.328125 L 144.648438 77.910156 L 143.621094 75.425781 C 142.238281 75.996094 140.84375 76.605469 139.476562 77.230469 Z M 83.96875 134.421875 L 83.292969 134.070312 L 80.960938 132.863281 C 80.269531 134.195312 79.59375 135.558594 78.953125 136.910156 L 81.324219 138.03125 L 83.75 139.183594 C 84.160156 138.316406 84.582031 137.449219 85.019531 136.589844 C 85.234375 136.160156 85.453125 135.734375 85.671875 135.308594 Z M 129.824219 82.160156 L 131.148438 84.492188 L 132.445312 86.773438 C 133.691406 86.066406 134.972656 85.375 136.242188 84.710938 L 135.03125 82.382812 L 133.792969 80.003906 C 132.460938 80.699219 131.125 81.425781 129.820312 82.164062 Z M 88.601562 124.882812 L 86.382812 123.46875 C 85.578125 124.734375 84.785156 126.03125 84.027344 127.328125 L 86.292969 128.65625 L 88.601562 130.011719 C 89.328125 128.773438 90.085938 127.53125 90.859375 126.320312 Z M 122.773438 86.484375 C 122.0625 86.953125 121.34375 87.4375 120.640625 87.921875 L 122.160156 90.121094 L 123.65625 92.289062 C 124.332031 91.824219 125.015625 91.359375 125.699219 90.910156 C 126.210938 90.570312 126.738281 90.230469 127.257812 89.898438 L 125.84375 87.679688 L 124.40625 85.425781 C 123.859375 85.773438 123.308594 86.132812 122.769531 86.484375 Z M 94.699219 116.199219 L 92.601562 114.59375 C 91.6875 115.78125 90.785156 117.003906 89.917969 118.222656 L 92.066406 119.75 L 94.242188 121.296875 C 95.074219 120.128906 95.9375 118.960938 96.8125 117.820312 Z M 112 94.46875 L 113.699219 96.519531 L 115.386719 98.554688 C 116.492188 97.640625 117.628906 96.730469 118.765625 95.859375 L 117.15625 93.765625 L 115.53125 91.652344 C 114.339844 92.566406 113.152344 93.515625 111.996094 94.472656 Z M 101.527344 108.082031 L 99.574219 106.292969 C 98.558594 107.398438 97.554688 108.535156 96.582031 109.675781 L 98.59375 111.394531 L 100.621094 113.121094 C 101.550781 112.027344 102.515625 110.9375 103.484375 109.878906 Z M 103.960938 101.738281 L 105.824219 103.628906 L 105.832031 103.632812 L 107.6875 105.519531 C 108.652344 104.566406 109.648438 103.617188 110.648438 102.695312 L 110.820312 102.539062 L 109.03125 100.585938 L 107.238281 98.628906 C 106.125 99.640625 105.023438 100.6875 103.957031 101.742188 Z M 103.960938 101.738281 " fill-opacity="1" fill-rule="nonzero"/></g></g></g><g clip-path="url(#7a5595a664)"><g clip-path="url(#a638a512f8)"><g clip-path="url(#01e8a67a96)"><path fill="#36d309" d="M 268.863281 268.007812 L 268.902344 268.046875 Z M 268.863281 268.007812 " fill-opacity="1" fill-rule="nonzero"/></g></g></g><g fill="#ffffff" fill-opacity="1"><g transform="translate(144.109418, 232.575452)"><g><path d="M 45 1.1875 C 37.414062 1.1875 30.734375 -0.390625 24.953125 -3.546875 C 19.171875 -6.703125 14.644531 -11.441406 11.375 -17.765625 C 8.113281 -24.097656 6.484375 -31.898438 6.484375 -41.171875 C 6.484375 -50.453125 8.113281 -58.253906 11.375 -64.578125 C 14.644531 -70.910156 19.171875 -75.648438 24.953125 -78.796875 C 30.734375 -81.953125 37.414062 -83.53125 45 -83.53125 C 52.925781 -83.53125 59.65625 -81.976562 65.1875 -78.875 C 70.726562 -75.78125 74.6875 -71.0625 77.0625 -64.71875 L 65.171875 -57.453125 L 63.765625 -57.515625 C 61.992188 -61.796875 59.597656 -64.863281 56.578125 -66.71875 C 53.554688 -68.582031 49.695312 -69.515625 45 -69.515625 C 38.164062 -69.515625 32.832031 -67.25 29 -62.71875 C 25.175781 -58.195312 23.265625 -51.015625 23.265625 -41.171875 C 23.265625 -31.367188 25.175781 -24.207031 29 -19.6875 C 32.832031 -15.164062 38.164062 -12.90625 45 -12.90625 C 55.707031 -12.90625 62.265625 -18.101562 64.671875 -28.5 L 66.078125 -28.5 L 78.078125 -22.25 C 75.816406 -14.4375 71.960938 -8.578125 66.515625 -4.671875 C 61.078125 -0.765625 53.90625 1.1875 45 1.1875 Z M 45 1.1875 "/></g></g></g></svg>