<svg xmlns="http://www.w3.org/2000/svg" xmlns:xlink="http://www.w3.org/1999/xlink" width="500" zoomAndPan="magnify" viewBox="0 0 375 374.999991" height="500" preserveAspectRatio="xMidYMid meet" version="1.0"><defs><g/><clipPath id="62dee9135c"><path d="M 268 268 L 270 268 L 270 269 L 268 269 Z M 268 268 " clip-rule="nonzero"/></clipPath><clipPath id="afecc991db"><path d="M 3.261719 186.605469 L 185.695312 4.171875 L 371.839844 190.316406 L 189.40625 372.75 Z M 3.261719 186.605469 " clip-rule="nonzero"/></clipPath><clipPath id="0ea63d4d8e"><path d="M 3.261719 186.605469 L 185.695312 4.171875 L 371.839844 190.316406 L 189.40625 372.75 Z M 3.261719 186.605469 " clip-rule="nonzero"/></clipPath><clipPath id="b7789e3050"><path d="M 3.261719 186.605469 L 185.695312 4.171875 L 371.839844 190.316406 L 189.40625 372.75 Z M 3.261719 186.605469 " clip-rule="nonzero"/></clipPath><clipPath id="c36f067331"><path d="M 69 68 L 273 68 L 273 312 L 69 312 Z M 69 68 " clip-rule="nonzero"/></clipPath><clipPath id="f3e76e0608"><path d="M 3.261719 186.605469 L 185.695312 4.171875 L 371.839844 190.316406 L 189.40625 372.75 Z M 3.261719 186.605469 " clip-rule="nonzero"/></clipPath><clipPath id="548278caf1"><path d="M 3.261719 186.605469 L 185.695312 4.171875 L 371.839844 190.316406 L 189.40625 372.75 Z M 3.261719 186.605469 " clip-rule="nonzero"/></clipPath><clipPath id="ef28e7343e"><path d="M 3.261719 186.605469 L 185.695312 4.171875 L 371.839844 190.316406 L 189.40625 372.75 Z M 3.261719 186.605469 " clip-rule="nonzero"/></clipPath><clipPath id="81ea78b635"><path d="M 268 268 L 270 268 L 270 269 L 268 269 Z M 268 268 " clip-rule="nonzero"/></clipPath><clipPath id="f8745e1322"><path d="M 3.261719 186.605469 L 185.695312 4.171875 L 371.839844 190.316406 L 189.40625 372.75 Z M 3.261719 186.605469 " clip-rule="nonzero"/></clipPath><clipPath id="bc21eda61a"><path d="M 3.261719 186.605469 L 185.695312 4.171875 L 371.839844 190.316406 L 189.40625 372.75 Z M 3.261719 186.605469 " clip-rule="nonzero"/></clipPath><clipPath id="ed34eb0b9d"><path d="M 3.261719 186.605469 L 185.695312 4.171875 L 371.839844 190.316406 L 189.40625 372.75 Z M 3.261719 186.605469 " clip-rule="nonzero"/></clipPath><clipPath id="3201736151"><path d="M 72 68 L 251 68 L 251 309 L 72 309 Z M 72 68 " clip-rule="nonzero"/></clipPath><clipPath id="09b95bab14"><path d="M 3.261719 186.605469 L 185.695312 4.171875 L 371.839844 190.316406 L 189.40625 372.75 Z M 3.261719 186.605469 " clip-rule="nonzero"/></clipPath><clipPath id="c5834b1822"><path d="M 3.261719 186.605469 L 185.695312 4.171875 L 371.839844 190.316406 L 189.40625 372.75 Z M 3.261719 186.605469 " clip-rule="nonzero"/></clipPath><clipPath id="ae771c0590"><path d="M 3.261719 186.605469 L 185.695312 4.171875 L 371.839844 190.316406 L 189.40625 372.75 Z M 3.261719 186.605469 " clip-rule="nonzero"/></clipPath><clipPath id="fc04f34e21"><path d="M 62 62 L 277 62 L 277 319 L 62 319 Z M 62 62 " clip-rule="nonzero"/></clipPath><clipPath id="0e8e10f6a4"><path d="M 3.261719 186.605469 L 185.695312 4.171875 L 371.839844 190.316406 L 189.40625 372.75 Z M 3.261719 186.605469 " clip-rule="nonzero"/></clipPath><clipPath id="ab52206892"><path d="M 3.261719 186.605469 L 185.695312 4.171875 L 371.839844 190.316406 L 189.40625 372.75 Z M 3.261719 186.605469 " clip-rule="nonzero"/></clipPath><clipPath id="45f32682c5"><path d="M 3.261719 186.605469 L 185.695312 4.171875 L 371.839844 190.316406 L 189.40625 372.75 Z M 3.261719 186.605469 " clip-rule="nonzero"/></clipPath><clipPath id="5413b9c047"><path d="M 67 66 L 274 66 L 274 315 L 67 315 Z M 67 66 " clip-rule="nonzero"/></clipPath><clipPath id="442603fc58"><path d="M 3.261719 186.605469 L 185.695312 4.171875 L 371.839844 190.316406 L 189.40625 372.75 Z M 3.261719 186.605469 " clip-rule="nonzero"/></clipPath><clipPath id="38dcb66cea"><path d="M 3.261719 186.605469 L 185.695312 4.171875 L 371.839844 190.316406 L 189.40625 372.75 Z M 3.261719 186.605469 " clip-rule="nonzero"/></clipPath><clipPath id="931b5417c0"><path d="M 3.261719 186.605469 L 185.695312 4.171875 L 371.839844 190.316406 L 189.40625 372.75 Z M 3.261719 186.605469 " clip-rule="nonzero"/></clipPath><clipPath id="cab1e42d14"><path d="M 268 268 L 270 268 L 270 269 L 268 269 Z M 268 268 " clip-rule="nonzero"/></clipPath><clipPath id="c77ff9296a"><path d="M 3.261719 186.605469 L 185.695312 4.171875 L 371.839844 190.316406 L 189.40625 372.75 Z M 3.261719 186.605469 " clip-rule="nonzero"/></clipPath><clipPath id="191b57b028"><path d="M 3.261719 186.605469 L 185.695312 4.171875 L 371.839844 190.316406 L 189.40625 372.75 Z M 3.261719 186.605469 " clip-rule="nonzero"/></clipPath><clipPath id="bb764c296f"><path d="M 3.261719 186.605469 L 185.695312 4.171875 L 371.839844 190.316406 L 189.40625 372.75 Z M 3.261719 186.605469 " clip-rule="nonzero"/></clipPath></defs><g clip-path="url(#62dee9135c)"><g clip-path="url(#afecc991db)"><g clip-path="url(#0ea63d4d8e)"><g clip-path="url(#b7789e3050)"><path fill="#ffffff" d="M 269.015625 268.230469 L 268.976562 268.191406 L 269.015625 268.226562 Z M 269.015625 268.230469 " fill-opacity="1" fill-rule="nonzero"/></g></g></g></g><g clip-path="url(#c36f067331)"><g clip-path="url(#f3e76e0608)"><g clip-path="url(#548278caf1)"><g clip-path="url(#ef28e7343e)"><path fill="#ffffff" d="M 271.515625 99.515625 L 240.175781 130.855469 C 239.425781 130.230469 238.664062 129.621094 237.894531 129.03125 C 236.71875 128.128906 235.527344 127.265625 234.3125 126.441406 C 232.601562 125.273438 230.851562 124.183594 229.070312 123.171875 C 227.785156 122.441406 226.484375 121.75 225.167969 121.101562 C 223.3125 120.183594 221.425781 119.34375 219.515625 118.582031 C 218.140625 118.039062 216.757812 117.53125 215.359375 117.066406 C 213.398438 116.414062 211.417969 115.84375 209.414062 115.351562 C 207.980469 115 206.539062 114.691406 205.089844 114.417969 C 203.0625 114.042969 201.019531 113.746094 198.96875 113.53125 C 197.503906 113.378906 196.035156 113.269531 194.5625 113.199219 C 192.503906 113.101562 190.441406 113.085938 188.378906 113.152344 C 186.910156 113.199219 185.441406 113.289062 183.972656 113.417969 C 181.921875 113.601562 179.878906 113.867188 177.839844 114.214844 C 176.390625 114.460938 174.949219 114.75 173.511719 115.078125 C 171.507812 115.539062 169.519531 116.082031 167.550781 116.703125 C 166.152344 117.144531 164.761719 117.628906 163.382812 118.152344 C 161.464844 118.882812 159.570312 119.691406 157.703125 120.578125 C 156.378906 121.210938 155.066406 121.882812 153.773438 122.59375 C 151.972656 123.578125 150.210938 124.644531 148.476562 125.785156 C 147.253906 126.589844 146.046875 127.4375 144.863281 128.324219 C 143.222656 129.546875 141.621094 130.84375 140.058594 132.214844 C 139.121094 133.039062 138.199219 133.890625 137.292969 134.769531 C 137.15625 134.902344 137.019531 135.035156 136.882812 135.167969 L 136.828125 135.222656 C 136.695312 135.359375 136.558594 135.496094 136.421875 135.628906 C 135.089844 136.964844 133.816406 138.332031 132.601562 139.738281 C 131.632812 140.859375 130.699219 142 129.804688 143.160156 C 128.539062 144.804688 127.351562 146.488281 126.234375 148.210938 C 125.507812 149.328125 124.816406 150.460938 124.15625 151.609375 C 124.082031 151.734375 124.011719 151.863281 123.9375 151.988281 C 123.433594 152.875 122.953125 153.765625 122.488281 154.664062 C 122.003906 155.597656 121.542969 156.539062 121.101562 157.484375 C 120.476562 158.824219 119.890625 160.179688 119.347656 161.550781 C 118.585938 163.476562 117.898438 165.421875 117.296875 167.394531 C 116.863281 168.808594 116.472656 170.230469 116.121094 171.664062 C 115.898438 172.578125 115.691406 173.5 115.5 174.425781 C 115.273438 175.523438 115.070312 176.625 114.894531 177.730469 C 114.882812 177.785156 114.875 177.839844 114.867188 177.890625 C 114.644531 179.296875 114.457031 180.707031 114.3125 182.121094 C 114.097656 184.175781 113.96875 186.238281 113.921875 188.304688 C 113.886719 189.78125 113.894531 191.253906 113.945312 192.730469 C 114.015625 194.792969 114.167969 196.851562 114.402344 198.910156 L 114.417969 199.074219 C 114.554688 200.25 114.714844 201.421875 114.90625 202.59375 C 114.941406 202.824219 114.980469 203.050781 115.023438 203.28125 C 115.371094 205.3125 115.800781 207.332031 116.3125 209.339844 C 116.679688 210.765625 117.085938 212.183594 117.53125 213.589844 C 118.15625 215.554688 118.859375 217.496094 119.644531 219.414062 C 120.125 220.589844 120.636719 221.757812 121.183594 222.914062 C 121.265625 223.097656 121.347656 223.273438 121.433594 223.453125 C 121.859375 224.34375 122.304688 225.226562 122.765625 226.101562 C 123.265625 227.054688 123.789062 227.996094 124.332031 228.933594 C 125.070312 230.203125 125.851562 231.457031 126.667969 232.695312 C 127.800781 234.410156 129.007812 236.082031 130.296875 237.71875 C 131.203125 238.875 132.144531 240.011719 133.128906 241.125 C 133.816406 241.902344 134.519531 242.671875 135.246094 243.429688 C 135.652344 243.851562 136.0625 244.273438 136.484375 244.695312 C 136.792969 245.003906 137.101562 245.308594 137.414062 245.609375 C 137.539062 245.734375 137.660156 245.851562 137.789062 245.96875 C 138.734375 246.875 139.699219 247.75 140.683594 248.597656 C 142.257812 249.957031 143.878906 251.242188 145.539062 252.453125 C 146.734375 253.328125 147.949219 254.164062 149.183594 254.964844 C 150.929688 256.089844 152.710938 257.140625 154.523438 258.113281 C 154.726562 258.222656 154.925781 258.328125 155.128906 258.433594 C 156.179688 258.988281 157.238281 259.511719 158.308594 260.011719 C 158.367188 260.039062 158.429688 260.070312 158.488281 260.097656 C 160.371094 260.96875 162.277344 261.765625 164.214844 262.480469 C 165.605469 262.992188 167.003906 263.464844 168.417969 263.898438 C 170.398438 264.503906 172.394531 265.027344 174.410156 265.46875 C 175.8125 265.777344 177.214844 266.042969 178.628906 266.273438 C 178.671875 266.28125 178.71875 266.285156 178.765625 266.292969 C 179.886719 266.476562 181.015625 266.636719 182.144531 266.765625 C 183.066406 266.871094 183.992188 266.960938 184.917969 267.035156 C 186.386719 267.152344 187.859375 267.226562 189.339844 267.261719 C 191.402344 267.308594 193.464844 267.269531 195.53125 267.152344 C 197.003906 267.070312 198.472656 266.941406 199.9375 266.773438 C 201.070312 266.644531 202.199219 266.488281 203.328125 266.308594 C 204.238281 266.164062 205.148438 266.003906 206.054688 265.824219 C 206.304688 265.773438 206.550781 265.726562 206.796875 265.675781 C 207.992188 265.425781 209.179688 265.152344 210.363281 264.847656 C 212.359375 264.335938 214.335938 263.742188 216.289062 263.070312 C 217.679688 262.59375 219.054688 262.074219 220.421875 261.511719 C 222.320312 260.734375 224.195312 259.875 226.042969 258.9375 C 226.214844 258.847656 226.390625 258.757812 226.5625 258.667969 C 227.59375 258.136719 228.613281 257.578125 229.625 256.992188 C 229.722656 256.933594 229.820312 256.878906 229.921875 256.820312 C 231.691406 255.789062 233.429688 254.675781 235.132812 253.488281 C 236.332031 252.648438 237.515625 251.769531 238.679688 250.855469 C 239.128906 250.5 239.578125 250.140625 240.019531 249.777344 L 244.832031 254.394531 L 260.035156 268.984375 L 264.847656 273.601562 L 267.28125 275.9375 L 269.667969 278.226562 L 272.085938 280.546875 C 271.101562 281.433594 270.105469 282.304688 269.089844 283.152344 C 267.964844 284.101562 266.820312 285.03125 265.65625 285.9375 C 264.03125 287.210938 262.371094 288.4375 260.6875 289.621094 C 259.742188 290.285156 258.789062 290.9375 257.824219 291.570312 C 257.558594 291.746094 257.289062 291.921875 257.023438 292.09375 C 255.292969 293.21875 253.535156 294.292969 251.746094 295.328125 C 250.46875 296.066406 249.179688 296.777344 247.875 297.46875 C 246.054688 298.433594 244.207031 299.355469 242.335938 300.226562 C 241 300.851562 239.648438 301.445312 238.292969 302.015625 C 237.761719 302.238281 237.234375 302.457031 236.699219 302.675781 C 235.320312 303.234375 233.929688 303.765625 232.53125 304.273438 C 231.144531 304.773438 229.75 305.25 228.347656 305.703125 C 226.378906 306.332031 224.398438 306.914062 222.40625 307.445312 C 220.980469 307.828125 219.546875 308.179688 218.109375 308.507812 C 216.8125 308.800781 215.511719 309.078125 214.207031 309.328125 C 213.484375 309.464844 212.761719 309.597656 212.039062 309.726562 C 210.589844 309.976562 209.132812 310.203125 207.667969 310.40625 C 205.625 310.683594 203.574219 310.914062 201.511719 311.089844 C 200.042969 311.214844 198.570312 311.3125 197.097656 311.386719 C 195.082031 311.484375 193.066406 311.535156 191.050781 311.535156 L 190.90625 311.535156 C 189.433594 311.53125 187.957031 311.5 186.484375 311.445312 C 184.425781 311.375 182.367188 311.246094 180.308594 311.058594 C 178.839844 310.925781 177.371094 310.769531 175.90625 310.585938 C 173.855469 310.328125 171.8125 310.019531 169.78125 309.65625 C 169.152344 309.546875 168.527344 309.429688 167.902344 309.308594 C 167.078125 309.148438 166.253906 308.980469 165.4375 308.800781 C 163.417969 308.367188 161.410156 307.878906 159.414062 307.339844 C 157.992188 306.957031 156.574219 306.546875 155.164062 306.109375 C 153.1875 305.496094 151.230469 304.835938 149.289062 304.128906 C 147.984375 303.648438 146.6875 303.148438 145.402344 302.625 C 145.320312 302.59375 145.242188 302.5625 145.164062 302.527344 C 143.25 301.746094 141.359375 300.917969 139.488281 300.035156 C 138.152344 299.410156 136.828125 298.757812 135.515625 298.082031 C 133.675781 297.132812 131.867188 296.140625 130.078125 295.101562 C 128.800781 294.359375 127.539062 293.59375 126.292969 292.804688 C 125.613281 292.371094 124.933594 291.933594 124.261719 291.492188 C 123.210938 290.796875 122.167969 290.085938 121.136719 289.355469 C 119.933594 288.507812 118.742188 287.632812 117.570312 286.734375 C 115.925781 285.484375 114.316406 284.1875 112.734375 282.851562 C 111.609375 281.902344 110.5 280.929688 109.410156 279.933594 C 107.984375 278.640625 106.59375 277.3125 105.230469 275.949219 C 105.128906 275.847656 105.027344 275.75 104.929688 275.648438 C 103.890625 274.601562 102.867188 273.535156 101.867188 272.453125 C 100.464844 270.933594 99.101562 269.382812 97.777344 267.792969 C 96.828125 266.660156 95.90625 265.507812 95 264.34375 C 93.734375 262.707031 92.507812 261.042969 91.328125 259.347656 C 90.769531 258.542969 90.222656 257.738281 89.683594 256.921875 C 89.410156 256.507812 89.136719 256.089844 88.867188 255.667969 C 87.75 253.929688 86.679688 252.164062 85.652344 250.371094 C 84.917969 249.089844 84.210938 247.796875 83.523438 246.492188 C 82.5625 244.660156 81.648438 242.808594 80.785156 240.929688 C 80.164062 239.589844 79.570312 238.238281 79.003906 236.875 C 78.851562 236.515625 78.703125 236.152344 78.554688 235.789062 C 77.925781 234.238281 77.328125 232.675781 76.761719 231.097656 C 76.265625 229.710938 75.792969 228.3125 75.347656 226.902344 C 74.722656 224.9375 74.144531 222.953125 73.621094 220.949219 C 73.242188 219.519531 72.894531 218.082031 72.570312 216.640625 C 72.320312 215.523438 72.085938 214.402344 71.867188 213.277344 C 71.691406 212.375 71.527344 211.46875 71.371094 210.558594 C 71.128906 209.105469 70.90625 207.648438 70.710938 206.1875 C 70.4375 204.140625 70.214844 202.085938 70.050781 200.023438 C 69.925781 198.554688 69.832031 197.082031 69.765625 195.609375 C 69.679688 193.78125 69.636719 191.949219 69.636719 190.121094 L 69.640625 189.414062 C 69.648438 187.941406 69.683594 186.46875 69.746094 184.992188 C 69.828125 182.929688 69.96875 180.871094 70.160156 178.8125 C 70.292969 177.34375 70.457031 175.875 70.644531 174.414062 C 70.910156 172.367188 71.226562 170.324219 71.59375 168.296875 C 71.675781 167.851562 71.757812 167.40625 71.84375 166.964844 C 72.039062 165.960938 72.246094 164.957031 72.464844 163.960938 C 72.90625 161.945312 73.398438 159.941406 73.945312 157.945312 C 74.335938 156.523438 74.75 155.109375 75.1875 153.699219 C 75.804688 151.730469 76.46875 149.78125 77.1875 147.84375 C 77.609375 146.710938 78.042969 145.589844 78.496094 144.472656 C 78.597656 144.222656 78.699219 143.972656 78.800781 143.726562 C 79.585938 141.820312 80.425781 139.933594 81.308594 138.066406 C 81.941406 136.734375 82.597656 135.414062 83.277344 134.109375 C 84.230469 132.277344 85.230469 130.472656 86.273438 128.691406 C 87.019531 127.421875 87.789062 126.164062 88.582031 124.921875 C 88.917969 124.390625 89.257812 123.867188 89.605469 123.34375 C 90.394531 122.148438 91.207031 120.964844 92.042969 119.792969 C 92.898438 118.59375 93.773438 117.410156 94.671875 116.238281 C 95.929688 114.609375 97.230469 113.007812 98.570312 111.433594 C 99.527344 110.3125 100.503906 109.207031 101.503906 108.125 C 102.683594 106.835938 103.894531 105.574219 105.128906 104.339844 C 105.351562 104.117188 105.574219 103.894531 105.796875 103.671875 L 105.996094 103.472656 C 106.910156 102.574219 107.839844 101.691406 108.785156 100.824219 C 108.855469 100.753906 108.929688 100.691406 109 100.625 C 110.523438 99.230469 112.078125 97.878906 113.667969 96.5625 C 114.804688 95.625 115.957031 94.707031 117.125 93.808594 C 118.761719 92.550781 120.429688 91.335938 122.125 90.167969 C 122.792969 89.710938 123.460938 89.257812 124.136719 88.8125 C 124.691406 88.445312 125.25 88.085938 125.808594 87.726562 C 127.550781 86.621094 129.316406 85.558594 131.113281 84.542969 C 132.394531 83.816406 133.691406 83.113281 134.996094 82.433594 L 135.386719 82.234375 C 136.996094 81.40625 138.625 80.617188 140.265625 79.863281 C 140.363281 79.820312 140.460938 79.773438 140.558594 79.730469 C 141.898438 79.121094 143.25 78.535156 144.609375 77.972656 L 145.261719 77.707031 C 146.953125 77.023438 148.664062 76.375 150.390625 75.765625 C 151.777344 75.273438 153.175781 74.808594 154.585938 74.371094 C 156.550781 73.753906 158.535156 73.191406 160.535156 72.675781 C 161.960938 72.308594 163.394531 71.96875 164.832031 71.652344 C 165.804688 71.441406 166.777344 71.242188 167.75 71.050781 C 168.800781 70.851562 169.851562 70.660156 170.910156 70.488281 C 170.988281 70.472656 171.070312 70.460938 171.152344 70.445312 C 172.523438 70.222656 173.898438 70.019531 175.28125 69.84375 C 175.679688 69.792969 176.078125 69.742188 176.476562 69.695312 C 178.125 69.5 179.78125 69.339844 181.4375 69.210938 C 182.90625 69.097656 184.375 69.007812 185.847656 68.949219 C 187.535156 68.878906 189.21875 68.84375 190.90625 68.847656 C 191.28125 68.847656 191.660156 68.847656 192.035156 68.851562 C 193.507812 68.867188 194.980469 68.90625 196.453125 68.976562 C 198.515625 69.070312 200.570312 69.21875 202.625 69.417969 C 204.09375 69.5625 205.558594 69.730469 207.019531 69.925781 C 207.535156 69.992188 208.050781 70.066406 208.566406 70.144531 C 210.09375 70.367188 211.613281 70.621094 213.128906 70.902344 C 213.367188 70.945312 213.605469 70.992188 213.839844 71.039062 C 213.914062 71.050781 213.992188 71.0625 214.066406 71.078125 C 215.199219 71.296875 216.332031 71.535156 217.460938 71.789062 C 219.472656 72.242188 221.472656 72.742188 223.464844 73.296875 C 224.882812 73.691406 226.296875 74.109375 227.699219 74.558594 C 229.667969 75.183594 231.617188 75.859375 233.550781 76.582031 C 234.5625 76.960938 235.566406 77.351562 236.566406 77.757812 C 236.933594 77.90625 237.296875 78.054688 237.660156 78.210938 C 239.5625 79.003906 241.445312 79.847656 243.308594 80.738281 C 243.613281 80.886719 243.914062 81.03125 244.21875 81.179688 C 245.238281 81.679688 246.253906 82.195312 247.257812 82.722656 C 247.832031 83.023438 248.402344 83.328125 248.972656 83.640625 C 250.214844 84.316406 251.445312 85.015625 252.664062 85.738281 C 253.933594 86.492188 255.1875 87.265625 256.429688 88.0625 C 256.859375 88.335938 257.285156 88.613281 257.710938 88.894531 C 259.003906 89.75 260.285156 90.632812 261.546875 91.539062 C 262.746094 92.398438 263.925781 93.277344 265.09375 94.183594 C 266.722656 95.441406 268.320312 96.746094 269.890625 98.09375 C 270.4375 98.5625 270.976562 99.039062 271.515625 99.515625 Z M 271.515625 99.515625 " fill-opacity="1" fill-rule="nonzero"/></g></g></g></g><g clip-path="url(#81ea78b635)"><g clip-path="url(#f8745e1322)"><g clip-path="url(#bc21eda61a)"><g clip-path="url(#ed34eb0b9d)"><path fill="#231f20" d="M 268.976562 268.191406 L 269.015625 268.226562 L 269.015625 268.230469 Z M 268.976562 268.191406 " fill-opacity="1" fill-rule="nonzero"/></g></g></g></g><g clip-path="url(#3201736151)"><g clip-path="url(#09b95bab14)"><g clip-path="url(#c5834b1822)"><g clip-path="url(#ae771c0590)"><path fill="#231f20" d="M 250.316406 295.367188 C 248.722656 296.226562 247.085938 297.058594 245.453125 297.84375 L 226.230469 257.988281 C 227.265625 257.488281 228.304688 256.960938 229.3125 256.417969 Z M 214.445312 307.882812 C 212.667969 308.203125 210.859375 308.488281 209.070312 308.726562 L 203.136719 264.894531 C 204.277344 264.742188 205.429688 264.5625 206.558594 264.355469 Z M 176.519531 308.710938 C 174.730469 308.46875 172.921875 308.183594 171.144531 307.863281 L 178.976562 264.34375 C 180.105469 264.550781 181.253906 264.730469 182.394531 264.886719 Z M 140.140625 297.796875 C 138.515625 297.011719 136.878906 296.175781 135.292969 295.320312 L 156.230469 256.394531 C 157.238281 256.9375 158.273438 257.460938 159.296875 257.957031 Z M 108.9375 276.148438 C 108.277344 275.515625 107.613281 274.867188 106.964844 274.21875 C 106.339844 273.59375 105.710938 272.949219 105.097656 272.308594 L 137.019531 241.742188 C 137.414062 242.152344 137.816406 242.5625 138.21875 242.964844 C 138.636719 243.378906 139.058594 243.796875 139.484375 244.203125 Z M 124.820312 225.003906 L 85.902344 245.972656 C 85.042969 244.378906 84.207031 242.742188 83.421875 241.113281 L 123.246094 221.929688 C 123.742188 222.957031 124.269531 223.992188 124.816406 225 Z M 229.167969 120.515625 C 228.15625 119.972656 227.121094 119.445312 226.089844 118.945312 L 245.21875 79.097656 C 246.851562 79.882812 248.484375 80.710938 250.082031 81.570312 Z M 116.84375 202.246094 L 73.332031 210.097656 C 73.007812 208.320312 72.722656 206.511719 72.476562 204.71875 L 116.300781 198.820312 C 116.457031 199.960938 116.636719 201.113281 116.84375 202.246094 Z M 206.402344 112.574219 C 205.269531 112.367188 204.121094 112.1875 202.980469 112.035156 L 208.828125 68.203125 C 210.613281 68.445312 212.421875 68.726562 214.199219 69.046875 Z M 116.277344 178.082031 L 72.441406 172.175781 C 72.683594 170.386719 72.964844 168.578125 73.285156 166.800781 L 116.8125 174.664062 C 116.613281 175.792969 116.433594 176.945312 116.277344 178.082031 Z M 182.246094 112.035156 C 181.105469 112.1875 179.953125 112.367188 178.824219 112.578125 L 170.90625 69.054688 C 172.683594 68.734375 174.492188 68.449219 176.28125 68.207031 Z M 123.164062 154.992188 L 83.296875 135.804688 C 84.078125 134.175781 84.90625 132.542969 85.765625 130.949219 L 124.730469 151.917969 C 124.1875 152.925781 123.660156 153.960938 123.164062 154.992188 Z M 159.148438 118.957031 C 158.117188 119.457031 157.082031 119.984375 156.074219 120.535156 L 135.046875 81.605469 C 136.640625 80.746094 138.28125 79.910156 139.910156 79.117188 Z M 136.894531 135.183594 L 104.898438 104.609375 C 105.542969 103.9375 106.199219 103.261719 106.859375 102.605469 C 107.472656 101.988281 108.105469 101.375 108.730469 100.773438 L 139.351562 132.71875 C 138.519531 133.519531 137.691406 134.347656 136.894531 135.183594 Z M 136.894531 135.183594 " fill-opacity="1" fill-rule="nonzero"/></g></g></g></g><g clip-path="url(#fc04f34e21)"><g clip-path="url(#0e8e10f6a4)"><g clip-path="url(#ab52206892)"><g clip-path="url(#45f32682c5)"><path fill="#231f20" d="M 269.015625 268.230469 Z M 261.429688 83.296875 C 259.773438 82.203125 258.089844 81.144531 256.386719 80.128906 C 254.679688 79.113281 252.953125 78.136719 251.203125 77.199219 C 249.453125 76.261719 247.679688 75.367188 245.886719 74.515625 C 244.097656 73.660156 242.285156 72.847656 240.457031 72.078125 C 238.625 71.308594 236.777344 70.582031 234.914062 69.898438 C 233.050781 69.214844 231.175781 68.574219 229.28125 67.976562 C 227.386719 67.378906 225.480469 66.828125 223.5625 66.316406 C 221.644531 65.808594 219.714844 65.347656 217.773438 64.925781 C 215.835938 64.507812 213.886719 64.136719 211.929688 63.808594 C 209.972656 63.480469 208.007812 63.195312 206.039062 62.960938 C 204.066406 62.722656 202.09375 62.53125 200.113281 62.386719 C 198.132812 62.242188 196.152344 62.140625 194.167969 62.089844 C 192.1875 62.035156 190.203125 62.027344 188.21875 62.066406 C 186.234375 62.105469 184.253906 62.191406 182.273438 62.324219 C 180.292969 62.453125 178.316406 62.632812 176.347656 62.855469 C 174.375 63.078125 172.410156 63.347656 170.449219 63.660156 C 168.492188 63.976562 166.542969 64.335938 164.601562 64.742188 C 162.65625 65.144531 160.726562 65.59375 158.804688 66.089844 C 156.882812 66.585938 154.976562 67.125 153.082031 67.707031 C 151.183594 68.292969 149.304688 68.917969 147.4375 69.589844 C 145.570312 70.261719 143.71875 70.976562 141.886719 71.730469 C 140.054688 72.488281 138.238281 73.289062 136.445312 74.128906 C 134.648438 74.972656 132.871094 75.855469 131.117188 76.777344 C 129.363281 77.703125 127.628906 78.667969 125.917969 79.671875 C 124.210938 80.675781 122.523438 81.71875 120.863281 82.800781 C 119.203125 83.886719 117.566406 85.007812 115.957031 86.164062 C 114.347656 87.324219 112.765625 88.519531 111.214844 89.753906 C 109.660156 90.984375 108.136719 92.253906 106.640625 93.554688 C 105.148438 94.859375 103.683594 96.199219 102.25 97.570312 C 100.820312 98.941406 99.417969 100.34375 98.050781 101.78125 C 96.6875 103.21875 95.351562 104.6875 94.054688 106.183594 C 92.753906 107.683594 91.492188 109.210938 90.265625 110.769531 C 89.039062 112.328125 87.847656 113.910156 86.691406 115.523438 C 85.539062 117.136719 84.421875 118.777344 83.347656 120.441406 C 82.269531 122.105469 81.230469 123.796875 80.230469 125.507812 C 79.230469 127.222656 78.273438 128.957031 77.355469 130.714844 C 76.4375 132.472656 75.558594 134.25 74.722656 136.050781 C 73.890625 137.847656 73.09375 139.664062 72.34375 141.5 C 71.59375 143.335938 70.886719 145.1875 70.21875 147.058594 C 69.554688 148.925781 68.933594 150.808594 68.355469 152.707031 C 67.78125 154.605469 67.246094 156.515625 66.757812 158.4375 C 66.269531 160.359375 65.824219 162.292969 65.425781 164.238281 C 65.027344 166.179688 64.675781 168.132812 64.367188 170.089844 C 64.058594 172.050781 63.796875 174.015625 63.578125 175.988281 C 63.363281 177.960938 63.191406 179.9375 63.066406 181.917969 C 62.941406 183.898438 62.863281 185.878906 62.832031 187.863281 C 62.796875 189.847656 62.8125 191.832031 62.871094 193.816406 C 62.929688 195.796875 63.035156 197.78125 63.1875 199.757812 C 63.339844 201.738281 63.539062 203.710938 63.78125 205.679688 C 64.023438 207.648438 64.3125 209.613281 64.648438 211.570312 C 64.980469 213.523438 65.363281 215.472656 65.785156 217.410156 C 66.210938 219.351562 66.679688 221.277344 67.195312 223.195312 C 67.710938 225.113281 68.269531 227.015625 68.871094 228.90625 C 69.476562 230.796875 70.121094 232.675781 70.8125 234.535156 C 71.503906 236.398438 72.234375 238.242188 73.011719 240.066406 C 73.789062 241.894531 74.605469 243.703125 75.464844 245.492188 C 76.324219 247.28125 77.226562 249.050781 78.167969 250.796875 C 79.109375 252.546875 80.09375 254.269531 81.113281 255.972656 C 82.136719 257.675781 83.195312 259.351562 84.296875 261.003906 C 85.398438 262.65625 86.535156 264.285156 87.710938 265.882812 C 88.886719 267.484375 90.097656 269.054688 91.347656 270.597656 C 92.59375 272.144531 93.878906 273.65625 95.199219 275.140625 C 96.515625 276.625 97.867188 278.078125 99.253906 279.5 C 100.640625 280.921875 102.058594 282.308594 103.511719 283.664062 C 104.960938 285.019531 106.441406 286.339844 107.953125 287.628906 C 109.464844 288.914062 111.007812 290.167969 112.578125 291.382812 C 114.148438 292.597656 115.746094 293.773438 117.371094 294.914062 C 118.996094 296.058594 120.644531 297.160156 122.320312 298.222656 C 123.996094 299.289062 125.695312 300.3125 127.417969 301.300781 C 129.144531 302.285156 130.886719 303.230469 132.65625 304.132812 C 134.421875 305.039062 136.210938 305.902344 138.015625 306.722656 C 139.824219 307.542969 141.648438 308.324219 143.492188 309.058594 C 145.335938 309.796875 147.195312 310.488281 149.070312 311.140625 C 150.945312 311.789062 152.835938 312.398438 154.738281 312.960938 C 156.644531 313.519531 158.558594 314.039062 160.488281 314.511719 C 162.414062 314.988281 164.351562 315.414062 166.296875 315.796875 C 168.246094 316.183594 170.199219 316.519531 172.164062 316.8125 C 174.125 317.105469 176.09375 317.351562 178.070312 317.554688 C 180.042969 317.753906 182.023438 317.910156 184.003906 318.019531 C 185.984375 318.128906 187.96875 318.191406 189.953125 318.207031 C 191.9375 318.226562 193.917969 318.195312 195.902344 318.121094 C 197.882812 318.046875 199.863281 317.925781 201.839844 317.757812 C 203.820312 317.589844 205.789062 317.378906 207.757812 317.117188 C 209.722656 316.859375 211.683594 316.554688 213.636719 316.207031 C 215.589844 315.855469 217.535156 315.460938 219.46875 315.019531 C 221.402344 314.582031 223.324219 314.09375 225.238281 313.566406 C 227.148438 313.035156 229.046875 312.460938 230.929688 311.84375 C 232.816406 311.226562 234.683594 310.566406 236.539062 309.859375 C 238.394531 309.15625 240.230469 308.40625 242.050781 307.617188 C 243.867188 306.828125 245.667969 305.996094 247.449219 305.121094 C 249.230469 304.246094 250.988281 303.332031 252.726562 302.378906 C 254.464844 301.421875 256.179688 300.425781 257.871094 299.390625 C 259.5625 298.355469 261.226562 297.28125 262.867188 296.167969 C 264.511719 295.054688 266.125 293.90625 267.710938 292.714844 C 269.300781 291.527344 270.859375 290.304688 272.390625 289.042969 C 273.921875 287.78125 275.421875 286.488281 276.890625 285.15625 L 272.09375 280.550781 L 269.671875 278.230469 L 267.285156 275.9375 C 263.175781 279.59375 258.828125 282.9375 254.238281 285.96875 C 252.035156 287.421875 249.78125 288.796875 247.480469 290.101562 C 245.972656 290.949219 244.445312 291.765625 242.902344 292.550781 C 240.078125 293.976562 237.207031 295.285156 234.277344 296.46875 C 227.550781 299.191406 220.625 301.253906 213.5 302.660156 C 213.339844 302.691406 213.179688 302.726562 213.015625 302.757812 C 211.472656 303.054688 209.925781 303.320312 208.371094 303.554688 C 197.988281 305.121094 187.582031 305.261719 177.15625 303.984375 C 175.425781 303.769531 173.699219 303.519531 171.980469 303.226562 C 171.058594 303.074219 170.140625 302.90625 169.222656 302.730469 C 161.929688 301.3125 154.839844 299.207031 147.957031 296.414062 C 145.964844 295.605469 144 294.742188 142.054688 293.820312 C 140.472656 293.074219 138.910156 292.289062 137.363281 291.46875 C 134.148438 289.757812 131.011719 287.898438 127.976562 285.894531 C 122.230469 282.09375 116.871094 277.816406 111.890625 273.054688 C 111.25 272.445312 110.613281 271.824219 109.984375 271.195312 C 109.375 270.585938 108.773438 269.972656 108.179688 269.351562 C 103.398438 264.355469 99.101562 258.972656 95.285156 253.203125 C 93.296875 250.195312 91.449219 247.085938 89.753906 243.894531 C 88.929688 242.347656 88.140625 240.78125 87.390625 239.195312 C 86.457031 237.230469 85.582031 235.238281 84.761719 233.226562 C 81.972656 226.335938 79.867188 219.246094 78.453125 211.953125 C 78.277344 211.058594 78.117188 210.160156 77.964844 209.261719 C 77.667969 207.542969 77.417969 205.816406 77.207031 204.082031 C 75.921875 193.65625 76.058594 183.25 77.621094 172.867188 C 77.859375 171.292969 78.128906 169.722656 78.429688 168.160156 L 78.511719 167.742188 C 79.914062 160.597656 81.984375 153.652344 84.710938 146.90625 C 85.886719 144.007812 87.179688 141.15625 88.59375 138.355469 C 89.371094 136.8125 90.183594 135.289062 91.035156 133.78125 C 92.347656 131.453125 93.738281 129.171875 95.210938 126.941406 C 99.441406 120.535156 104.261719 114.613281 109.675781 109.175781 L 109.886719 108.964844 C 111.027344 107.824219 112.191406 106.710938 113.378906 105.621094 C 120.964844 98.625 129.347656 92.773438 138.527344 88.054688 C 140.050781 87.273438 141.585938 86.523438 143.140625 85.8125 C 144.699219 85.101562 146.257812 84.425781 147.828125 83.789062 C 154.710938 81.003906 161.796875 78.910156 169.089844 77.5 C 170.167969 77.292969 171.25 77.101562 172.332031 76.921875 C 174.003906 76.648438 175.683594 76.414062 177.367188 76.214844 C 187.496094 75.015625 197.609375 75.160156 207.703125 76.644531 C 209.371094 76.890625 211.035156 77.171875 212.6875 77.492188 C 212.75 77.503906 212.8125 77.515625 212.878906 77.527344 C 220.171875 78.945312 227.261719 81.046875 234.144531 83.84375 C 236.59375 84.835938 239.007812 85.914062 241.386719 87.082031 C 242.898438 87.820312 244.394531 88.597656 245.875 89.402344 C 248.695312 90.941406 251.445312 92.59375 254.125 94.363281 C 258.605469 97.328125 262.859375 100.589844 266.886719 104.144531 L 276.277344 94.753906 C 271.605469 90.574219 266.65625 86.753906 261.429688 83.296875 Z M 227.984375 114.992188 C 221.371094 111.746094 214.449219 109.414062 207.222656 107.996094 C 206.019531 107.757812 204.8125 107.546875 203.605469 107.367188 C 196.269531 106.253906 188.917969 106.113281 181.546875 106.9375 C 180.324219 107.078125 179.101562 107.242188 177.882812 107.429688 C 170.515625 108.582031 163.429688 110.679688 156.625 113.730469 C 155.492188 114.234375 154.371094 114.769531 153.261719 115.328125 C 146.539062 118.714844 140.390625 122.933594 134.8125 127.988281 C 133.886719 128.828125 132.976562 129.691406 132.078125 130.578125 C 131.980469 130.675781 131.886719 130.769531 131.789062 130.867188 C 126.515625 136.132812 122.03125 142.003906 118.332031 148.476562 C 117.703125 149.574219 117.105469 150.679688 116.53125 151.800781 C 113.042969 158.605469 110.535156 165.757812 109.015625 173.257812 C 108.761719 174.503906 108.539062 175.757812 108.339844 177.015625 C 107.152344 184.640625 107.011719 192.285156 107.917969 199.949219 C 108.070312 201.222656 108.25 202.492188 108.460938 203.757812 C 109.714844 211.40625 111.992188 218.738281 115.289062 225.757812 C 115.835938 226.917969 116.40625 228.066406 117.011719 229.207031 C 120.644531 236.085938 125.148438 242.332031 130.527344 247.953125 C 130.96875 248.410156 131.414062 248.867188 131.863281 249.316406 C 132.328125 249.78125 132.796875 250.242188 133.273438 250.691406 C 138.894531 256.070312 145.148438 260.570312 152.03125 264.199219 C 153.167969 264.800781 154.316406 265.371094 155.472656 265.914062 C 162.492188 269.203125 169.824219 271.476562 177.46875 272.730469 C 178.734375 272.9375 180 273.113281 181.273438 273.265625 C 188.941406 274.167969 196.585938 274.019531 204.210938 272.828125 C 205.472656 272.628906 206.722656 272.402344 207.972656 272.148438 C 215.476562 270.625 222.628906 268.117188 229.4375 264.621094 C 230.558594 264.046875 231.667969 263.445312 232.769531 262.816406 C 237.042969 260.367188 241.066406 257.5625 244.839844 254.398438 L 240.023438 249.78125 L 237.640625 247.496094 L 235.191406 245.144531 C 207.554688 267.339844 166.898438 265.601562 141.238281 239.941406 C 113.742188 212.441406 113.714844 167.722656 141.179688 140.257812 C 166.9375 114.5 207.863281 112.921875 235.535156 135.5 L 244.953125 126.082031 C 240.691406 122.488281 236.117188 119.355469 231.230469 116.679688 C 230.15625 116.089844 229.074219 115.53125 227.984375 114.992188 Z M 227.984375 114.992188 " fill-opacity="1" fill-rule="nonzero"/></g></g></g></g><g clip-path="url(#5413b9c047)"><g clip-path="url(#442603fc58)"><g clip-path="url(#38dcb66cea)"><g clip-path="url(#931b5417c0)"><path fill="#ffffff" d="M 264.023438 283.839844 L 265.664062 285.941406 L 267.289062 288.023438 C 268.46875 287.105469 269.652344 286.148438 270.796875 285.183594 L 269.09375 283.15625 L 267.378906 281.117188 C 266.285156 282.042969 265.152344 282.957031 264.023438 283.839844 Z M 256.433594 289.292969 C 256.148438 289.480469 255.859375 289.667969 255.570312 289.855469 L 257.027344 292.097656 L 258.460938 294.308594 C 258.761719 294.117188 259.0625 293.921875 259.363281 293.722656 C 260.3125 293.097656 261.269531 292.441406 262.207031 291.785156 L 260.691406 289.625 L 259.15625 287.441406 C 258.257812 288.070312 257.34375 288.691406 256.433594 289.292969 Z M 249.371094 293.601562 C 248.464844 294.113281 247.542969 294.617188 246.628906 295.101562 L 247.539062 296.816406 L 247.886719 297.472656 L 249.117188 299.796875 C 250.441406 299.09375 251.773438 298.359375 253.070312 297.609375 L 251.753906 295.332031 L 250.414062 293.011719 C 250.066406 293.210938 249.71875 293.410156 249.367188 293.605469 Z M 237.253906 299.542969 L 238.296875 302.023438 L 239.320312 304.4375 C 240.699219 303.855469 242.085938 303.238281 243.449219 302.605469 L 242.339844 300.230469 L 241.207031 297.792969 C 239.90625 298.398438 238.574219 298.988281 237.253906 299.542969 Z M 227.523438 303.144531 L 228.351562 305.710938 L 229.152344 308.195312 C 230.578125 307.738281 232.019531 307.246094 233.425781 306.738281 L 232.535156 304.28125 L 231.617188 301.746094 C 230.269531 302.234375 228.890625 302.707031 227.523438 303.144531 Z M 269.015625 268.226562 Z M 217.511719 305.882812 L 218.113281 308.519531 L 218.691406 311.058594 C 220.152344 310.726562 221.625 310.367188 223.082031 309.976562 L 222.410156 307.460938 L 221.714844 304.851562 C 220.324219 305.214844 218.914062 305.5625 217.511719 305.882812 Z M 208.902344 307.503906 C 208.367188 307.582031 207.835938 307.660156 207.304688 307.730469 L 207.671875 310.417969 L 208.027344 312.988281 C 209.515625 312.785156 211.019531 312.554688 212.492188 312.296875 L 212.050781 309.738281 L 211.804688 308.335938 L 211.582031 307.070312 C 210.695312 307.222656 209.800781 307.363281 208.902344 307.5 Z M 196.96875 308.683594 L 197.105469 311.394531 L 197.234375 313.980469 C 198.730469 313.910156 200.246094 313.808594 201.742188 313.679688 L 201.519531 311.097656 L 201.285156 308.394531 C 199.855469 308.515625 198.402344 308.613281 196.96875 308.679688 Z M 186.589844 308.734375 L 186.488281 311.457031 L 186.390625 314.039062 C 187.890625 314.097656 189.410156 314.128906 190.90625 314.132812 L 190.910156 311.546875 L 190.917969 308.824219 C 189.480469 308.816406 188.027344 308.789062 186.589844 308.734375 Z M 176.628906 307.933594 L 176.242188 307.886719 L 176.144531 308.664062 L 175.90625 310.59375 L 175.585938 313.148438 C 177.074219 313.335938 178.582031 313.5 180.078125 313.632812 L 180.308594 311.058594 L 180.546875 308.34375 C 179.246094 308.230469 177.925781 308.085938 176.628906 307.929688 Z M 233.609375 251.304688 L 235.136719 253.496094 L 236.644531 255.660156 C 237.886719 254.792969 239.125 253.878906 240.316406 252.941406 L 238.683594 250.863281 L 237.039062 248.765625 C 235.921875 249.636719 234.769531 250.488281 233.609375 251.296875 Z M 224.828125 256.546875 L 226.042969 258.941406 L 227.230469 261.28125 C 227.386719 261.203125 227.546875 261.121094 227.703125 261.039062 C 228.773438 260.492188 229.832031 259.910156 230.875 259.3125 C 231 259.242188 231.125 259.171875 231.246094 259.101562 L 229.921875 256.828125 L 228.574219 254.511719 C 227.351562 255.214844 226.089844 255.902344 224.828125 256.542969 Z M 215.414062 260.527344 L 216.289062 263.074219 L 217.140625 265.546875 C 218.570312 265.054688 220.007812 264.515625 221.410156 263.945312 L 220.417969 261.519531 L 219.398438 259.03125 C 218.09375 259.558594 216.75 260.0625 215.414062 260.519531 Z M 168.46875 306.640625 C 167.652344 306.484375 166.828125 306.3125 166.011719 306.136719 L 165.433594 308.808594 L 164.890625 311.316406 C 165.746094 311.5 166.609375 311.679688 167.460938 311.84375 C 168.082031 311.964844 168.707031 312.082031 169.328125 312.191406 L 169.78125 309.65625 L 170.257812 306.96875 C 169.664062 306.863281 169.0625 306.75 168.46875 306.636719 Z M 205.53125 263.167969 L 205.792969 264.488281 L 206.054688 265.824219 L 206.554688 268.375 C 206.792969 268.328125 207.023438 268.28125 207.261719 268.234375 C 208.519531 267.976562 209.773438 267.6875 211.011719 267.371094 L 210.363281 264.847656 L 209.691406 262.230469 C 208.320312 262.582031 206.921875 262.894531 205.53125 263.167969 Z M 195.371094 264.4375 L 195.53125 267.152344 L 195.683594 269.738281 C 197.195312 269.652344 198.730469 269.523438 200.234375 269.351562 L 199.9375 266.769531 L 199.628906 264.074219 C 198.21875 264.238281 196.789062 264.359375 195.371094 264.4375 Z M 155.964844 303.496094 L 155.160156 306.109375 L 154.402344 308.5625 C 155.835938 309.007812 157.292969 309.425781 158.742188 309.820312 L 159.410156 307.339844 L 160.121094 304.699219 C 158.738281 304.328125 157.339844 303.921875 155.96875 303.496094 Z M 185.128906 264.316406 L 184.917969 267.035156 L 184.710938 269.609375 C 186.226562 269.730469 187.765625 269.8125 189.28125 269.84375 L 189.335938 267.257812 L 189.398438 264.539062 C 187.980469 264.507812 186.546875 264.433594 185.132812 264.320312 Z M 146.460938 300.101562 L 146.195312 299.992188 L 145.160156 302.53125 L 144.191406 304.90625 L 144.472656 305.019531 C 145.765625 305.546875 147.09375 306.058594 148.410156 306.539062 L 149.289062 304.128906 L 150.234375 301.558594 C 148.96875 301.09375 147.703125 300.605469 146.460938 300.101562 Z M 175 262.804688 L 174.414062 265.472656 L 173.863281 267.984375 C 175.285156 268.296875 176.738281 268.574219 178.171875 268.808594 L 178.355469 268.839844 L 178.765625 266.292969 L 179.074219 264.355469 L 179.195312 263.601562 C 177.796875 263.378906 176.382812 263.109375 175 262.804688 Z M 140.332031 297.40625 C 139.140625 296.84375 137.941406 296.25 136.769531 295.644531 L 136.582031 296.007812 L 135.511719 298.082031 L 134.339844 300.359375 C 135.671875 301.046875 137.039062 301.71875 138.394531 302.359375 L 139.484375 300.035156 L 140.648438 297.554688 Z M 165.164062 259.917969 L 164.21875 262.488281 L 163.332031 264.898438 C 164.753906 265.425781 166.214844 265.917969 167.671875 266.363281 L 168.421875 263.90625 L 169.21875 261.289062 C 167.855469 260.871094 166.492188 260.410156 165.164062 259.917969 Z M 127.757812 290.488281 L 126.292969 292.808594 L 124.925781 294.972656 C 126.191406 295.773438 127.492188 296.5625 128.789062 297.316406 L 130.078125 295.101562 L 131.457031 292.730469 C 130.214844 292.007812 128.96875 291.253906 127.757812 290.484375 Z M 155.816406 255.699219 L 154.523438 258.117188 L 153.3125 260.375 C 153.511719 260.484375 153.710938 260.589844 153.914062 260.695312 C 154.992188 261.265625 156.09375 261.8125 157.199219 262.328125 C 157.269531 262.363281 157.339844 262.394531 157.410156 262.425781 L 158.488281 260.101562 L 159.640625 257.613281 C 158.359375 257.019531 157.070312 256.371094 155.816406 255.699219 Z M 119.234375 284.554688 L 117.570312 286.738281 L 116.019531 288.773438 C 117.214844 289.683594 118.4375 290.585938 119.664062 291.449219 L 121.140625 289.359375 L 122.722656 287.117188 C 121.550781 286.289062 120.378906 285.429688 119.234375 284.554688 Z M 147.15625 250.238281 L 145.535156 252.457031 L 144.027344 254.519531 C 145.253906 255.421875 146.519531 256.292969 147.796875 257.117188 L 149.183594 254.964844 L 150.671875 252.660156 C 149.484375 251.890625 148.300781 251.078125 147.15625 250.238281 Z M 111.257812 277.902344 L 109.410156 279.933594 L 107.691406 281.824219 C 108.800781 282.832031 109.941406 283.835938 111.089844 284.808594 L 112.742188 282.855469 L 114.515625 280.757812 C 113.414062 279.832031 112.320312 278.871094 111.257812 277.902344 Z M 139.324219 243.636719 L 139.117188 243.847656 L 137.414062 245.609375 L 135.636719 247.449219 C 135.761719 247.574219 135.890625 247.695312 136.019531 247.816406 C 136.992188 248.746094 138 249.65625 139.011719 250.53125 L 140.683594 248.597656 L 142.476562 246.515625 C 141.40625 245.59375 140.34375 244.625 139.324219 243.636719 Z M 101.867188 272.449219 L 99.988281 274.183594 C 101.007812 275.285156 102.0625 276.382812 103.117188 277.449219 L 104.929688 275.648438 L 106.667969 273.921875 L 106.878906 273.710938 C 106.351562 273.183594 105.828125 272.644531 105.308594 272.101562 C 104.828125 271.597656 104.351562 271.09375 103.882812 270.585938 Z M 130.300781 237.722656 L 128.289062 239.300781 C 129.222656 240.496094 130.207031 241.679688 131.214844 242.816406 L 133.132812 241.128906 L 135.195312 239.316406 C 134.253906 238.25 133.335938 237.144531 132.464844 236.035156 Z M 271.679688 96.011719 L 269.886719 98.097656 L 268.222656 100.039062 C 268.71875 100.460938 269.210938 100.894531 269.703125 101.328125 L 273.460938 97.570312 C 272.871094 97.042969 272.273438 96.523438 271.679688 96.011719 Z M 235.859375 124.171875 L 234.3125 126.441406 L 232.875 128.554688 C 234.046875 129.351562 235.210938 130.195312 236.335938 131.058594 L 237.894531 129.03125 L 239.566406 126.851562 C 238.359375 125.925781 237.113281 125.023438 235.859375 124.171875 Z M 95 264.34375 L 92.976562 265.910156 C 93.894531 267.09375 94.847656 268.28125 95.808594 269.433594 L 97.773438 267.792969 L 99.886719 266.03125 C 98.964844 264.925781 98.050781 263.792969 97.171875 262.65625 Z M 124.332031 228.9375 L 122.121094 230.226562 C 122.882812 231.539062 123.695312 232.84375 124.535156 234.113281 L 126.667969 232.699219 L 128.960938 231.183594 C 128.175781 230.003906 127.417969 228.78125 126.707031 227.554688 Z M 263.144531 89.3125 L 261.542969 91.542969 L 260.050781 93.621094 C 261.21875 94.457031 262.382812 95.328125 263.519531 96.207031 L 265.085938 94.183594 L 266.765625 92.011719 C 265.582031 91.089844 264.363281 90.183594 263.148438 89.308594 Z M 229.34375 120.1875 C 228.363281 119.648438 227.371094 119.132812 226.375 118.640625 L 226.199219 119.003906 L 225.164062 121.101562 L 224.027344 123.398438 C 225.300781 124.027344 226.570312 124.699219 227.800781 125.398438 L 229.0625 123.171875 L 230.417969 120.785156 C 230.0625 120.582031 229.703125 120.382812 229.34375 120.183594 Z M 88.867188 255.664062 L 86.714844 257.046875 C 86.984375 257.46875 87.261719 257.894531 87.539062 258.316406 C 88.085938 259.144531 88.660156 259.984375 89.230469 260.804688 L 91.332031 259.34375 L 93.585938 257.777344 C 93.039062 256.992188 92.496094 256.1875 91.964844 255.390625 C 91.699219 254.992188 91.433594 254.582031 91.175781 254.179688 Z M 119.648438 219.417969 L 117.273438 220.386719 C 117.773438 221.609375 118.3125 222.832031 118.875 224.03125 C 118.957031 224.207031 119.042969 224.386719 119.125 224.5625 L 121.4375 223.457031 L 123.511719 222.46875 L 123.914062 222.277344 C 123.304688 221 122.722656 219.691406 122.183594 218.382812 Z M 254.058594 83.378906 L 252.660156 85.738281 L 251.363281 87.941406 C 252.597656 88.675781 253.839844 89.4375 255.046875 90.210938 L 256.429688 88.058594 L 257.910156 85.75 C 256.648438 84.941406 255.355469 84.144531 254.058594 83.378906 Z M 216.214844 114.464844 L 215.355469 117.0625 L 214.546875 119.5 C 215.894531 119.949219 217.246094 120.4375 218.566406 120.960938 L 219.507812 118.578125 L 220.519531 116.03125 C 219.109375 115.472656 217.660156 114.945312 216.214844 114.464844 Z M 85.59375 245.394531 L 83.519531 246.484375 L 81.253906 247.671875 C 81.953125 249 82.683594 250.335938 83.425781 251.632812 L 85.648438 250.363281 L 88.027344 249 C 87.421875 247.941406 86.824219 246.859375 86.246094 245.773438 C 86.144531 245.585938 86.042969 245.394531 85.945312 245.203125 Z M 116.316406 209.34375 L 113.828125 209.976562 C 114.203125 211.449219 114.632812 212.929688 115.089844 214.367188 L 117.539062 213.589844 L 120.144531 212.765625 C 119.714844 211.417969 119.320312 210.035156 118.96875 208.664062 Z M 244.488281 78.265625 L 243.304688 80.742188 L 242.199219 83.054688 C 242.503906 83.199219 242.804688 83.34375 243.105469 83.492188 C 244.101562 83.980469 245.09375 84.480469 246.070312 84.992188 L 247.257812 82.722656 L 248.34375 80.652344 L 248.53125 80.292969 C 247.203125 79.597656 245.84375 78.914062 244.488281 78.265625 Z M 206.519531 111.910156 C 206.207031 111.847656 205.894531 111.785156 205.582031 111.730469 L 205.457031 112.40625 L 205.089844 114.414062 L 204.621094 116.949219 C 206.019531 117.207031 207.421875 117.507812 208.800781 117.84375 L 209.410156 115.347656 L 210.058594 112.691406 C 208.890625 112.40625 207.707031 112.144531 206.519531 111.910156 Z M 79 236.871094 L 76.636719 237.859375 C 77.214844 239.242188 77.828125 240.632812 78.457031 242 L 80.78125 240.925781 L 83.269531 239.773438 C 82.667969 238.46875 82.082031 237.136719 81.53125 235.8125 Z M 114.398438 198.90625 L 111.835938 199.195312 C 111.84375 199.269531 111.855469 199.34375 111.863281 199.417969 C 112.003906 200.632812 112.175781 201.851562 112.375 203.054688 C 112.410156 203.277344 112.445312 203.503906 112.484375 203.722656 L 115.023438 203.285156 L 117.714844 202.824219 C 117.476562 201.429688 117.273438 200.007812 117.109375 198.601562 Z M 237.632812 75.238281 C 236.601562 74.820312 235.554688 74.410156 234.511719 74.019531 L 233.550781 76.585938 L 232.652344 78.988281 C 233.652344 79.363281 234.65625 79.753906 235.640625 80.152344 C 235.984375 80.292969 236.332031 80.433594 236.675781 80.578125 L 237.664062 78.214844 L 238.714844 75.683594 C 238.355469 75.53125 237.992188 75.382812 237.628906 75.238281 Z M 194.6875 110.476562 L 194.566406 113.195312 L 194.449219 115.777344 C 195.863281 115.84375 197.296875 115.949219 198.707031 116.097656 L 198.972656 113.53125 L 199.25 110.816406 C 197.738281 110.660156 196.203125 110.546875 194.6875 110.476562 Z M 75.34375 226.894531 L 72.894531 227.671875 C 73.351562 229.101562 73.835938 230.542969 74.34375 231.953125 L 76.761719 231.089844 L 79.339844 230.167969 C 78.855469 228.816406 78.386719 227.4375 77.953125 226.070312 Z M 113.921875 188.304688 L 111.335938 188.246094 C 111.296875 189.757812 111.304688 191.296875 111.359375 192.8125 L 113.941406 192.726562 L 116.664062 192.632812 C 116.613281 191.21875 116.605469 189.78125 116.640625 188.363281 Z M 183.726562 110.71875 L 183.972656 113.421875 L 184.210938 116.003906 C 185.621094 115.875 187.054688 115.789062 188.472656 115.742188 L 188.382812 113.152344 L 188.289062 110.433594 C 186.769531 110.484375 185.234375 110.578125 183.722656 110.714844 Z M 224.195312 70.660156 L 223.464844 73.296875 L 222.78125 75.773438 C 224.164062 76.160156 225.558594 76.574219 226.929688 77.007812 L 227.703125 74.5625 L 228.527344 71.949219 C 227.097656 71.5 225.640625 71.0625 224.195312 70.660156 Z M 116.296875 177.960938 L 114.886719 177.734375 L 112.324219 177.316406 L 112.289062 177.546875 C 112.066406 178.972656 111.875 180.421875 111.734375 181.859375 L 114.3125 182.125 L 117.011719 182.402344 C 117.15625 180.992188 117.34375 179.570312 117.566406 178.167969 Z M 72.570312 216.640625 L 70.058594 217.199219 C 70.386719 218.664062 70.75 220.140625 71.128906 221.59375 L 73.617188 220.941406 L 76.261719 220.246094 C 75.898438 218.859375 75.550781 217.445312 75.238281 216.042969 Z M 172.898438 112.441406 L 173.507812 115.074219 L 174.101562 117.613281 C 175.480469 117.296875 176.886719 117.011719 178.28125 116.773438 L 177.839844 114.210938 L 177.378906 111.542969 C 175.882812 111.800781 174.375 112.105469 172.902344 112.445312 Z M 214.636719 68.40625 C 214.296875 68.34375 213.960938 68.277344 213.621094 68.214844 L 213.492188 68.921875 L 213.128906 70.902344 L 212.660156 73.4375 C 212.902344 73.480469 213.144531 73.527344 213.382812 73.574219 C 213.464844 73.589844 213.542969 73.605469 213.628906 73.621094 C 214.714844 73.832031 215.816406 74.058594 216.898438 74.300781 L 217.457031 71.792969 L 218.050781 69.125 C 216.925781 68.871094 215.773438 68.628906 214.636719 68.410156 Z M 117.292969 167.394531 L 114.800781 166.632812 C 114.359375 168.085938 113.949219 169.570312 113.589844 171.046875 L 116.121094 171.667969 L 118.746094 172.308594 C 119.082031 170.929688 119.460938 169.542969 119.875 168.1875 Z M 162.417969 115.636719 L 163.382812 118.152344 L 164.316406 120.59375 C 165.636719 120.089844 166.992188 119.617188 168.339844 119.191406 L 167.550781 116.703125 L 166.730469 114.132812 C 165.285156 114.589844 163.835938 115.09375 162.421875 115.636719 Z M 121.097656 157.484375 L 118.71875 156.378906 C 118.078125 157.757812 117.472656 159.171875 116.910156 160.585938 L 119.34375 161.550781 L 121.847656 162.546875 C 122.367188 161.226562 122.9375 159.90625 123.535156 158.621094 Z M 72.648438 205.929688 L 70.710938 206.1875 L 68.152344 206.527344 C 68.351562 208.015625 68.582031 209.519531 68.832031 210.996094 L 71.371094 210.566406 L 74.0625 210.109375 L 74.042969 209.972656 C 73.808594 208.601562 73.597656 207.210938 73.410156 205.832031 Z M 155.15625 118.835938 C 154.25 119.289062 153.355469 119.757812 152.476562 120.242188 L 153.769531 122.589844 L 155.039062 124.894531 C 156.277344 124.210938 157.554688 123.554688 158.832031 122.945312 L 157.699219 120.578125 L 157.347656 119.855469 L 156.535156 118.15625 C 156.078125 118.375 155.617188 118.601562 155.15625 118.835938 Z M 126.230469 148.210938 L 124.019531 146.777344 C 123.265625 147.945312 122.53125 149.148438 121.839844 150.359375 C 121.773438 150.46875 121.710938 150.578125 121.648438 150.6875 L 123.9375 151.988281 L 124.515625 152.316406 L 126.265625 153.3125 C 126.960938 152.082031 127.707031 150.855469 128.472656 149.667969 Z M 202.886719 66.707031 L 202.628906 69.421875 L 202.382812 71.988281 C 203.8125 72.128906 205.257812 72.292969 206.683594 72.484375 L 207.019531 69.925781 L 207.375 67.21875 C 205.890625 67.023438 204.382812 66.851562 202.886719 66.707031 Z M 143.261719 126.183594 L 144.863281 128.320312 L 146.445312 130.4375 C 147.578125 129.589844 148.75 128.761719 149.933594 127.980469 L 148.476562 125.785156 L 147 123.554688 C 145.734375 124.390625 144.476562 125.277344 143.261719 126.183594 Z M 132.597656 139.738281 L 130.589844 138.007812 C 129.597656 139.15625 128.625 140.347656 127.707031 141.550781 L 129.800781 143.160156 L 131.917969 144.785156 C 132.777344 143.664062 133.683594 142.550781 134.609375 141.476562 Z M 137.574219 130.867188 C 136.6875 131.667969 135.808594 132.496094 134.960938 133.335938 L 136.824219 135.222656 L 138.691406 137.113281 C 139.699219 136.117188 140.75 135.136719 141.8125 134.199219 L 140.058594 132.214844 L 138.300781 130.21875 C 138.054688 130.433594 137.816406 130.648438 137.574219 130.867188 Z M 69.765625 195.609375 L 67.183594 195.726562 C 67.253906 197.222656 67.351562 198.742188 67.472656 200.238281 L 70.046875 200.027344 L 72.761719 199.804688 C 72.644531 198.375 72.550781 196.921875 72.488281 195.484375 Z M 192.0625 66.128906 L 192.039062 68.855469 L 192.015625 71.441406 C 193.449219 71.453125 194.90625 71.496094 196.34375 71.558594 L 196.457031 68.980469 L 196.578125 66.257812 C 195.078125 66.1875 193.558594 66.148438 192.0625 66.132812 Z M 69.746094 184.992188 L 67.152344 184.882812 C 67.09375 186.382812 67.058594 187.902344 67.046875 189.402344 L 69.632812 189.417969 L 72.355469 189.433594 C 72.363281 188 72.394531 186.546875 72.453125 185.109375 Z M 181.226562 66.5 L 181.441406 69.207031 L 181.648438 71.789062 C 183.078125 71.679688 184.53125 71.589844 185.964844 71.53125 L 185.851562 68.949219 L 185.738281 66.234375 C 184.238281 66.296875 182.722656 66.386719 181.226562 66.503906 Z M 70.644531 174.417969 L 68.066406 174.082031 C 67.878906 175.570312 67.710938 177.082031 67.578125 178.574219 L 70.160156 178.816406 L 72.863281 179.070312 C 72.992188 177.636719 73.152344 176.191406 73.335938 174.769531 Z M 170.464844 67.8125 L 170.910156 70.488281 L 171.339844 73.050781 C 171.433594 73.035156 171.523438 73.019531 171.617188 73.003906 C 172.941406 72.785156 174.285156 72.589844 175.621094 72.417969 L 175.285156 69.84375 L 175.09375 68.375 L 174.933594 67.15625 C 173.445312 67.347656 171.941406 67.570312 170.464844 67.8125 Z M 72.464844 163.960938 L 69.921875 163.398438 C 69.703125 164.390625 69.496094 165.398438 69.304688 166.394531 C 69.214844 166.871094 69.125 167.351562 69.039062 167.832031 L 71.597656 168.300781 L 72.984375 168.554688 L 74.257812 168.78125 C 74.339844 168.324219 74.429688 167.863281 74.515625 167.40625 L 74.585938 167.039062 C 74.75 166.207031 74.921875 165.371094 75.105469 164.542969 Z M 159.859375 70.058594 L 160.539062 72.675781 L 161.191406 75.199219 C 162.582031 74.839844 163.996094 74.503906 165.398438 74.195312 L 164.835938 71.65625 L 164.25 69.011719 C 162.792969 69.332031 161.3125 69.6875 159.859375 70.0625 Z M 75.1875 153.703125 L 72.699219 152.925781 C 72.253906 154.355469 71.828125 155.816406 71.433594 157.261719 L 73.949219 157.949219 L 76.550781 158.664062 C 76.933594 157.28125 77.339844 155.882812 77.765625 154.515625 Z M 149.496094 73.222656 L 150.394531 75.761719 L 151.269531 78.226562 C 152.625 77.75 154.003906 77.289062 155.371094 76.859375 L 154.589844 74.367188 L 153.785156 71.796875 C 152.347656 72.246094 150.90625 72.726562 149.496094 73.222656 Z M 78.804688 143.726562 L 76.382812 142.726562 C 76.292969 142.953125 76.199219 143.179688 76.105469 143.40625 C 75.640625 144.566406 75.175781 145.753906 74.742188 146.933594 L 77.191406 147.84375 L 79.71875 148.777344 C 80.136719 147.652344 80.578125 146.511719 81.027344 145.402344 C 81.117188 145.1875 81.203125 144.96875 81.292969 144.753906 Z M 139.445312 77.285156 L 140.5625 79.730469 L 141.652344 82.113281 C 142.960938 81.515625 144.292969 80.933594 145.617188 80.390625 L 144.617188 77.96875 L 143.589844 75.484375 C 142.203125 76.054688 140.808594 76.660156 139.441406 77.285156 Z M 83.957031 134.457031 L 83.28125 134.109375 L 80.949219 132.898438 C 80.257812 134.230469 79.582031 135.589844 78.941406 136.945312 L 81.3125 138.066406 L 83.742188 139.21875 C 84.148438 138.355469 84.574219 137.488281 85.007812 136.625 C 85.222656 136.199219 85.441406 135.769531 85.660156 135.347656 Z M 129.792969 82.210938 L 131.117188 84.542969 L 132.414062 86.828125 C 133.664062 86.121094 134.941406 85.429688 136.214844 84.765625 L 135 82.4375 L 133.761719 80.054688 C 132.425781 80.75 131.09375 81.476562 129.789062 82.214844 Z M 88.585938 124.921875 L 86.363281 123.503906 C 85.558594 124.769531 84.765625 126.066406 84.007812 127.359375 L 86.277344 128.695312 L 88.589844 130.046875 C 89.316406 128.808594 90.074219 127.570312 90.84375 126.359375 Z M 122.742188 86.53125 C 122.03125 87 121.3125 87.484375 120.609375 87.96875 L 122.128906 90.167969 L 123.628906 92.339844 C 124.300781 91.875 124.988281 91.410156 125.667969 90.960938 C 126.183594 90.621094 126.707031 90.28125 127.230469 89.949219 L 125.8125 87.730469 L 124.375 85.472656 C 123.824219 85.824219 123.277344 86.179688 122.738281 86.535156 Z M 94.675781 116.238281 L 92.582031 114.628906 C 91.667969 115.816406 90.765625 117.039062 89.894531 118.261719 L 92.050781 119.789062 L 94.222656 121.339844 C 95.054688 120.167969 95.917969 119 96.792969 117.863281 Z M 111.972656 94.511719 L 113.671875 96.566406 L 115.359375 98.601562 C 116.46875 97.6875 117.605469 96.78125 118.738281 95.90625 L 117.128906 93.8125 L 115.5 91.695312 C 114.308594 92.613281 113.125 93.558594 111.96875 94.515625 Z M 101.503906 108.121094 L 99.546875 106.332031 C 98.535156 107.433594 97.53125 108.574219 96.558594 109.714844 L 98.570312 111.433594 L 100.597656 113.160156 C 101.527344 112.066406 102.492188 110.976562 103.464844 109.921875 Z M 103.933594 101.777344 L 105.800781 103.667969 L 105.804688 103.675781 L 107.664062 105.5625 C 108.628906 104.609375 109.625 103.660156 110.625 102.742188 L 110.796875 102.582031 L 109.003906 100.628906 L 107.210938 98.671875 C 106.097656 99.683594 104.996094 100.730469 103.933594 101.78125 Z M 103.933594 101.777344 " fill-opacity="1" fill-rule="nonzero"/></g></g></g></g><g clip-path="url(#cab1e42d14)"><g clip-path="url(#c77ff9296a)"><g clip-path="url(#191b57b028)"><g clip-path="url(#bb764c296f)"><path fill="#36d309" d="M 268.976562 268.191406 L 269.015625 268.226562 L 269.015625 268.230469 Z M 268.976562 268.191406 " fill-opacity="1" fill-rule="nonzero"/></g></g></g></g><g fill="#000000" fill-opacity="1"><g transform="translate(144.109418, 232.575452)"><g><path d="M 45 1.1875 C 37.414062 1.1875 30.734375 -0.390625 24.953125 -3.546875 C 19.171875 -6.703125 14.644531 -11.441406 11.375 -17.765625 C 8.113281 -24.097656 6.484375 -31.898438 6.484375 -41.171875 C 6.484375 -50.453125 8.113281 -58.253906 11.375 -64.578125 C 14.644531 -70.910156 19.171875 -75.648438 24.953125 -78.796875 C 30.734375 -81.953125 37.414062 -83.53125 45 -83.53125 C 52.925781 -83.53125 59.65625 -81.976562 65.1875 -78.875 C 70.726562 -75.78125 74.6875 -71.0625 77.0625 -64.71875 L 65.171875 -57.453125 L 63.765625 -57.515625 C 61.992188 -61.796875 59.597656 -64.863281 56.578125 -66.71875 C 53.554688 -68.582031 49.695312 -69.515625 45 -69.515625 C 38.164062 -69.515625 32.832031 -67.25 29 -62.71875 C 25.175781 -58.195312 23.265625 -51.015625 23.265625 -41.171875 C 23.265625 -31.367188 25.175781 -24.207031 29 -19.6875 C 32.832031 -15.164062 38.164062 -12.90625 45 -12.90625 C 55.707031 -12.90625 62.265625 -18.101562 64.671875 -28.5 L 66.078125 -28.5 L 78.078125 -22.25 C 75.816406 -14.4375 71.960938 -8.578125 66.515625 -4.671875 C 61.078125 -0.765625 53.90625 1.1875 45 1.1875 Z M 45 1.1875 "/></g></g></g></svg>